<svg
    width="60"
    height="26"
    viewBox="0 0 60 26"
    fill="none"
    xmlns="http://www.w3.org/2000/svg"
>
    <path
        d="M51.2537 23.6148L57.1672 12.9905L51.2537 2.36621H8.73142L2.81799 12.9905L8.73142 23.6148H51.2537Z"
        fill="#141414"
    />
    <path
        d="M18.2021 17V14.772H14.165V13.7246L18.4116 7.69434H19.3447V13.7246H20.6016V14.772H19.3447V17H18.2021ZM18.2021 13.7246V9.52881L15.2886 13.7246H18.2021ZM25.7178 17V7.69434H26.8604V13.001L29.5645 10.2588H31.0435L28.4663 12.7598L31.3037 17H29.8945L27.6665 13.5532L26.8604 14.3276V17H25.7178ZM32.1606 19.5962L32.0337 18.5234C32.2834 18.5911 32.5013 18.625 32.6875 18.625C32.9414 18.625 33.1445 18.5827 33.2969 18.498C33.4492 18.4134 33.5741 18.2949 33.6714 18.1426C33.7433 18.0283 33.8597 17.7448 34.0205 17.292C34.0417 17.2285 34.0755 17.1354 34.1221 17.0127L31.564 10.2588H32.7954L34.1982 14.1626C34.3802 14.6577 34.5431 15.1782 34.687 15.7241C34.8182 15.1994 34.9748 14.6873 35.1567 14.188L36.5977 10.2588H37.7402L35.1758 17.1143C34.9007 17.8548 34.687 18.3647 34.5347 18.644C34.3315 19.0207 34.0988 19.2957 33.8364 19.4692C33.5741 19.647 33.2609 19.7358 32.897 19.7358C32.6769 19.7358 32.4315 19.6893 32.1606 19.5962ZM43.1294 17V16.0098C42.6047 16.7715 41.8916 17.1523 40.9902 17.1523C40.5924 17.1523 40.2201 17.0762 39.873 16.9238C39.5303 16.7715 39.2743 16.5811 39.105 16.3525C38.9399 16.1198 38.8236 15.8363 38.7559 15.502C38.7093 15.2777 38.686 14.9222 38.686 14.4355V10.2588H39.8286V13.9976C39.8286 14.5942 39.8519 14.9963 39.8984 15.2036C39.9704 15.5041 40.1227 15.741 40.3555 15.9146C40.5882 16.0838 40.876 16.1685 41.2188 16.1685C41.5615 16.1685 41.8831 16.0817 42.1836 15.9082C42.484 15.7305 42.6956 15.4914 42.8184 15.1909C42.9453 14.8862 43.0088 14.4461 43.0088 13.8706V10.2588H44.1514V17H43.1294Z"
        fill="#3C7EBB"
    />
    <path
        d="M7.50012 25.9809L0 12.9904L7.50012 0H52.4999L60 12.9904L52.4999 25.9809H7.50012ZM50.7527 22.981L56.526 12.9904L50.7527 2.99986H9.23248L3.45916 12.9904L9.23248 22.981H50.7527Z"
        fill="#3C7EBB"
    />
</svg>