<?xml version="1.0" encoding="UTF-8"?>
<svg xmlns="http://www.w3.org/2000/svg" xmlns:xlink="http://www.w3.org/1999/xlink" width="50pt" height="22pt" viewBox="0 0 50 22" version="1.1">
<g id="surface1">
<path style=" stroke:none;fill-rule:nonzero;fill:rgb(7.843137%,7.843137%,7.843137%);fill-opacity:1;" d="M 42.710938 19.980469 L 47.640625 10.992188 L 42.710938 2.003906 L 7.277344 2.003906 L 2.347656 10.992188 L 7.277344 19.980469 Z M 42.710938 19.980469 "/>
<path style=" stroke:none;fill-rule:nonzero;fill:rgb(23.529412%,49.411765%,73.333333%);fill-opacity:1;" d="M 15.167969 14.382812 L 15.167969 12.5 L 11.804688 12.5 L 11.804688 11.613281 L 15.34375 6.511719 L 16.121094 6.511719 L 16.121094 11.613281 L 17.167969 11.613281 L 17.167969 12.5 L 16.121094 12.5 L 16.121094 14.382812 Z M 15.167969 11.613281 L 15.167969 8.0625 L 12.742188 11.613281 Z M 21.429688 14.382812 L 21.429688 6.511719 L 22.382812 6.511719 L 22.382812 11 L 24.636719 8.679688 L 25.871094 8.679688 L 23.722656 10.796875 L 26.085938 14.382812 L 24.910156 14.382812 L 23.054688 11.46875 L 22.382812 12.125 L 22.382812 14.382812 Z M 26.800781 16.582031 L 26.695312 15.671875 C 26.902344 15.730469 27.085938 15.757812 27.238281 15.757812 C 27.449219 15.757812 27.621094 15.722656 27.746094 15.652344 C 27.875 15.582031 27.976562 15.480469 28.058594 15.351562 C 28.121094 15.253906 28.214844 15.015625 28.351562 14.632812 C 28.367188 14.578125 28.394531 14.5 28.433594 14.394531 L 26.304688 8.679688 L 27.328125 8.679688 L 28.5 11.984375 C 28.648438 12.402344 28.785156 12.84375 28.90625 13.304688 C 29.015625 12.859375 29.144531 12.425781 29.296875 12.003906 L 30.5 8.679688 L 31.449219 8.679688 L 29.3125 14.480469 C 29.082031 15.109375 28.90625 15.539062 28.777344 15.777344 C 28.609375 16.09375 28.414062 16.328125 28.195312 16.472656 C 27.976562 16.625 27.71875 16.699219 27.414062 16.699219 C 27.230469 16.699219 27.027344 16.660156 26.800781 16.582031 Z M 35.941406 14.382812 L 35.941406 13.546875 C 35.503906 14.191406 34.910156 14.511719 34.160156 14.511719 C 33.828125 14.511719 33.515625 14.449219 33.226562 14.320312 C 32.941406 14.191406 32.730469 14.03125 32.585938 13.835938 C 32.449219 13.640625 32.351562 13.398438 32.296875 13.117188 C 32.257812 12.925781 32.238281 12.625 32.238281 12.214844 L 32.238281 8.679688 L 33.191406 8.679688 L 33.191406 11.84375 C 33.191406 12.347656 33.210938 12.6875 33.25 12.863281 C 33.308594 13.117188 33.4375 13.320312 33.628906 13.464844 C 33.824219 13.609375 34.0625 13.679688 34.347656 13.679688 C 34.632812 13.679688 34.902344 13.609375 35.152344 13.460938 C 35.402344 13.308594 35.578125 13.109375 35.683594 12.855469 C 35.789062 12.597656 35.839844 12.222656 35.839844 11.738281 L 35.839844 8.679688 L 36.792969 8.679688 L 36.792969 14.382812 Z M 35.941406 14.382812 "/>
<path style=" stroke:none;fill-rule:nonzero;fill:rgb(23.529412%,49.411765%,73.333333%);fill-opacity:1;" d="M 6.25 21.984375 L 0 10.992188 L 6.25 0 L 43.75 0 L 50 10.992188 L 43.75 21.984375 Z M 42.292969 19.445312 L 47.105469 10.992188 L 42.292969 2.539062 L 7.695312 2.539062 L 2.882812 10.992188 L 7.695312 19.445312 Z M 42.292969 19.445312 "/>
</g>
</svg>
