<?xml version="1.0" encoding="UTF-8"?>
<svg xmlns="http://www.w3.org/2000/svg" xmlns:xlink="http://www.w3.org/1999/xlink" width="46pt" height="50pt" viewBox="0 0 46 50" version="1.1">
<g id="surface1">
<path style="fill-rule:nonzero;fill:rgb(73.333333%,60%,39.607843%);fill-opacity:1;stroke-width:5;stroke-linecap:butt;stroke-linejoin:miter;stroke:rgb(73.333333%,60%,39.607843%);stroke-opacity:1;stroke-miterlimit:4;" d="M 58.901579 2.900547 C 37.300442 5.897422 18.501613 19.704453 9.001359 39.505234 C 4.097317 49.801641 2.600628 56.298438 2.600628 67.996953 C 2.600628 79.203125 4.097317 85.903281 8.502463 95.503984 C 27.502972 136.903672 81.50051 146.900391 114.09859 115.005078 C 117.304263 111.804844 120.000425 108.797266 120.000425 108.40125 C 119.904891 107.898203 112.495754 102.000781 103.50501 95.204297 L 86.998981 83.002734 L 82.498302 86.502656 C 71.904721 94.497891 56.598166 91.897031 49.295177 80.797891 C 46.800696 77.105313 46.503482 75.703203 46.503482 68.5 C 46.503482 61.296797 46.800696 59.894688 49.295177 56.202109 C 53.201427 50.304688 58.901579 46.804766 65.503991 46.194688 C 73.295262 45.595313 77.297045 46.601406 82.498302 50.604375 L 87.105129 54.104297 L 120.902683 28.695078 L 117.697011 24.799141 C 110.999066 16.504219 95.299762 6.903516 83.99499 4.195625 C 77.403193 2.697188 65.30231 2.097813 58.901579 2.900547 Z M 86.998981 6.197109 C 90.597401 7.299531 96.499236 9.900391 100.203804 12.105234 C 106.604535 15.904844 119.002632 26.297578 119.002632 27.999375 C 119.002632 28.395391 111.795177 34.196484 102.899966 40.800313 L 86.7973 52.894844 L 84.600034 50.797031 C 78.602666 44.995938 65.599524 43.101484 58.201002 46.901094 C 49.496858 51.396406 44.996179 58.695938 44.996179 68.5 C 44.996179 78.304063 49.496858 85.603594 58.201002 90.098906 C 65.599524 93.898516 78.602666 92.004063 84.600034 86.202969 L 86.7973 84.105156 L 102.995499 96.296016 L 119.098166 108.497578 L 111.996858 115.197734 C 77.297045 147.895781 20.295516 132.504688 5.997368 86.502656 C 3.195058 77.405 2.897843 61.403828 5.402938 52.102813 C 15.104874 16.204531 51.800272 -4.398984 86.998981 6.197109 Z M 86.998981 6.197109 " transform="matrix(0.368,0,0,0.364964,0,0)"/>
</g>
</svg>
