<?xml version="1.0" encoding="UTF-8"?>
<svg xmlns="http://www.w3.org/2000/svg" xmlns:xlink="http://www.w3.org/1999/xlink" width="50pt" height="50pt" viewBox="0 0 50 50" version="1.1">
<g id="surface1">
<path style=" stroke:none;fill-rule:nonzero;fill:rgb(0%,0%,0%);fill-opacity:1;" d="M 0.949219 34.398438 L 23.800781 49.636719 C 24.578125 50.117188 25.414062 50.121094 26.199219 49.636719 L 49.050781 34.398438 C 49.636719 34.011719 50 33.3125 50 32.613281 L 50 17.382812 C 50 16.683594 49.636719 15.984375 49.050781 15.597656 L 26.199219 0.359375 C 25.421875 -0.117188 24.585938 -0.121094 23.800781 0.359375 L 0.949219 15.597656 C 0.363281 15.984375 0 16.683594 0 17.382812 L 0 32.613281 C 0 33.3125 0.363281 34.011719 0.949219 34.398438 Z M 22.851562 43.832031 L 6.027344 32.617188 L 13.535156 27.59375 L 22.851562 33.816406 Z M 27.148438 43.832031 L 27.148438 33.816406 L 36.464844 27.59375 L 43.972656 32.617188 Z M 45.703125 28.597656 L 40.320312 24.996094 L 45.703125 21.398438 Z M 27.148438 6.164062 L 43.972656 17.382812 L 36.464844 22.402344 L 27.148438 16.179688 Z M 25 19.917969 L 32.589844 24.996094 L 25 30.078125 L 17.410156 24.996094 Z M 22.851562 6.164062 L 22.851562 16.179688 L 13.535156 22.402344 L 6.027344 17.382812 Z M 4.296875 21.402344 L 4.296875 21.398438 L 9.683594 25 L 4.296875 28.601562 Z M 4.296875 21.402344 "/>
</g>
</svg>
