<?xml version="1.0" encoding="UTF-8"?>
<svg xmlns="http://www.w3.org/2000/svg" xmlns:xlink="http://www.w3.org/1999/xlink" width="50pt" height="50pt" viewBox="0 0 50 50" version="1.1">
<g id="surface1">
<path style=" stroke:none;fill-rule:nonzero;fill:rgb(94.901961%,94.901961%,94.901961%);fill-opacity:1;" d="M 20.28125 40.625 C 15.398438 40.625 11.425781 36.652344 11.425781 31.769531 L 11.425781 10.417969 L 7.78125 10.417969 C 4.621094 10.417969 2.050781 12.984375 2.050781 16.144531 L 2.050781 44.269531 C 2.050781 47.429688 4.621094 50 7.78125 50 L 33.820312 50 C 36.980469 50 39.550781 47.429688 39.550781 44.269531 L 39.550781 40.625 Z M 20.28125 40.625 "/>
<path style=" stroke:none;fill-rule:nonzero;fill:rgb(56.470588%,64.313725%,68.235294%);fill-opacity:1;" d="M 47.882812 5.730469 C 47.882812 2.566406 45.320312 0 42.15625 0 L 20.28125 0 C 17.117188 0 14.550781 2.566406 14.550781 5.730469 L 14.550781 31.769531 C 14.550781 34.933594 17.117188 37.5 20.28125 37.5 L 42.15625 37.5 C 45.320312 37.5 47.882812 34.933594 47.882812 31.769531 Z M 47.882812 5.730469 "/>
</g>
</svg>
