<svg width="1362" height="1536" viewBox="0 0 1362 1536" fill="none" xmlns="http://www.w3.org/2000/svg">
<path fill-rule="evenodd" clip-rule="evenodd" d="M1239.48 1371.13L1360.3 17.751L1361.88 -0.000976562H1344.08H17.919H0.118042L1.69904 17.751L122.388 1371.35L123.394 1382.64L134.266 1385.65L675.85 1536H684.54L1227.6 1385.43L1238.47 1382.42L1239.48 1371.13Z" fill="#1572B6"/>
<path fill-rule="evenodd" clip-rule="evenodd" d="M1256.93 95.998H681V1437.36L1148.76 1307.67L1256.93 95.998Z" fill="#35A8DB"/>
<path fill-rule="evenodd" clip-rule="evenodd" d="M680.36 456.359L274.147 625.537L287.621 793.03L680.36 625.108L1098.13 446.495L1115.45 275.154L680.36 456.359Z" fill="#E9E9E8"/>
<path fill-rule="evenodd" clip-rule="evenodd" d="M680.36 275.162H683.37H686.8H690.22H693.65H697.08H700.51H703.94H707.37H710.8H714.23H717.66H721.09H724.52H727.95H731.38H734.81H738.23H741.66H745.09H748.52H751.95H755.38H758.81H762.24H765.67H769.1H772.53H775.95H779.38H782.81H786.24H789.67H793.1H796.53H799.96H803.39H806.82H810.25H813.68H817.11H820.54H823.97H827.39H830.82H834.25H837.68H841.11H844.54H847.97H851.4H854.83H858.26H861.69H865.12H868.55H871.97H875.4H878.83H882.26H885.69H889.12H892.55H895.98H899.41H902.84H906.27H909.7H913.12H916.55H919.98H923.41H926.84H930.27H933.7H937.13H940.56H943.99H947.42H950.85H954.28H957.71H961.13H964.56H967.99H971.42H974.85H978.28H981.71H985.14H988.57H992H995.43H998.86H1002.28H1005.71H1009.14H1012.57H1016H1019.43H1022.86H1026.29H1029.72H1033.15H1036.58H1040.01H1043.44H1046.87H1050.29H1053.72H1057.15H1060.58H1064.01H1067.44H1070.87H1074.3H1077.73H1081.16H1084.59H1088.02H1091.45H1094.88H1098.3H1101.73H1105.16H1108.59H1112.02H1115.45L1112.02 309.076L1108.59 342.987L1105.16 376.898L1101.73 410.82L1098.3 444.732L1098.13 446.495H1094.88H1091.45H1088.02H1084.59H1081.16H1077.73H1074.3H1070.87H1067.44H1064.01H1060.58H1057.15H1053.72H1050.29H1046.87H1043.44H1040.01H1036.58H1033.15H1029.72H1026.29H1022.86H1019.43H1016H1012.57H1009.14H1005.71H1002.28H998.86H995.43H992H988.57H985.14H981.71H978.28H974.85H971.42H967.99H964.56H961.13H957.71H954.28H950.85H947.42H943.99H940.56H937.13H933.7H930.27H926.84H923.41H919.98H916.55H913.12H909.7H906.27H902.84H899.41H895.98H892.55H889.12H885.69H882.26H878.83H875.4H871.97H868.55H865.12H861.69H858.26H854.83H851.4H847.97H844.54H841.11H837.68H834.25H830.82H827.39H823.97H820.54H817.11H813.68H810.25H806.82H803.39H799.96H796.53H793.1H789.67H786.24H782.81H779.38H775.95H772.53H769.1H765.67H762.24H758.81H755.38H751.95H748.52H745.09H741.66H738.23H734.81H731.38H727.95H724.52H721.09H717.66H714.23H710.8H707.37H704.04H703.94H700.51H697.08H693.65H690.22H686.8H683.37H680.86H680.36H679.94H676.51H673.08H669.65H666.22H662.79H659.36H655.933H652.504H649.075H645.646H642.216H638.787H635.359H631.929H628.5H625.07H621.641H618.211H614.783H611.354H607.924H604.495H601.065H597.637H594.207H590.778H587.349H583.919H580.49H577.061H573.632H570.202H566.773H563.344H559.914H556.486H553.056H549.627H546.198H542.768H539.34H535.911H532.481H529.051H525.622H522.194H518.764H515.335H511.906H508.476H505.048H501.618H498.189H494.759H491.33H487.901H484.472H481.043H477.613H474.184H470.754H467.325H463.897H460.467H457.038H453.608H450.179H446.749H443.321H439.892H436.462H433.033H429.603H426.175H422.746H419.316H415.887H412.458H409.029H405.599H402.17H398.741H395.311H391.882H388.454H385.024H381.595H378.165H374.736H371.306H367.878H364.449H361.019H357.59H354.16H350.732H347.302H343.873H340.444H337.014H333.586H330.156H326.727H323.298H319.868H316.439H313.01H309.581H306.151H302.722H299.293H295.863H292.435H289.006H285.576H282.146H278.717H275.289H271.859H268.43H265.001H261.571H258.741L258.143 441.649L254.713 413.896L251.284 386.152L247.854 358.397L244.425 330.653L240.997 302.908L237.568 275.162H240.997H244.425H247.854H251.284H254.713H258.143H261.571H265.001H268.43H271.859H275.289H278.717H282.146H285.576H289.006H292.435H295.863H299.293H302.722H306.151H309.581H313.01H316.439H319.868H323.298H326.727H330.156H333.586H337.014H340.444H343.873H347.302H350.732H354.16H357.59H361.019H364.449H367.878H371.306H374.736H378.165H381.595H385.024H388.454H391.882H395.311H398.741H402.17H405.599H409.029H412.458H415.887H419.316H422.746H426.175H429.603H433.033H436.462H439.892H443.321H446.749H450.179H453.608H457.038H460.467H463.897H467.325H470.754H474.184H477.613H481.043H484.472H487.901H491.33H494.759H498.189H501.618H505.048H508.476H511.906H515.335H518.764H522.194H525.622H529.051H532.481H535.911H539.34H542.768H546.198H549.627H553.056H556.486H559.914H563.344H566.773H570.202H573.632H577.061H580.49H583.919H587.349H590.778H594.207H597.637H601.065H604.495H607.924H611.354H614.783H618.211H621.641H625.07H628.5H631.929H635.359H638.787H642.216H645.646H649.075H652.504H655.933H659.36H662.79H666.22H669.65H673.08H676.51H679.94H680.36Z" fill="#E9E9E8"/>
<path fill-rule="evenodd" clip-rule="evenodd" d="M274.774 625.561H1083.37L1068.64 794.96L288.247 793.03L274.774 625.561Z" fill="#E9E9E8"/>
<path fill-rule="evenodd" clip-rule="evenodd" d="M300.04 887.39L476.921 887.46L488.462 1025.97L680.36 1073.56L877.37 1018.27L890.7 791.76L1069.16 788.96L1037.16 1156.88L681 1260.85L322.275 1154.96L300.04 887.39Z" fill="#E9E9E8"/>
<path fill-rule="evenodd" clip-rule="evenodd" d="M681 624.833L1098.13 446.495L1115.45 275.154L681 456.091V624.833Z" fill="#FFFFFE"/>
<path fill-rule="evenodd" clip-rule="evenodd" d="M681 275.162H683.37H686.8H690.22H693.65H697.08H700.51H703.94H707.37H710.8H714.23H717.66H721.09H724.52H727.95H731.38H734.81H738.23H741.66H745.09H748.52H751.95H755.38H758.81H762.24H765.67H769.1H772.53H775.95H779.38H782.81H786.24H789.67H793.1H796.53H799.96H803.39H806.82H810.25H813.68H817.11H820.54H823.97H827.39H830.82H834.25H837.68H841.11H844.54H847.97H851.4H854.83H858.26H861.69H865.12H868.55H871.97H875.4H878.83H882.26H885.69H889.12H892.55H895.98H899.41H902.84H906.27H909.7H913.12H916.55H919.98H923.41H926.84H930.27H933.7H937.13H940.56H943.99H947.42H950.85H954.28H957.71H961.13H964.56H967.99H971.42H974.85H978.28H981.71H985.14H988.57H992H995.43H998.86H1002.28H1005.71H1009.14H1012.57H1016H1019.43H1022.86H1026.29H1029.72H1033.15H1036.58H1040.01H1043.44H1046.87H1050.29H1053.72H1057.15H1060.58H1064.01H1067.44H1070.87H1074.3H1077.73H1081.16H1084.59H1088.02H1091.45H1094.88H1098.3H1101.73H1105.16H1108.59H1112.02H1115.45L1112.02 309.076L1108.59 342.987L1105.16 376.898L1101.73 410.82L1098.3 444.732L1098.13 446.495H1094.88H1091.45H1088.02H1084.59H1081.16H1077.73H1074.3H1070.87H1067.44H1064.01H1060.58H1057.15H1053.72H1050.29H1046.87H1043.44H1040.01H1036.58H1033.15H1029.72H1026.29H1022.86H1019.43H1016H1012.57H1009.14H1005.71H1002.28H998.86H995.43H992H988.57H985.14H981.71H978.28H974.85H971.42H967.99H964.56H961.13H957.71H954.28H950.85H947.42H943.99H940.56H937.13H933.7H930.27H926.84H923.41H919.98H916.55H913.12H909.7H906.27H902.84H899.41H895.98H892.55H889.12H885.69H882.26H878.83H875.4H871.97H868.55H865.12H861.69H858.26H854.83H851.4H847.97H844.54H841.11H837.68H834.25H830.82H827.39H823.97H820.54H817.11H813.68H810.25H806.82H803.39H799.96H796.53H793.1H789.67H786.24H782.81H779.38H775.95H772.53H769.1H765.67H762.24H758.81H755.38H751.95H748.52H745.09H741.66H738.23H734.81H731.38H727.95H724.52H721.09H717.66H714.23H710.8H707.37H704.04H703.94H700.51H697.08H693.65H690.22H686.8H683.37H681V275.162Z" fill="#FFFFFE"/>
<path fill-rule="evenodd" clip-rule="evenodd" d="M681 625.561H1083.37L1068.64 794.96L681 794V625.561Z" fill="#FFFFFE"/>
<path fill-rule="evenodd" clip-rule="evenodd" d="M681 1073.38L877.37 1018.27L890.7 791.76L1069.16 788.96L1037.16 1156.88L681 1260.85V1260.84V1073.38Z" fill="#FFFFFE"/>
</svg>
