<?xml version="1.0" encoding="UTF-8"?>
<svg xmlns="http://www.w3.org/2000/svg" xmlns:xlink="http://www.w3.org/1999/xlink" width="50pt" height="56pt" viewBox="0 0 50 56" version="1.1">
<g id="surface1">
<path style=" stroke:none;fill-rule:evenodd;fill:rgb(8.235294%,44.705882%,71.372549%);fill-opacity:1;" d="M 45.503906 49.988281 L 49.9375 0.648438 L 49.996094 0 L 0.00390625 0 L 0.0625 0.648438 L 4.492188 49.996094 L 4.53125 50.410156 L 4.929688 50.519531 L 24.8125 56 L 25.128906 56 L 45.066406 50.511719 L 45.464844 50.402344 Z M 45.503906 49.988281 "/>
<path style=" stroke:none;fill-rule:evenodd;fill:rgb(20.784314%,65.882353%,85.882353%);fill-opacity:1;" d="M 46.144531 3.5 L 25 3.5 L 25 52.402344 L 42.171875 47.675781 Z M 46.144531 3.5 "/>
<path style=" stroke:none;fill-rule:evenodd;fill:rgb(91.372549%,91.372549%,90.980392%);fill-opacity:1;" d="M 24.976562 16.636719 L 10.0625 22.804688 L 10.558594 28.914062 L 24.976562 22.789062 L 40.3125 16.277344 L 40.949219 10.03125 Z M 24.976562 16.636719 "/>
<path style=" stroke:none;fill-rule:evenodd;fill:rgb(91.372549%,91.372549%,90.980392%);fill-opacity:1;" d="M 24.976562 10.03125 L 40.949219 10.03125 L 40.824219 11.269531 L 40.695312 12.503906 L 40.570312 13.742188 L 40.445312 14.976562 L 40.320312 16.214844 L 40.3125 16.277344 L 9.5 16.277344 L 9.476562 16.101562 L 9.226562 14.078125 L 9.097656 13.066406 L 8.722656 10.03125 Z M 24.976562 10.03125 "/>
<path style=" stroke:none;fill-rule:evenodd;fill:rgb(91.372549%,91.372549%,90.980392%);fill-opacity:1;" d="M 10.085938 22.808594 L 39.769531 22.808594 L 39.230469 28.984375 L 10.582031 28.914062 Z M 10.085938 22.808594 "/>
<path style=" stroke:none;fill-rule:evenodd;fill:rgb(91.372549%,91.372549%,90.980392%);fill-opacity:1;" d="M 11.015625 32.351562 L 17.507812 32.355469 L 17.933594 37.40625 L 24.976562 39.140625 L 32.207031 37.125 L 32.699219 28.867188 L 39.25 28.765625 L 38.074219 42.179688 L 25 45.96875 L 11.832031 42.109375 Z M 11.015625 32.351562 "/>
<path style=" stroke:none;fill-rule:evenodd;fill:rgb(100%,100%,99.607843%);fill-opacity:1;" d="M 25 22.78125 L 40.3125 16.277344 L 40.949219 10.03125 L 25 16.628906 Z M 25 22.78125 "/>
<path style=" stroke:none;fill-rule:evenodd;fill:rgb(100%,100%,99.607843%);fill-opacity:1;" d="M 25 10.03125 L 40.949219 10.03125 L 40.824219 11.269531 L 40.695312 12.503906 L 40.570312 13.742188 L 40.445312 14.976562 L 40.320312 16.214844 L 40.3125 16.277344 L 25 16.277344 Z M 25 10.03125 "/>
<path style=" stroke:none;fill-rule:evenodd;fill:rgb(100%,100%,99.607843%);fill-opacity:1;" d="M 25 22.808594 L 39.769531 22.808594 L 39.230469 28.984375 L 25 28.949219 Z M 25 22.808594 "/>
<path style=" stroke:none;fill-rule:evenodd;fill:rgb(100%,100%,99.607843%);fill-opacity:1;" d="M 25 39.132812 L 32.207031 37.125 L 32.699219 28.867188 L 39.25 28.765625 L 38.074219 42.179688 L 25 45.96875 Z M 25 39.132812 "/>
</g>
</svg>
