<svg
  width="106"
  height="24"
  viewBox="0 0 106 24"
  fill="none"
  xmlns="http://www.w3.org/2000/svg"
>
  <path
    d="M32.669 23.5048V0.459797H33.919V4.0848C34.0666 3.92406 34.2029 3.75332 34.327 3.5738C35.371 1.4078 37.573 0.0407964 39.977 0.0677964C42.827 -0.0172036 45.143 1.0378 46.504 3.5738C47.3701 5.14927 47.8467 6.90908 47.894 8.70628C47.9413 10.5035 47.558 12.2859 46.776 13.9048C45.508 16.7468 42.376 18.1598 39.023 17.6408C37.9795 17.5521 36.9749 17.2034 36.1008 16.6266C35.2267 16.0498 34.511 15.2633 34.019 14.3388V23.5038L32.669 23.5048ZM33.919 8.6118L34.199 11.3178C34.693 14.3978 36.514 16.2178 39.373 16.5598C40.7156 16.7805 42.0932 16.5288 43.271 15.8476C44.4488 15.1663 45.3539 14.0977 45.832 12.8238C46.944 10.1738 46.862 7.1738 45.612 4.5858C45.1017 3.44388 44.2337 2.49907 43.1389 1.89416C42.0442 1.28925 40.7823 1.0571 39.544 1.2328C38.3816 1.31736 37.2745 1.76183 36.3763 2.50446C35.4781 3.2471 34.8335 4.25103 34.532 5.3768C34.2658 6.44214 34.0611 7.52193 33.919 8.6108V8.6118ZM73.417 11.7438C73.2274 13.3664 72.455 14.8649 71.2434 15.9606C70.0318 17.0564 68.4634 17.6748 66.83 17.7008C61.588 17.9648 59.128 14.4838 58.737 10.4668C58.4651 8.28536 58.8192 6.07158 59.758 4.0838C60.4114 2.72019 61.4819 1.59999 62.8146 0.885503C64.1472 0.171012 65.6726 -0.100676 67.17 0.109796C68.5935 0.23079 69.9429 0.796387 71.0272 1.72654C72.1115 2.6567 72.8758 3.9043 73.212 5.2928C73.4783 6.55763 73.6743 7.83626 73.799 9.1228H60.032C59.777 12.7648 61.734 15.6928 64.508 16.3988C67.963 17.2488 70.916 15.7518 71.988 12.4668C72.226 11.6238 72.66 11.5048 73.426 11.7438H73.417ZM60.022 7.9568H72.336C72.259 4.0768 69.843 1.2568 66.566 1.2248C62.866 1.1648 60.183 3.8718 60.022 7.9568V7.9568ZM75.962 11.8288H77.169C77.2133 12.718 77.5021 13.5778 78.0035 14.3135C78.5049 15.0492 79.1996 15.6324 80.011 15.9988C81.0299 16.4573 82.139 16.6802 83.2559 16.6507C84.3728 16.6213 85.4687 16.3403 86.462 15.8288C87.0035 15.585 87.457 15.1809 87.7614 14.671C88.0658 14.1611 88.2063 13.5701 88.164 12.9778C88.1952 12.4066 88.0392 11.8408 87.7198 11.3661C87.4004 10.8915 86.9349 10.534 86.394 10.3478C85.066 9.8538 83.654 9.5818 82.301 9.1478C80.8931 8.74696 79.5164 8.24362 78.182 7.6418C76.002 6.5778 75.867 2.4338 78.335 1.1218C79.5987 0.408707 81.0209 0.0234052 82.4717 0.00104684C83.9226 -0.0213115 85.3559 0.319985 86.641 0.993797C88.235 1.8738 89.116 3.6508 88.854 5.4538H87.819C87.819 5.4038 87.725 5.3598 87.725 5.3088C87.597 2.0088 84.823 0.976796 81.845 1.2668C80.945 1.3668 80.092 1.6388 79.292 2.0408C78.8111 2.26042 78.4103 2.62408 78.1452 3.08146C77.88 3.53885 77.7636 4.06733 77.812 4.5938C77.813 5.12065 77.9772 5.63426 78.282 6.06402C78.5867 6.49378 79.0171 6.81859 79.514 6.9938C80.814 7.4708 82.194 7.7768 83.539 8.1508L86.789 9.0008C87.5277 9.24326 88.1754 9.70424 88.6464 10.3228C89.1175 10.9413 89.3897 11.6882 89.427 12.4648C89.687 14.2098 88.797 15.9248 87.223 16.7198C84.381 18.3278 79.7 17.9028 77.615 15.8698C76.548 14.7968 75.953 13.3398 75.965 11.8278L75.962 11.8288ZM104.742 5.4548H103.61C103.61 5.3018 103.55 5.1548 103.533 5.0378C103.515 4.18927 103.206 3.37275 102.657 2.72514C102.109 2.07752 101.354 1.63819 100.52 1.4808C98.9468 1.02957 97.2686 1.11042 95.746 1.7108C95.144 1.88309 94.6139 2.24563 94.235 2.74421C93.8561 3.24278 93.6488 3.85061 93.644 4.4768C93.6225 5.09165 93.8139 5.69509 94.186 6.18506C94.5581 6.67503 95.0879 7.02147 95.686 7.1658L100.86 8.4938C101.42 8.62799 101.971 8.79562 102.51 8.9958C104.16 9.5958 105.28 11.1278 105.33 12.8788C105.355 13.7359 105.12 14.5804 104.656 15.3014C104.192 16.0225 103.52 16.5863 102.73 16.9188C101.529 17.4643 100.228 17.7529 98.9086 17.7662C97.5897 17.7794 96.2826 17.517 95.071 16.9958C94.0746 16.5661 93.2337 15.8415 92.6616 14.9195C92.0895 13.9975 91.8136 12.9224 91.871 11.8388H92.977C93.393 13.8438 94.77 15.5138 96.659 16.3038C98.548 17.0938 100.705 16.8998 102.423 15.7878C102.938 15.5197 103.366 15.1096 103.656 14.6059C103.945 14.1022 104.085 13.5261 104.057 12.9458C104.083 12.3742 103.921 11.8098 103.597 11.3382C103.273 10.8667 102.804 10.5137 102.261 10.3328C100.933 9.8388 99.521 9.5758 98.168 9.1328C96.7522 8.73813 95.3672 8.24047 94.024 7.6438C91.896 6.5968 91.726 2.4868 94.152 1.1758C95.4313 0.432779 96.8813 0.0336116 98.3606 0.0171391C99.84 0.00066668 101.298 0.367451 102.594 1.0818C103.335 1.52405 103.931 2.17224 104.311 2.94741C104.69 3.72259 104.836 4.59131 104.73 5.4478L104.742 5.4548ZM30.612 17.2848C30.1664 17.4533 29.6746 17.4528 29.2293 17.2835C28.784 17.1142 28.4161 16.7878 28.195 16.3658L23.795 10.2808L23.157 9.4308L18.051 16.3748C17.8429 16.7786 17.4949 17.0929 17.072 17.2589C16.6491 17.4249 16.1802 17.4312 15.753 17.2768L22.331 8.4518L16.211 0.477796C17.119 0.149796 18.131 0.505797 18.636 1.3278L23.196 7.4878L27.783 1.3518C27.9927 0.954881 28.3409 0.648869 28.7615 0.491962C29.182 0.335055 29.6456 0.3382 30.064 0.500797L27.689 3.6518L24.472 7.8388C24.3827 7.91853 24.3113 8.01622 24.2624 8.12548C24.2135 8.23474 24.1882 8.35309 24.1882 8.4728C24.1882 8.5925 24.2135 8.71086 24.2624 8.82011C24.3113 8.92937 24.3827 9.02706 24.472 9.1068L30.599 17.2848H30.612ZM58.542 0.392797V1.5928C57.6813 1.53634 56.8183 1.66099 56.0087 1.95869C55.1991 2.25639 54.461 2.72054 53.8419 3.32116C53.2228 3.92179 52.7365 4.64555 52.4144 5.44574C52.0923 6.24593 51.9416 7.10476 51.972 7.9668C51.972 10.7695 51.972 13.5721 51.972 16.3748V17.3278H50.755V0.467796H51.955V3.9228C53.427 1.4028 55.699 0.467797 58.55 0.399797L58.542 0.392797ZM0.00200033 8.3418L0.538 5.6948C2.01 0.460797 8.01 -1.7172 12.138 1.5248C14.555 3.4228 15.158 6.1118 15.04 9.1418H1.423C1.203 14.5538 5.108 17.8218 10.103 16.1538C11.749 15.5538 12.988 14.1858 13.396 12.4858C13.66 11.6358 14.096 11.4898 14.894 11.7358C14.7609 12.7719 14.3946 13.7644 13.8227 14.6386C13.2508 15.5127 12.4881 16.2459 11.592 16.7828C10.1116 17.5924 8.41302 17.9132 6.73926 17.6993C5.0655 17.4854 3.50224 16.7477 2.273 15.5918C1.057 14.2248 0.323 12.4968 0.18 10.6718C0.18 10.3718 0.0800002 10.0918 0.0100002 9.8218C0.00333356 9.31713 0 8.8238 0 8.3418H0.00200033ZM1.44 7.9758H13.754C13.677 4.0528 11.201 1.2698 7.899 1.2438C4.223 1.1938 1.593 3.9158 1.431 7.9588L1.44 7.9758Z"
    fill="white"
  />
</svg>
