<?xml version="1.0" encoding="UTF-8"?>
<svg xmlns="http://www.w3.org/2000/svg" xmlns:xlink="http://www.w3.org/1999/xlink" width="48pt" height="11pt" viewBox="0 0 48 11" version="1.1">
<g id="surface1">
<path style=" stroke:none;fill-rule:nonzero;fill:rgb(100%,100%,100%);fill-opacity:1;" d="M 14.792969 10.773438 L 14.792969 0.210938 L 15.359375 0.210938 L 15.359375 1.871094 C 15.425781 1.796875 15.488281 1.71875 15.542969 1.636719 C 16.015625 0.644531 17.015625 0.0195312 18.101562 0.03125 C 19.394531 -0.0078125 20.441406 0.476562 21.058594 1.636719 C 21.449219 2.359375 21.667969 3.167969 21.6875 3.992188 C 21.710938 4.8125 21.535156 5.632812 21.179688 6.371094 C 20.605469 7.675781 19.1875 8.324219 17.671875 8.085938 C 17.199219 8.042969 16.742188 7.886719 16.347656 7.621094 C 15.953125 7.355469 15.628906 6.996094 15.40625 6.570312 L 15.40625 10.773438 Z M 15.359375 3.945312 L 15.488281 5.1875 C 15.710938 6.597656 16.535156 7.433594 17.828125 7.589844 C 18.4375 7.691406 19.0625 7.574219 19.59375 7.261719 C 20.128906 6.953125 20.539062 6.460938 20.753906 5.878906 C 21.257812 4.664062 21.21875 3.289062 20.65625 2.101562 C 20.421875 1.578125 20.03125 1.144531 19.535156 0.867188 C 19.039062 0.589844 18.46875 0.484375 17.90625 0.566406 C 17.378906 0.605469 16.878906 0.808594 16.472656 1.148438 C 16.066406 1.488281 15.773438 1.949219 15.636719 2.464844 C 15.515625 2.953125 15.425781 3.449219 15.359375 3.945312 Z M 33.246094 5.382812 C 33.160156 6.125 32.808594 6.8125 32.261719 7.316406 C 31.710938 7.816406 31.003906 8.101562 30.261719 8.113281 C 27.890625 8.234375 26.773438 6.636719 26.597656 4.796875 C 26.476562 3.796875 26.636719 2.78125 27.058594 1.871094 C 27.355469 1.246094 27.839844 0.734375 28.445312 0.40625 C 29.046875 0.078125 29.738281 -0.046875 30.417969 0.0507812 C 31.0625 0.105469 31.671875 0.363281 32.164062 0.792969 C 32.652344 1.21875 33 1.789062 33.152344 2.425781 C 33.273438 3.003906 33.363281 3.589844 33.417969 4.179688 L 27.183594 4.179688 C 27.070312 5.851562 27.953125 7.191406 29.210938 7.515625 C 30.777344 7.90625 32.113281 7.21875 32.597656 5.714844 C 32.707031 5.328125 32.902344 5.273438 33.25 5.382812 Z M 27.179688 3.648438 L 32.757812 3.648438 C 32.722656 1.867188 31.628906 0.574219 30.144531 0.5625 C 28.46875 0.535156 27.253906 1.773438 27.179688 3.648438 Z M 34.398438 5.421875 L 34.945312 5.421875 C 34.964844 5.828125 35.09375 6.222656 35.324219 6.558594 C 35.550781 6.898438 35.863281 7.164062 36.230469 7.332031 C 36.691406 7.542969 37.195312 7.644531 37.699219 7.632812 C 38.207031 7.617188 38.703125 7.488281 39.152344 7.253906 C 39.398438 7.144531 39.601562 6.957031 39.742188 6.722656 C 39.878906 6.492188 39.941406 6.21875 39.921875 5.949219 C 39.9375 5.6875 39.867188 5.425781 39.722656 5.210938 C 39.578125 4.992188 39.367188 4.828125 39.121094 4.742188 C 38.519531 4.515625 37.882812 4.390625 37.269531 4.191406 C 36.628906 4.007812 36.007812 3.777344 35.402344 3.503906 C 34.414062 3.015625 34.355469 1.117188 35.472656 0.515625 C 36.042969 0.1875 36.6875 0.0117188 37.34375 0 C 38.003906 -0.0117188 38.652344 0.148438 39.234375 0.457031 C 39.957031 0.859375 40.355469 1.671875 40.234375 2.5 L 39.765625 2.5 C 39.765625 2.476562 39.722656 2.457031 39.722656 2.433594 C 39.667969 0.921875 38.410156 0.449219 37.0625 0.582031 C 36.65625 0.625 36.269531 0.75 35.90625 0.933594 C 35.6875 1.035156 35.507812 1.203125 35.386719 1.414062 C 35.265625 1.621094 35.214844 1.863281 35.234375 2.105469 C 35.234375 2.347656 35.308594 2.582031 35.449219 2.78125 C 35.585938 2.976562 35.78125 3.125 36.007812 3.207031 C 36.59375 3.425781 37.21875 3.5625 37.828125 3.734375 L 39.300781 4.125 C 39.636719 4.238281 39.929688 4.449219 40.140625 4.730469 C 40.355469 5.015625 40.476562 5.355469 40.496094 5.714844 C 40.613281 6.511719 40.210938 7.300781 39.496094 7.664062 C 38.210938 8.398438 36.089844 8.207031 35.144531 7.273438 C 34.664062 6.78125 34.394531 6.113281 34.398438 5.421875 Z M 47.429688 2.5 L 46.917969 2.5 C 46.917969 2.429688 46.890625 2.363281 46.882812 2.308594 C 46.875 1.921875 46.734375 1.546875 46.484375 1.25 C 46.238281 0.953125 45.894531 0.75 45.519531 0.679688 C 44.804688 0.472656 44.046875 0.507812 43.355469 0.785156 C 43.085938 0.863281 42.84375 1.027344 42.671875 1.257812 C 42.5 1.484375 42.40625 1.765625 42.40625 2.050781 C 42.394531 2.332031 42.480469 2.609375 42.648438 2.835938 C 42.820312 3.058594 43.058594 3.21875 43.328125 3.285156 L 45.671875 3.894531 C 45.925781 3.953125 46.175781 4.03125 46.417969 4.125 C 47.167969 4.398438 47.675781 5.101562 47.695312 5.902344 C 47.707031 6.296875 47.601562 6.683594 47.390625 7.011719 C 47.179688 7.34375 46.878906 7.601562 46.519531 7.753906 C 45.976562 8.003906 45.386719 8.136719 44.789062 8.144531 C 44.191406 8.148438 43.601562 8.027344 43.050781 7.789062 C 42.601562 7.59375 42.21875 7.261719 41.960938 6.839844 C 41.699219 6.414062 41.574219 5.921875 41.601562 5.425781 L 42.101562 5.425781 C 42.292969 6.34375 42.914062 7.109375 43.769531 7.472656 C 44.625 7.835938 45.601562 7.746094 46.378906 7.234375 C 46.613281 7.113281 46.808594 6.925781 46.9375 6.695312 C 47.070312 6.464844 47.132812 6.199219 47.121094 5.933594 C 47.132812 5.671875 47.058594 5.414062 46.910156 5.195312 C 46.765625 4.980469 46.554688 4.820312 46.308594 4.734375 C 45.707031 4.507812 45.066406 4.390625 44.453125 4.1875 C 43.8125 4.003906 43.183594 3.777344 42.578125 3.503906 C 41.613281 3.023438 41.535156 1.140625 42.636719 0.539062 C 43.214844 0.199219 43.871094 0.015625 44.539062 0.0078125 C 45.210938 0 45.871094 0.167969 46.457031 0.496094 C 46.792969 0.699219 47.0625 0.996094 47.234375 1.351562 C 47.40625 1.707031 47.472656 2.105469 47.425781 2.496094 Z M 13.863281 7.921875 C 13.660156 8 13.4375 8 13.234375 7.921875 C 13.035156 7.84375 12.867188 7.695312 12.765625 7.5 L 10.773438 4.710938 L 10.484375 4.324219 L 8.175781 7.503906 C 8.078125 7.691406 7.921875 7.835938 7.730469 7.910156 C 7.539062 7.988281 7.328125 7.988281 7.132812 7.917969 L 10.113281 3.875 L 7.339844 0.21875 C 7.753906 0.0703125 8.210938 0.230469 8.4375 0.609375 L 10.503906 3.433594 L 12.582031 0.621094 C 12.675781 0.4375 12.832031 0.296875 13.023438 0.226562 C 13.214844 0.152344 13.425781 0.15625 13.613281 0.230469 L 12.539062 1.671875 L 11.082031 3.59375 C 11.042969 3.628906 11.007812 3.675781 10.988281 3.722656 C 10.964844 3.773438 10.953125 3.828125 10.953125 3.882812 C 10.953125 3.9375 10.964844 3.992188 10.988281 4.042969 C 11.007812 4.09375 11.042969 4.136719 11.082031 4.175781 L 13.855469 7.921875 Z M 26.507812 0.179688 L 26.507812 0.730469 C 26.121094 0.703125 25.730469 0.761719 25.363281 0.898438 C 24.996094 1.035156 24.660156 1.246094 24.382812 1.523438 C 24.101562 1.796875 23.878906 2.128906 23.734375 2.496094 C 23.589844 2.863281 23.519531 3.257812 23.535156 3.652344 C 23.535156 4.9375 23.535156 6.21875 23.535156 7.503906 L 23.535156 7.941406 L 22.984375 7.941406 L 22.984375 0.214844 L 23.527344 0.214844 L 23.527344 1.796875 C 24.191406 0.644531 25.222656 0.214844 26.511719 0.183594 Z M 0 3.824219 L 0.242188 2.609375 C 0.910156 0.210938 3.628906 -0.785156 5.496094 0.699219 C 6.589844 1.570312 6.863281 2.800781 6.8125 4.191406 L 0.644531 4.191406 C 0.542969 6.671875 2.3125 8.167969 4.574219 7.402344 C 5.320312 7.128906 5.882812 6.5 6.066406 5.722656 C 6.1875 5.332031 6.382812 5.265625 6.746094 5.378906 C 6.683594 5.855469 6.519531 6.308594 6.257812 6.710938 C 6 7.109375 5.65625 7.445312 5.25 7.691406 C 4.578125 8.0625 3.808594 8.210938 3.050781 8.113281 C 2.292969 8.015625 1.585938 7.675781 1.027344 7.144531 C 0.480469 6.519531 0.144531 5.726562 0.0820312 4.890625 C 0.0820312 4.753906 0.0351562 4.625 0.00390625 4.5 C 0 4.269531 0 4.042969 0 3.824219 Z M 0.652344 3.65625 L 6.226562 3.65625 C 6.191406 1.859375 5.070312 0.582031 3.578125 0.570312 C 1.914062 0.546875 0.722656 1.792969 0.648438 3.648438 Z M 0.652344 3.65625 "/>
</g>
</svg>
