<?xml version="1.0" encoding="UTF-8"?>
<svg xmlns="http://www.w3.org/2000/svg" xmlns:xlink="http://www.w3.org/1999/xlink" width="50pt" height="50pt" viewBox="0 0 50 50" version="1.1">
<g id="surface1">
<path style=" stroke:none;fill-rule:nonzero;fill:rgb(9.019608%,8.235294%,8.235294%);fill-opacity:1;" d="M 25 1.042969 C 11.1875 1.042969 0 12.042969 0 25.609375 C 0 36.464844 7.164062 45.671875 17.09375 48.917969 C 18.34375 49.148438 18.800781 48.386719 18.800781 47.734375 C 18.800781 47.152344 18.78125 45.605469 18.769531 43.558594 C 11.816406 45.039062 10.351562 40.261719 10.351562 40.261719 C 9.210938 37.425781 7.570312 36.667969 7.570312 36.667969 C 5.304688 35.144531 7.742188 35.175781 7.742188 35.175781 C 10.253906 35.347656 11.574219 37.707031 11.574219 37.707031 C 13.800781 41.464844 17.425781 40.378906 18.855469 39.753906 C 19.078125 38.164062 19.722656 37.082031 20.4375 36.464844 C 14.886719 35.851562 9.050781 33.738281 9.050781 24.328125 C 9.050781 21.644531 10.019531 19.453125 11.621094 17.734375 C 11.339844 17.113281 10.496094 14.617188 11.839844 11.234375 C 11.839844 11.234375 13.933594 10.574219 18.714844 13.753906 C 20.714844 13.207031 22.839844 12.933594 24.964844 12.921875 C 27.089844 12.933594 29.214844 13.207031 31.214844 13.753906 C 35.964844 10.574219 38.058594 11.234375 38.058594 11.234375 C 39.402344 14.617188 38.558594 17.113281 38.308594 17.734375 C 39.902344 19.453125 40.871094 21.644531 40.871094 24.328125 C 40.871094 33.765625 35.027344 35.839844 29.464844 36.445312 C 30.339844 37.183594 31.152344 38.691406 31.152344 40.992188 C 31.152344 44.277344 31.121094 46.921875 31.121094 47.71875 C 31.121094 48.363281 31.558594 49.132812 32.839844 48.886719 C 42.84375 45.660156 50 36.449219 50 25.609375 C 50 12.042969 38.804688 1.042969 25 1.042969 Z M 25 1.042969 "/>
</g>
</svg>
