<?xml version="1.0" encoding="UTF-8"?>
<svg xmlns="http://www.w3.org/2000/svg" xmlns:xlink="http://www.w3.org/1999/xlink" width="50pt" height="50pt" viewBox="0 0 50 50" version="1.1">
<g id="surface1">
<path style=" stroke:none;fill-rule:nonzero;fill:rgb(89.019608%,30.980392%,14.901961%);fill-opacity:1;" d="M 6.933594 44.921875 L 2.929688 0 L 46.972656 0 L 42.96875 44.921875 L 24.902344 50 "/>
<path style=" stroke:none;fill-rule:nonzero;fill:rgb(93.72549%,39.607843%,16.470588%);fill-opacity:1;" d="M 25 46.09375 L 39.550781 42.089844 L 42.96875 3.613281 L 25 3.613281 "/>
<path style=" stroke:none;fill-rule:nonzero;fill:rgb(92.156863%,92.156863%,92.156863%);fill-opacity:1;" d="M 25 20.3125 L 17.675781 20.3125 L 17.1875 14.648438 L 25 14.648438 L 25 9.179688 L 11.132812 9.179688 L 11.230469 10.644531 L 12.597656 25.878906 L 25 25.878906 Z M 25 34.667969 L 24.902344 34.667969 L 18.75 33.007812 L 18.359375 28.613281 L 12.890625 28.613281 L 13.574219 37.304688 L 24.902344 40.429688 L 25 40.429688 Z M 25 34.667969 "/>
<path style=" stroke:none;fill-rule:nonzero;fill:rgb(100%,100%,100%);fill-opacity:1;" d="M 24.902344 20.3125 L 24.902344 25.878906 L 31.738281 25.878906 L 31.054688 33.007812 L 24.902344 34.667969 L 24.902344 40.429688 L 36.230469 37.304688 L 36.328125 36.328125 L 37.597656 21.777344 L 37.792969 20.3125 Z M 24.902344 9.179688 L 24.902344 14.648438 L 38.28125 14.648438 L 38.378906 13.476562 L 38.671875 10.644531 L 38.769531 9.179688 Z M 24.902344 9.179688 "/>
</g>
</svg>
