<?xml version="1.0" encoding="UTF-8"?>
<svg xmlns="http://www.w3.org/2000/svg" xmlns:xlink="http://www.w3.org/1999/xlink" width="50pt" height="50pt" viewBox="0 0 50 50" version="1.1">
<g id="surface1">
<rect x="0" y="0" width="50" height="50" style="fill:rgb(96.862745%,87.45098%,11.764706%);fill-opacity:1;stroke:none;"/>
<path style=" stroke:none;fill-rule:nonzero;fill:rgb(0%,0%,0%);fill-opacity:1;" d="M 13.148438 41.785156 L 16.972656 39.46875 C 17.710938 40.777344 18.382812 41.882812 19.992188 41.882812 C 21.539062 41.882812 22.511719 41.28125 22.511719 38.929688 L 22.511719 22.953125 L 27.210938 22.953125 L 27.210938 38.996094 C 27.210938 43.863281 24.355469 46.078125 20.195312 46.078125 C 16.4375 46.078125 14.253906 44.132812 13.148438 41.785156 "/>
<path style=" stroke:none;fill-rule:nonzero;fill:rgb(0%,0%,0%);fill-opacity:1;" d="M 29.761719 41.28125 L 33.585938 39.066406 C 34.59375 40.710938 35.902344 41.917969 38.21875 41.917969 C 40.167969 41.917969 41.40625 40.945312 41.40625 39.601562 C 41.40625 37.992188 40.132812 37.421875 37.984375 36.480469 L 36.808594 35.976562 C 33.421875 34.535156 31.171875 32.722656 31.171875 28.894531 C 31.171875 25.371094 33.855469 22.6875 38.050781 22.6875 C 41.039062 22.6875 43.1875 23.726562 44.730469 26.445312 L 41.074219 28.792969 C 40.265625 27.351562 39.394531 26.78125 38.050781 26.78125 C 36.675781 26.78125 35.804688 27.652344 35.804688 28.792969 C 35.804688 30.203125 36.675781 30.773438 38.6875 31.648438 L 39.863281 32.152344 C 43.859375 33.863281 46.105469 35.609375 46.105469 39.535156 C 46.105469 43.765625 42.785156 46.078125 38.320312 46.078125 C 33.957031 46.078125 31.136719 44 29.761719 41.28125 "/>
</g>
</svg>
