<?xml version="1.0" encoding="UTF-8"?>
<svg xmlns="http://www.w3.org/2000/svg" xmlns:xlink="http://www.w3.org/1999/xlink" width="50pt" height="50pt" viewBox="0 0 50 50" version="1.1">
<g id="surface1">
<path style=" stroke:none;fill-rule:nonzero;fill:rgb(100%,100%,100%);fill-opacity:1;" d="M 49.988281 50 L 49.988281 49.996094 L 50 49.996094 L 50 31.660156 C 50 22.691406 48.070312 15.777344 37.582031 15.777344 C 32.539062 15.777344 29.15625 18.546875 27.773438 21.167969 L 27.628906 21.167969 L 27.628906 16.617188 L 17.683594 16.617188 L 17.683594 49.996094 L 28.039062 49.996094 L 28.039062 33.46875 C 28.039062 29.117188 28.863281 24.910156 34.253906 24.910156 C 39.566406 24.910156 39.644531 29.875 39.644531 33.746094 L 39.644531 50 Z M 49.988281 50 "/>
<path style=" stroke:none;fill-rule:nonzero;fill:rgb(100%,100%,100%);fill-opacity:1;" d="M 0.824219 16.617188 L 11.191406 16.617188 L 11.191406 50 L 0.824219 50 Z M 0.824219 16.617188 "/>
<path style=" stroke:none;fill-rule:nonzero;fill:rgb(100%,100%,100%);fill-opacity:1;" d="M 6.003906 0 C 2.691406 0 0 2.691406 0 6.003906 C 0 9.320312 2.691406 12.066406 6.003906 12.066406 C 9.320312 12.066406 12.007812 9.320312 12.007812 6.003906 C 12.007812 2.691406 9.316406 0 6.003906 0 Z M 6.003906 0 "/>
</g>
</svg>
