<?xml version="1.0" encoding="UTF-8"?>
<svg xmlns="http://www.w3.org/2000/svg" xmlns:xlink="http://www.w3.org/1999/xlink" width="48pt" height="13pt" viewBox="0 0 48 13" version="1.1">
<g id="surface1">
<path style=" stroke:none;fill-rule:nonzero;fill:rgb(6.27451%,66.666667%,31.372549%);fill-opacity:1;" d="M 5.804688 5.214844 C 5.144531 2.289062 3.769531 1.507812 3.417969 0.957031 C 3.273438 0.714844 3.144531 0.464844 3.035156 0.203125 C 3.015625 0.464844 2.984375 0.628906 2.761719 0.824219 C 2.320312 1.21875 0.445312 2.753906 0.289062 6.082031 C 0.140625 9.179688 2.554688 11.09375 2.875 11.289062 C 3.121094 11.414062 3.417969 11.292969 3.566406 11.183594 C 4.730469 10.378906 6.320312 8.238281 5.808594 5.214844 "/>
<path style=" stroke:none;fill-rule:nonzero;fill:rgb(72.156863%,76.862745%,76.078431%);fill-opacity:1;" d="M 3.136719 9.640625 C 3.074219 10.40625 3.03125 10.851562 2.875 11.292969 C 2.875 11.292969 2.976562 12.023438 3.050781 12.796875 L 3.300781 12.796875 C 3.359375 12.25 3.453125 11.710938 3.574219 11.175781 C 3.25 11.015625 3.148438 10.3125 3.136719 9.640625 Z M 3.136719 9.640625 "/>
<path style=" stroke:none;fill-rule:nonzero;fill:rgb(7.058824%,57.254902%,30.980392%);fill-opacity:1;" d="M 3.574219 11.175781 C 3.246094 11.023438 3.148438 10.308594 3.136719 9.640625 C 3.21875 8.539062 3.242188 7.433594 3.207031 6.332031 C 3.1875 5.753906 3.214844 0.96875 3.066406 0.269531 C 3.167969 0.507812 3.285156 0.734375 3.417969 0.957031 C 3.769531 1.507812 5.148438 2.289062 5.804688 5.214844 C 6.320312 8.234375 4.738281 10.367188 3.574219 11.175781 Z M 3.574219 11.175781 "/>
<path style=" stroke:none;fill-rule:nonzero;fill:rgb(100%,100%,100%);fill-opacity:1;" d="M 47.003906 10.117188 C 46.609375 10.117188 46.289062 9.796875 46.289062 9.402344 C 46.285156 9.007812 46.601562 8.683594 46.996094 8.679688 C 47.390625 8.675781 47.714844 8.992188 47.71875 9.390625 C 47.722656 9.582031 47.652344 9.769531 47.515625 9.90625 C 47.378906 10.042969 47.195312 10.121094 47.003906 10.117188 M 47.003906 8.746094 C 46.738281 8.742188 46.5 8.902344 46.398438 9.144531 C 46.296875 9.390625 46.351562 9.671875 46.535156 9.859375 C 46.722656 10.046875 47.003906 10.105469 47.246094 10.003906 C 47.488281 9.90625 47.648438 9.667969 47.652344 9.402344 C 47.652344 9.226562 47.585938 9.058594 47.464844 8.9375 C 47.34375 8.8125 47.175781 8.742188 47.003906 8.746094 M 47.175781 9.855469 L 46.992188 9.453125 L 46.84375 9.453125 L 46.84375 9.855469 L 46.734375 9.855469 L 46.734375 8.945312 L 47 8.945312 C 47.199219 8.945312 47.28125 9.03125 47.28125 9.199219 C 47.28125 9.332031 47.21875 9.414062 47.105469 9.441406 L 47.292969 9.851562 Z M 46.847656 9.359375 L 47.003906 9.359375 C 47.128906 9.359375 47.179688 9.316406 47.179688 9.199219 C 47.179688 9.085938 47.132812 9.046875 46.988281 9.046875 L 46.847656 9.046875 Z M 46.847656 9.359375 "/>
<path style=" stroke:none;fill-rule:nonzero;fill:rgb(100%,100%,100%);fill-opacity:1;" d="M 36.355469 9.464844 C 36.546875 9.617188 36.9375 9.683594 37.277344 9.683594 C 37.71875 9.683594 38.152344 9.601562 38.574219 9.214844 C 39.007812 8.820312 39.304688 8.21875 39.304688 7.257812 C 39.304688 6.332031 38.953125 5.582031 38.234375 5.140625 C 37.828125 4.886719 37.304688 4.785156 36.707031 4.785156 C 36.53125 4.785156 36.355469 4.792969 36.253906 4.839844 C 36.210938 4.875 36.183594 4.917969 36.171875 4.96875 C 36.152344 5.136719 36.152344 6.390625 36.152344 7.128906 C 36.152344 7.890625 36.152344 8.949219 36.171875 9.082031 C 36.179688 9.191406 36.234375 9.382812 36.355469 9.464844 M 34.515625 4.375 C 34.671875 4.375 35.269531 4.402344 35.542969 4.402344 C 36.0625 4.402344 36.417969 4.375 37.386719 4.375 C 38.199219 4.375 38.878906 4.59375 39.367188 5.015625 C 39.957031 5.527344 40.273438 6.242188 40.273438 7.109375 C 40.273438 8.347656 39.714844 9.0625 39.148438 9.464844 C 38.589844 9.882812 37.859375 10.121094 36.820312 10.121094 C 36.269531 10.121094 35.320312 10.105469 34.527344 10.09375 L 34.507812 10.09375 C 34.472656 10.023438 34.578125 9.734375 34.640625 9.730469 C 34.859375 9.703125 34.914062 9.695312 35.015625 9.65625 C 35.179688 9.585938 35.21875 9.5 35.238281 9.199219 C 35.265625 8.628906 35.257812 7.953125 35.257812 7.183594 C 35.257812 6.636719 35.265625 5.5625 35.25 5.226562 C 35.21875 4.941406 35.101562 4.867188 34.859375 4.8125 C 34.6875 4.777344 34.515625 4.75 34.34375 4.730469 C 34.324219 4.675781 34.464844 4.425781 34.511719 4.375 "/>
<path style=" stroke:none;fill-rule:nonzero;fill:rgb(100%,100%,100%);fill-opacity:1;" d="M 42.558594 4.839844 C 42.519531 4.847656 42.472656 4.9375 42.472656 4.984375 C 42.464844 5.3125 42.457031 6.175781 42.457031 6.769531 C 42.460938 6.792969 42.480469 6.8125 42.503906 6.816406 C 42.621094 6.824219 42.917969 6.835938 43.164062 6.835938 C 43.515625 6.835938 43.71875 6.789062 43.828125 6.734375 C 44.125 6.585938 44.261719 6.265625 44.261719 5.917969 C 44.261719 5.121094 43.707031 4.820312 42.886719 4.820312 C 42.777344 4.820312 42.664062 4.824219 42.554688 4.839844 M 44.648438 8.5 C 44.648438 7.695312 44.058594 7.238281 42.980469 7.238281 C 42.933594 7.238281 42.589844 7.226562 42.507812 7.246094 C 42.480469 7.253906 42.453125 7.273438 42.453125 7.292969 C 42.453125 7.867188 42.445312 8.792969 42.472656 9.160156 C 42.492188 9.316406 42.601562 9.535156 42.738281 9.597656 C 42.886719 9.679688 43.21875 9.699219 43.449219 9.699219 C 44.085938 9.699219 44.648438 9.34375 44.648438 8.5 M 40.890625 4.390625 C 40.976562 4.390625 41.21875 4.417969 41.847656 4.417969 C 42.4375 4.417969 42.914062 4.398438 43.484375 4.398438 C 44.195312 4.398438 45.171875 4.65625 45.171875 5.71875 C 45.171875 6.238281 44.804688 6.660156 44.324219 6.863281 C 44.296875 6.871094 44.296875 6.890625 44.324219 6.898438 C 45.007812 7.070312 45.605469 7.492188 45.605469 8.296875 C 45.605469 9.085938 45.117188 9.582031 44.40625 9.890625 C 43.976562 10.082031 43.441406 10.148438 42.898438 10.148438 C 42.484375 10.148438 41.371094 10.105469 40.753906 10.109375 C 40.691406 10.082031 40.8125 9.789062 40.871094 9.746094 C 41.011719 9.742188 41.152344 9.71875 41.289062 9.679688 C 41.507812 9.625 41.535156 9.554688 41.5625 9.222656 C 41.582031 8.9375 41.582031 7.921875 41.582031 7.199219 C 41.582031 6.210938 41.589844 5.542969 41.582031 5.214844 C 41.570312 4.957031 41.480469 4.875 41.304688 4.828125 C 41.164062 4.800781 40.9375 4.773438 40.75 4.746094 C 40.707031 4.699219 40.847656 4.425781 40.894531 4.390625 "/>
<path style=" stroke:none;fill-rule:nonzero;fill:rgb(100%,100%,100%);fill-opacity:1;" d="M 7.847656 10.117188 C 7.824219 10.058594 7.8125 9.996094 7.820312 9.933594 C 7.816406 9.890625 7.828125 9.847656 7.847656 9.808594 C 7.964844 9.792969 8.082031 9.769531 8.199219 9.738281 C 8.363281 9.695312 8.425781 9.609375 8.433594 9.398438 C 8.460938 8.90625 8.460938 7.980469 8.453125 7.328125 L 8.453125 7.308594 C 8.453125 7.238281 8.453125 7.144531 8.367188 7.078125 C 8.214844 6.980469 8.050781 6.90625 7.878906 6.859375 C 7.800781 6.835938 7.757812 6.796875 7.761719 6.75 C 7.761719 6.699219 7.8125 6.644531 7.910156 6.625 C 8.179688 6.597656 8.878906 6.429688 9.152344 6.300781 C 9.179688 6.339844 9.195312 6.386719 9.191406 6.433594 C 9.191406 6.460938 9.183594 6.492188 9.183594 6.523438 C 9.175781 6.613281 9.164062 6.71875 9.164062 6.824219 C 9.167969 6.847656 9.1875 6.871094 9.210938 6.878906 C 9.234375 6.886719 9.261719 6.878906 9.28125 6.863281 C 9.804688 6.449219 10.273438 6.304688 10.511719 6.304688 C 10.910156 6.304688 11.21875 6.492188 11.457031 6.882812 C 11.464844 6.902344 11.488281 6.914062 11.507812 6.914062 C 11.527344 6.914062 11.546875 6.90625 11.558594 6.886719 C 12.039062 6.523438 12.515625 6.304688 12.835938 6.304688 C 13.589844 6.304688 14.039062 6.871094 14.039062 7.820312 C 14.039062 8.09375 14.039062 8.4375 14.035156 8.761719 C 14.03125 9.046875 14.03125 9.3125 14.03125 9.496094 C 14.03125 9.539062 14.089844 9.664062 14.179688 9.6875 C 14.289062 9.742188 14.449219 9.769531 14.648438 9.804688 L 14.65625 9.804688 C 14.671875 9.859375 14.640625 10.070312 14.609375 10.113281 C 14.5625 10.113281 14.492188 10.109375 14.40625 10.105469 C 14.25 10.097656 14.035156 10.085938 13.785156 10.085938 C 13.285156 10.085938 13.019531 10.097656 12.769531 10.113281 C 12.753906 10.050781 12.746094 9.847656 12.769531 9.804688 C 12.871094 9.789062 12.976562 9.765625 13.074219 9.738281 C 13.234375 9.683594 13.28125 9.613281 13.292969 9.398438 C 13.296875 9.246094 13.324219 7.914062 13.273438 7.597656 C 13.226562 7.269531 12.980469 6.886719 12.441406 6.886719 C 12.242188 6.886719 11.921875 6.96875 11.613281 7.203125 C 11.59375 7.226562 11.582031 7.253906 11.582031 7.28125 L 11.582031 7.289062 C 11.617188 7.460938 11.617188 7.660156 11.617188 7.960938 C 11.617188 8.132812 11.617188 8.3125 11.617188 8.496094 C 11.613281 8.863281 11.613281 9.210938 11.617188 9.472656 C 11.617188 9.648438 11.726562 9.691406 11.8125 9.726562 C 11.859375 9.738281 11.898438 9.746094 11.933594 9.753906 C 12.007812 9.773438 12.082031 9.792969 12.195312 9.808594 C 12.210938 9.886719 12.207031 9.964844 12.1875 10.039062 C 12.183594 10.066406 12.171875 10.09375 12.15625 10.117188 C 11.878906 10.109375 11.59375 10.101562 11.179688 10.101562 C 11.054688 10.101562 10.851562 10.105469 10.671875 10.109375 C 10.523438 10.113281 10.386719 10.117188 10.308594 10.117188 C 10.285156 10.066406 10.277344 10.011719 10.28125 9.957031 C 10.277344 9.90625 10.285156 9.855469 10.308594 9.808594 L 10.417969 9.789062 C 10.515625 9.773438 10.601562 9.757812 10.679688 9.738281 C 10.816406 9.695312 10.867188 9.621094 10.875 9.445312 C 10.902344 9.039062 10.921875 7.863281 10.867188 7.570312 C 10.769531 7.097656 10.5 6.859375 10.070312 6.859375 C 9.820312 6.859375 9.503906 6.980469 9.242188 7.175781 C 9.191406 7.226562 9.164062 7.292969 9.167969 7.363281 C 9.167969 7.503906 9.167969 7.671875 9.167969 7.851562 C 9.167969 8.4375 9.164062 9.171875 9.175781 9.488281 C 9.1875 9.589844 9.21875 9.703125 9.402344 9.746094 C 9.441406 9.757812 9.511719 9.769531 9.59375 9.78125 C 9.636719 9.789062 9.6875 9.800781 9.742188 9.808594 C 9.757812 9.914062 9.75 10.019531 9.714844 10.117188 C 9.636719 10.117188 9.539062 10.113281 9.425781 10.109375 C 9.25 10.101562 9.035156 10.089844 8.792969 10.089844 C 8.503906 10.089844 8.304688 10.101562 8.144531 10.109375 C 8.035156 10.113281 7.941406 10.117188 7.847656 10.117188 "/>
<path style=" stroke:none;fill-rule:nonzero;fill:rgb(100%,100%,100%);fill-opacity:1;" d="M 17.09375 6.695312 C 16.941406 6.691406 16.785156 6.734375 16.65625 6.820312 C 16.335938 7.015625 16.171875 7.40625 16.171875 7.980469 C 16.171875 9.050781 16.707031 9.800781 17.472656 9.800781 C 17.679688 9.808594 17.878906 9.738281 18.035156 9.601562 C 18.269531 9.410156 18.394531 9.015625 18.394531 8.464844 C 18.394531 7.40625 17.871094 6.695312 17.09375 6.695312 M 17.242188 10.199219 C 15.859375 10.199219 15.363281 9.179688 15.363281 8.226562 C 15.363281 7.558594 15.636719 7.039062 16.171875 6.675781 C 16.546875 6.441406 16.976562 6.316406 17.417969 6.304688 C 18.472656 6.304688 19.210938 7.070312 19.210938 8.160156 C 19.210938 8.90625 18.917969 9.492188 18.359375 9.859375 C 18.089844 10.023438 17.625 10.199219 17.242188 10.199219 "/>
<path style=" stroke:none;fill-rule:nonzero;fill:rgb(100%,100%,100%);fill-opacity:1;" d="M 31.1875 6.695312 C 31.03125 6.691406 30.878906 6.734375 30.75 6.820312 C 30.429688 7.015625 30.265625 7.40625 30.265625 7.980469 C 30.265625 9.050781 30.800781 9.800781 31.566406 9.800781 C 31.773438 9.808594 31.972656 9.738281 32.128906 9.601562 C 32.367188 9.410156 32.488281 9.015625 32.488281 8.464844 C 32.488281 7.40625 31.96875 6.695312 31.1875 6.695312 M 31.335938 10.199219 C 29.953125 10.199219 29.460938 9.179688 29.460938 8.226562 C 29.460938 7.558594 29.730469 7.039062 30.265625 6.675781 C 30.640625 6.441406 31.070312 6.3125 31.511719 6.304688 C 32.566406 6.304688 33.304688 7.070312 33.304688 8.160156 C 33.304688 8.90625 33.011719 9.492188 32.453125 9.859375 C 32.1875 10.023438 31.71875 10.199219 31.335938 10.199219 "/>
<path style=" stroke:none;fill-rule:nonzero;fill:rgb(100%,100%,100%);fill-opacity:1;" d="M 26.527344 6.65625 C 26.101562 6.65625 25.824219 6.996094 25.824219 7.519531 C 25.824219 8.042969 26.0625 8.667969 26.730469 8.667969 C 26.847656 8.667969 27.054688 8.617188 27.15625 8.503906 C 27.3125 8.359375 27.414062 8.0625 27.414062 7.75 C 27.414062 7.066406 27.085938 6.65625 26.53125 6.65625 M 26.476562 10.273438 C 26.355469 10.273438 26.234375 10.300781 26.128906 10.359375 C 25.792969 10.578125 25.636719 10.792969 25.636719 11.046875 C 25.636719 11.28125 25.726562 11.46875 25.921875 11.636719 C 26.160156 11.835938 26.480469 11.9375 26.898438 11.9375 C 27.726562 11.9375 28.097656 11.488281 28.097656 11.046875 C 28.097656 10.738281 27.945312 10.53125 27.628906 10.414062 C 27.382812 10.324219 26.976562 10.273438 26.476562 10.273438 M 26.53125 12.398438 C 26.035156 12.398438 25.675781 12.292969 25.371094 12.054688 C 25.074219 11.824219 24.941406 11.484375 24.941406 11.246094 C 24.941406 11.09375 25 10.949219 25.101562 10.835938 C 25.1875 10.734375 25.390625 10.550781 25.851562 10.230469 C 25.867188 10.222656 25.878906 10.210938 25.878906 10.195312 C 25.878906 10.175781 25.863281 10.160156 25.847656 10.15625 C 25.464844 10.007812 25.351562 9.765625 25.316406 9.636719 C 25.316406 9.628906 25.316406 9.625 25.3125 9.613281 C 25.300781 9.5625 25.289062 9.515625 25.359375 9.464844 C 25.414062 9.425781 25.5 9.375 25.589844 9.324219 C 25.71875 9.25 25.84375 9.167969 25.960938 9.078125 C 25.972656 9.066406 25.980469 9.046875 25.976562 9.027344 C 25.972656 9.011719 25.960938 8.992188 25.945312 8.984375 C 25.378906 8.792969 25.097656 8.371094 25.097656 7.726562 C 25.09375 7.320312 25.289062 6.9375 25.617188 6.699219 C 25.84375 6.519531 26.414062 6.300781 26.785156 6.300781 L 26.808594 6.300781 C 27.1875 6.3125 27.402344 6.390625 27.699219 6.5 C 27.867188 6.5625 28.046875 6.589844 28.226562 6.585938 C 28.539062 6.585938 28.675781 6.484375 28.796875 6.367188 C 28.8125 6.421875 28.824219 6.476562 28.824219 6.53125 C 28.832031 6.664062 28.796875 6.796875 28.722656 6.910156 C 28.660156 7 28.507812 7.0625 28.367188 7.0625 C 28.355469 7.0625 28.339844 7.0625 28.324219 7.0625 C 28.253906 7.054688 28.179688 7.042969 28.109375 7.023438 L 28.074219 7.039062 C 28.0625 7.054688 28.070312 7.074219 28.078125 7.097656 C 28.082031 7.101562 28.082031 7.105469 28.085938 7.109375 C 28.109375 7.226562 28.128906 7.34375 28.136719 7.460938 C 28.136719 8.136719 27.871094 8.429688 27.585938 8.644531 C 27.308594 8.855469 26.980469 8.980469 26.636719 9.015625 C 26.628906 9.015625 26.59375 9.019531 26.527344 9.023438 C 26.484375 9.027344 26.425781 9.035156 26.417969 9.035156 L 26.410156 9.035156 C 26.347656 9.050781 26.1875 9.128906 26.1875 9.273438 C 26.1875 9.390625 26.261719 9.539062 26.609375 9.566406 L 26.835938 9.582031 C 27.300781 9.617188 27.878906 9.65625 28.148438 9.75 C 28.519531 9.878906 28.761719 10.234375 28.753906 10.628906 C 28.753906 11.230469 28.328125 11.800781 27.613281 12.148438 C 27.273438 12.308594 26.902344 12.394531 26.53125 12.390625 "/>
<path style=" stroke:none;fill-rule:nonzero;fill:rgb(100%,100%,100%);fill-opacity:1;" d="M 24.410156 9.796875 C 24.210938 9.769531 24.0625 9.742188 23.886719 9.660156 C 23.851562 9.621094 23.828125 9.578125 23.820312 9.527344 C 23.804688 9.246094 23.804688 8.421875 23.804688 7.882812 C 23.804688 7.441406 23.730469 7.058594 23.542969 6.785156 C 23.324219 6.472656 23.011719 6.289062 22.605469 6.289062 C 22.246094 6.289062 21.765625 6.535156 21.371094 6.875 C 21.359375 6.882812 21.300781 6.941406 21.300781 6.851562 C 21.304688 6.761719 21.316406 6.578125 21.324219 6.460938 C 21.332031 6.398438 21.3125 6.335938 21.265625 6.292969 C 21.007812 6.421875 20.28125 6.59375 20.011719 6.621094 C 19.816406 6.660156 19.765625 6.847656 19.976562 6.914062 L 19.980469 6.914062 C 20.144531 6.960938 20.304688 7.03125 20.453125 7.125 C 20.535156 7.1875 20.527344 7.28125 20.527344 7.351562 C 20.535156 7.964844 20.535156 8.910156 20.507812 9.421875 C 20.5 9.625 20.445312 9.695312 20.296875 9.734375 L 20.308594 9.730469 C 20.199219 9.757812 20.082031 9.777344 19.96875 9.792969 C 19.921875 9.839844 19.921875 10.105469 19.96875 10.160156 C 20.0625 10.160156 20.53125 10.132812 20.917969 10.132812 C 21.453125 10.132812 21.726562 10.160156 21.867188 10.160156 C 21.921875 10.09375 21.941406 9.847656 21.902344 9.792969 C 21.777344 9.785156 21.648438 9.769531 21.523438 9.738281 C 21.378906 9.703125 21.339844 9.628906 21.332031 9.464844 C 21.3125 9.03125 21.3125 8.117188 21.3125 7.496094 C 21.3125 7.320312 21.359375 7.238281 21.414062 7.191406 C 21.597656 7.027344 21.902344 6.917969 22.171875 6.917969 C 22.429688 6.917969 22.601562 7 22.730469 7.109375 C 22.882812 7.242188 22.976562 7.425781 22.996094 7.625 C 23.03125 7.972656 23.023438 8.671875 23.023438 9.273438 C 23.023438 9.601562 22.996094 9.6875 22.875 9.722656 C 22.820312 9.75 22.671875 9.777344 22.496094 9.796875 C 22.441406 9.851562 22.460938 10.105469 22.496094 10.160156 C 22.738281 10.160156 23.015625 10.132812 23.417969 10.132812 C 23.925781 10.132812 24.246094 10.160156 24.375 10.160156 C 24.433594 10.097656 24.449219 9.859375 24.414062 9.796875 "/>
</g>
</svg>
