<?xml version="1.0" encoding="UTF-8"?>
<svg xmlns="http://www.w3.org/2000/svg" xmlns:xlink="http://www.w3.org/1999/xlink" width="50pt" height="56pt" viewBox="0 0 50 56" version="1.1">
<g id="surface1">
<path style=" stroke:none;fill-rule:nonzero;fill:rgb(32.54902%,61.960784%,26.27451%);fill-opacity:1;" d="M 25 55.894531 C 24.222656 55.894531 23.5 55.691406 22.824219 55.332031 L 15.941406 51.273438 C 14.90625 50.710938 15.425781 50.503906 15.734375 50.402344 C 17.132812 49.9375 17.390625 49.835938 18.839844 49.015625 C 18.996094 48.914062 19.203125 48.964844 19.359375 49.066406 L 24.636719 52.199219 C 24.84375 52.300781 25.105469 52.300781 25.257812 52.199219 L 45.910156 40.335938 C 46.117188 40.234375 46.222656 40.027344 46.222656 39.773438 L 46.222656 16.097656 C 46.222656 15.84375 46.117188 15.636719 45.910156 15.535156 L 25.257812 3.722656 C 25.050781 3.621094 24.792969 3.621094 24.636719 3.722656 L 3.984375 15.535156 C 3.777344 15.636719 3.675781 15.894531 3.675781 16.097656 L 3.675781 39.773438 C 3.675781 39.976562 3.777344 40.234375 3.984375 40.335938 L 9.628906 43.570312 C 12.679688 45.113281 14.597656 43.316406 14.597656 41.519531 L 14.597656 18.152344 C 14.597656 17.84375 14.855469 17.535156 15.21875 17.535156 L 17.855469 17.535156 C 18.167969 17.535156 18.476562 17.792969 18.476562 18.152344 L 18.476562 41.519531 C 18.476562 45.574219 16.253906 47.9375 12.371094 47.9375 C 11.179688 47.9375 10.25 47.9375 7.609375 46.652344 L 2.175781 43.570312 C 0.828125 42.800781 0 41.363281 0 39.824219 L 0 16.148438 C 0 14.609375 0.828125 13.171875 2.175781 12.402344 L 22.824219 0.539062 C 24.121094 -0.179688 25.878906 -0.179688 27.175781 0.539062 L 47.824219 12.402344 C 49.171875 13.171875 50 14.609375 50 16.148438 L 50 39.824219 C 50 41.363281 49.171875 42.800781 47.824219 43.570312 L 27.175781 55.433594 C 26.5 55.742188 25.726562 55.894531 25 55.894531 Z M 31.367188 39.617188 C 22.308594 39.617188 20.445312 35.507812 20.445312 32.019531 C 20.445312 31.710938 20.703125 31.402344 21.066406 31.402344 L 23.757812 31.402344 C 24.066406 31.402344 24.328125 31.605469 24.328125 31.914062 C 24.742188 34.636719 25.933594 35.972656 31.417969 35.972656 C 35.765625 35.972656 37.628906 34.996094 37.628906 32.683594 C 37.628906 31.351562 37.113281 30.375 30.332031 29.707031 C 24.6875 29.140625 21.167969 27.910156 21.167969 23.441406 C 21.167969 19.28125 24.6875 16.816406 30.589844 16.816406 C 37.214844 16.816406 40.476562 19.078125 40.890625 24.007812 C 40.890625 24.160156 40.839844 24.316406 40.734375 24.46875 C 40.632812 24.570312 40.476562 24.675781 40.320312 24.675781 L 37.628906 24.675781 C 37.371094 24.675781 37.113281 24.46875 37.058594 24.210938 C 36.4375 21.386719 34.835938 20.464844 30.589844 20.464844 C 25.828125 20.464844 25.257812 22.105469 25.257812 23.339844 C 25.257812 24.828125 25.933594 25.289062 32.351562 26.113281 C 38.714844 26.933594 41.71875 28.113281 41.71875 32.53125 C 41.667969 37.050781 37.941406 39.617188 31.367188 39.617188 Z M 31.367188 39.617188 "/>
</g>
</svg>
