<?xml version="1.0" encoding="UTF-8"?>
<svg xmlns="http://www.w3.org/2000/svg" xmlns:xlink="http://www.w3.org/1999/xlink" width="50pt" height="50pt" viewBox="0 0 50 50" version="1.1">
<g id="surface1">
<path style=" stroke:none;fill-rule:nonzero;fill:rgb(100%,42.352941%,21.568627%);fill-opacity:1;" d="M 49.621094 28.042969 C 50.25 23.164062 49.414062 18.207031 47.222656 13.804688 C 45.035156 9.398438 41.585938 5.738281 37.316406 3.292969 C 33.046875 0.847656 28.148438 -0.277344 23.242188 0.0585938 C 18.332031 0.398438 13.636719 2.183594 9.742188 5.191406 C 5.847656 8.199219 2.933594 12.292969 1.367188 16.957031 C -0.199219 21.621094 -0.347656 26.644531 0.941406 31.394531 C 2.230469 36.140625 4.898438 40.402344 8.609375 43.632812 C 12.320312 46.863281 16.902344 48.921875 21.785156 49.550781 C 28.328125 50.390625 34.9375 48.59375 40.15625 44.5625 C 45.375 40.53125 48.78125 34.585938 49.621094 28.042969 Z M 49.621094 28.042969 "/>
<path style=" stroke:none;fill-rule:nonzero;fill:rgb(100%,100%,100%);fill-opacity:1;" d="M 33.921875 15.988281 L 23.433594 26.476562 L 20.460938 23.503906 C 30.785156 13.183594 31.8125 14.09375 33.921875 15.988281 Z M 33.921875 15.988281 "/>
<path style=" stroke:none;fill-rule:nonzero;fill:rgb(100%,42.352941%,21.568627%);fill-opacity:1;" d="M 23.433594 26.726562 C 23.398438 26.726562 23.367188 26.71875 23.335938 26.707031 C 23.308594 26.695312 23.277344 26.675781 23.257812 26.652344 L 20.269531 23.667969 C 20.226562 23.621094 20.199219 23.558594 20.199219 23.492188 C 20.199219 23.425781 20.226562 23.363281 20.269531 23.316406 C 30.769531 12.820312 31.875 13.8125 34.074219 15.789062 C 34.101562 15.8125 34.121094 15.839844 34.132812 15.871094 C 34.148438 15.902344 34.15625 15.933594 34.15625 15.96875 C 34.15625 16 34.152344 16.035156 34.140625 16.066406 C 34.128906 16.097656 34.109375 16.128906 34.085938 16.152344 L 23.605469 26.652344 C 23.5625 26.699219 23.5 26.726562 23.433594 26.726562 Z M 20.8125 23.492188 L 23.433594 26.121094 L 33.558594 15.992188 C 31.722656 14.367188 30.472656 13.863281 20.8125 23.503906 Z M 20.8125 23.492188 "/>
<path style=" stroke:none;fill-rule:nonzero;fill:rgb(100%,100%,100%);fill-opacity:1;" d="M 26.4375 29.484375 L 23.570312 26.617188 L 34.0625 16.125 C 36.886719 18.953125 32.699219 23.558594 26.4375 29.484375 Z M 26.4375 29.484375 "/>
<path style=" stroke:none;fill-rule:nonzero;fill:rgb(100%,42.352941%,21.568627%);fill-opacity:1;" d="M 26.4375 29.730469 L 26.425781 29.730469 C 26.363281 29.726562 26.304688 29.699219 26.257812 29.652344 L 23.394531 26.792969 C 23.351562 26.746094 23.324219 26.683594 23.324219 26.617188 C 23.324219 26.585938 23.328125 26.550781 23.34375 26.519531 C 23.355469 26.492188 23.371094 26.464844 23.394531 26.441406 L 33.886719 15.953125 C 33.933594 15.90625 33.996094 15.878906 34.0625 15.878906 C 34.125 15.878906 34.191406 15.90625 34.234375 15.953125 C 34.550781 16.25 34.800781 16.613281 34.964844 17.011719 C 35.132812 17.410156 35.214844 17.839844 35.207031 18.273438 C 35.167969 21.03125 32.027344 24.539062 26.609375 29.660156 C 26.5625 29.707031 26.5 29.730469 26.4375 29.730469 Z M 23.925781 26.617188 C 25.53125 28.222656 26.179688 28.871094 26.441406 29.132812 C 30.632812 25.152344 34.671875 21.078125 34.710938 18.269531 C 34.726562 17.613281 34.492188 16.972656 34.054688 16.484375 Z M 23.925781 26.617188 "/>
<path style=" stroke:none;fill-rule:nonzero;fill:rgb(100%,100%,100%);fill-opacity:1;" d="M 20.53125 23.578125 L 22.648438 25.691406 C 22.664062 25.703125 22.671875 25.722656 22.675781 25.738281 C 22.679688 25.757812 22.679688 25.773438 22.675781 25.792969 C 22.667969 25.808594 22.660156 25.828125 22.644531 25.839844 C 22.632812 25.851562 22.613281 25.859375 22.597656 25.863281 L 18.230469 26.804688 C 18.144531 26.824219 18.054688 26.8125 17.972656 26.777344 C 17.890625 26.738281 17.824219 26.675781 17.78125 26.597656 C 17.738281 26.523438 17.722656 26.433594 17.738281 26.34375 C 17.75 26.257812 17.789062 26.175781 17.851562 26.113281 L 20.398438 23.578125 C 20.417969 23.5625 20.441406 23.550781 20.464844 23.550781 C 20.488281 23.550781 20.515625 23.5625 20.53125 23.578125 Z M 20.53125 23.578125 "/>
<path style=" stroke:none;fill-rule:nonzero;fill:rgb(100%,42.352941%,21.568627%);fill-opacity:1;" d="M 18.140625 27.0625 C 18.011719 27.0625 17.882812 27.023438 17.777344 26.949219 C 17.667969 26.878906 17.582031 26.773438 17.535156 26.652344 C 17.484375 26.53125 17.472656 26.398438 17.496094 26.273438 C 17.523438 26.144531 17.585938 26.027344 17.679688 25.933594 L 20.210938 23.402344 C 20.277344 23.335938 20.367188 23.296875 20.460938 23.296875 C 20.554688 23.296875 20.644531 23.335938 20.707031 23.402344 L 22.824219 25.515625 C 22.867188 25.5625 22.902344 25.617188 22.917969 25.679688 C 22.933594 25.738281 22.929688 25.804688 22.914062 25.863281 C 22.894531 25.925781 22.863281 25.980469 22.816406 26.023438 C 22.769531 26.066406 22.710938 26.09375 22.648438 26.105469 L 18.285156 27.046875 C 18.238281 27.058594 18.1875 27.0625 18.140625 27.0625 Z M 20.460938 23.855469 L 18.03125 26.285156 C 18.003906 26.308594 17.988281 26.34375 17.980469 26.378906 C 17.976562 26.414062 17.984375 26.449219 18.003906 26.480469 C 18.019531 26.511719 18.042969 26.539062 18.078125 26.550781 C 18.109375 26.566406 18.144531 26.570312 18.179688 26.558594 L 22.28125 25.675781 Z M 20.460938 23.855469 "/>
<path style=" stroke:none;fill-rule:nonzero;fill:rgb(100%,100%,100%);fill-opacity:1;" d="M 39.484375 10.164062 C 38.941406 9.644531 38.265625 9.285156 37.53125 9.128906 C 36.796875 8.972656 36.03125 9.027344 35.324219 9.28125 C 34.617188 9.535156 33.996094 9.984375 33.53125 10.574219 C 33.066406 11.164062 32.777344 11.875 32.695312 12.621094 C 32.609375 13.367188 32.738281 14.121094 33.0625 14.800781 C 33.382812 15.476562 33.890625 16.050781 34.523438 16.457031 C 35.15625 16.859375 35.890625 17.082031 36.640625 17.089844 C 37.390625 17.101562 38.128906 16.902344 38.773438 16.511719 L 35.953125 13.695312 Z M 39.484375 10.164062 "/>
<path style=" stroke:none;fill-rule:nonzero;fill:rgb(100%,42.352941%,21.568627%);fill-opacity:1;" d="M 36.691406 17.34375 C 35.992188 17.34375 35.304688 17.171875 34.683594 16.84375 C 34.066406 16.515625 33.539062 16.039062 33.148438 15.460938 C 32.753906 14.882812 32.511719 14.214844 32.4375 13.519531 C 32.363281 12.824219 32.460938 12.121094 32.722656 11.46875 C 32.984375 10.820312 33.402344 10.246094 33.9375 9.796875 C 34.472656 9.34375 35.109375 9.03125 35.792969 8.886719 C 36.476562 8.738281 37.1875 8.761719 37.859375 8.953125 C 38.535156 9.144531 39.148438 9.5 39.652344 9.984375 C 39.679688 10.007812 39.695312 10.035156 39.710938 10.066406 C 39.722656 10.097656 39.730469 10.128906 39.730469 10.160156 C 39.730469 10.195312 39.726562 10.226562 39.714844 10.257812 C 39.699219 10.289062 39.683594 10.316406 39.660156 10.339844 L 36.320312 13.695312 L 38.960938 16.335938 C 38.988281 16.363281 39.007812 16.394531 39.019531 16.429688 C 39.035156 16.464844 39.035156 16.503906 39.03125 16.542969 C 39.027344 16.578125 39.015625 16.617188 38.992188 16.648438 C 38.972656 16.679688 38.945312 16.707031 38.914062 16.726562 C 38.242188 17.132812 37.472656 17.34375 36.691406 17.34375 Z M 36.691406 9.296875 C 36.125 9.300781 35.5625 9.425781 35.050781 9.675781 C 34.542969 9.921875 34.09375 10.28125 33.738281 10.726562 C 33.386719 11.171875 33.140625 11.691406 33.015625 12.246094 C 32.890625 12.796875 32.894531 13.375 33.023438 13.925781 C 33.152344 14.480469 33.402344 14.996094 33.757812 15.4375 C 34.117188 15.878906 34.566406 16.234375 35.082031 16.476562 C 35.59375 16.722656 36.15625 16.84375 36.722656 16.839844 C 37.292969 16.835938 37.851562 16.703125 38.359375 16.453125 L 35.777344 13.867188 C 35.730469 13.820312 35.703125 13.757812 35.703125 13.695312 C 35.703125 13.660156 35.710938 13.628906 35.722656 13.597656 C 35.734375 13.566406 35.753906 13.539062 35.777344 13.515625 L 39.121094 10.175781 C 38.441406 9.605469 37.582031 9.296875 36.695312 9.296875 Z M 36.691406 9.296875 "/>
<path style=" stroke:none;fill-rule:nonzero;fill:rgb(100%,100%,100%);fill-opacity:1;" d="M 39.550781 10.21875 L 39.488281 10.164062 L 35.953125 13.695312 L 38.773438 16.511719 C 39.054688 16.347656 39.316406 16.148438 39.550781 15.921875 C 39.925781 15.546875 40.222656 15.101562 40.425781 14.613281 C 40.628906 14.125 40.734375 13.597656 40.734375 13.070312 C 40.734375 12.539062 40.628906 12.015625 40.425781 11.527344 C 40.222656 11.039062 39.925781 10.59375 39.550781 10.21875 Z M 39.550781 10.21875 "/>
<path style=" stroke:none;fill-rule:nonzero;fill:rgb(100%,42.352941%,21.568627%);fill-opacity:1;" d="M 38.773438 16.761719 C 38.742188 16.761719 38.707031 16.753906 38.679688 16.742188 C 38.648438 16.730469 38.621094 16.710938 38.597656 16.6875 L 35.777344 13.867188 C 35.730469 13.820312 35.703125 13.757812 35.703125 13.695312 C 35.703125 13.660156 35.710938 13.628906 35.722656 13.597656 C 35.734375 13.566406 35.753906 13.539062 35.777344 13.515625 L 39.304688 9.988281 C 39.351562 9.941406 39.414062 9.917969 39.476562 9.917969 C 39.542969 9.917969 39.605469 9.941406 39.652344 9.988281 L 39.714844 10.042969 C 40.175781 10.503906 40.527344 11.058594 40.738281 11.675781 C 40.949219 12.289062 41.019531 12.941406 40.941406 13.585938 C 40.863281 14.230469 40.636719 14.851562 40.28125 15.394531 C 39.929688 15.9375 39.457031 16.394531 38.898438 16.730469 C 38.859375 16.75 38.816406 16.761719 38.773438 16.761719 Z M 36.320312 13.695312 L 38.804688 16.195312 C 39.007812 16.0625 39.195312 15.910156 39.367188 15.738281 C 40.054688 15.050781 40.449219 14.121094 40.472656 13.148438 C 40.492188 12.175781 40.136719 11.234375 39.480469 10.515625 Z M 36.320312 13.695312 "/>
<path style=" stroke:none;fill-rule:nonzero;fill:rgb(100%,100%,100%);fill-opacity:1;" d="M 34.351562 16.417969 C 34.066406 16.132812 33.675781 15.96875 33.269531 15.96875 C 32.863281 15.96875 32.472656 16.132812 32.1875 16.417969 L 22.804688 25.800781 L 24.378906 27.363281 L 34.292969 18.65625 C 34.449219 18.515625 34.578125 18.347656 34.667969 18.15625 C 34.753906 17.964844 34.804688 17.761719 34.808594 17.550781 C 34.816406 17.339844 34.777344 17.132812 34.699219 16.9375 C 34.621094 16.742188 34.503906 16.566406 34.351562 16.417969 Z M 34.351562 16.417969 "/>
<path style=" stroke:none;fill-rule:nonzero;fill:rgb(100%,42.352941%,21.568627%);fill-opacity:1;" d="M 24.378906 27.613281 C 24.34375 27.613281 24.3125 27.605469 24.28125 27.59375 C 24.253906 27.582031 24.226562 27.5625 24.203125 27.539062 L 22.636719 25.976562 C 22.613281 25.953125 22.59375 25.925781 22.582031 25.898438 C 22.570312 25.867188 22.5625 25.832031 22.5625 25.800781 C 22.5625 25.769531 22.570312 25.734375 22.582031 25.707031 C 22.59375 25.675781 22.613281 25.648438 22.636719 25.625 L 32.011719 16.242188 C 32.34375 15.910156 32.796875 15.722656 33.269531 15.722656 C 33.742188 15.722656 34.195312 15.910156 34.53125 16.242188 C 34.703125 16.414062 34.835938 16.621094 34.925781 16.847656 C 35.015625 17.074219 35.058594 17.316406 35.050781 17.558594 C 35.042969 17.800781 34.984375 18.042969 34.878906 18.261719 C 34.777344 18.480469 34.628906 18.679688 34.445312 18.839844 L 24.53125 27.542969 C 24.488281 27.582031 24.433594 27.609375 24.378906 27.613281 Z M 23.167969 25.804688 L 24.386719 27.023438 L 34.128906 18.46875 C 34.261719 18.355469 34.371094 18.214844 34.445312 18.0625 C 34.523438 17.90625 34.570312 17.734375 34.578125 17.5625 C 34.589844 17.390625 34.5625 17.214844 34.503906 17.050781 C 34.445312 16.886719 34.351562 16.738281 34.234375 16.613281 C 34.117188 16.484375 33.972656 16.382812 33.8125 16.3125 C 33.652344 16.246094 33.480469 16.207031 33.308594 16.207031 C 33.132812 16.203125 32.960938 16.238281 32.800781 16.304688 C 32.640625 16.375 32.496094 16.472656 32.375 16.597656 Z M 23.167969 25.804688 "/>
<path style=" stroke:none;fill-rule:nonzero;fill:rgb(100%,100%,100%);fill-opacity:1;" d="M 15.613281 36.460938 C 15.566406 36.484375 15.53125 36.523438 15.511719 36.566406 C 15.492188 36.613281 15.484375 36.664062 15.496094 36.710938 L 15.914062 38.507812 C 15.953125 38.617188 15.949219 38.738281 15.90625 38.847656 C 15.867188 38.953125 15.789062 39.046875 15.6875 39.101562 C 15.582031 39.160156 15.464844 39.175781 15.351562 39.15625 C 15.238281 39.132812 15.132812 39.074219 15.058594 38.984375 L 12.339844 36.265625 L 21.269531 27.339844 L 24.339844 27.386719 L 26.4375 29.480469 C 25.917969 29.914062 22.910156 32.804688 15.613281 36.460938 Z M 15.613281 36.460938 "/>
<path style=" stroke:none;fill-rule:nonzero;fill:rgb(100%,42.352941%,21.568627%);fill-opacity:1;" d="M 15.421875 39.386719 C 15.324219 39.386719 15.226562 39.367188 15.132812 39.328125 C 15.042969 39.289062 14.960938 39.234375 14.890625 39.160156 L 12.164062 36.441406 C 12.117188 36.394531 12.09375 36.332031 12.09375 36.265625 C 12.09375 36.234375 12.097656 36.199219 12.109375 36.171875 C 12.121094 36.140625 12.140625 36.113281 12.164062 36.089844 L 21.09375 27.160156 C 21.117188 27.136719 21.144531 27.121094 21.175781 27.109375 C 21.203125 27.09375 21.238281 27.089844 21.269531 27.089844 L 24.347656 27.136719 C 24.410156 27.136719 24.472656 27.164062 24.515625 27.207031 L 26.613281 29.304688 C 26.636719 29.332031 26.65625 29.359375 26.667969 29.390625 C 26.683594 29.421875 26.6875 29.457031 26.6875 29.492188 C 26.683594 29.527344 26.675781 29.5625 26.660156 29.589844 C 26.644531 29.621094 26.625 29.648438 26.597656 29.671875 L 26.421875 29.824219 C 23.789062 32.136719 20.203125 34.441406 15.742188 36.675781 L 16.160156 38.453125 C 16.199219 38.613281 16.183594 38.78125 16.117188 38.933594 C 16.050781 39.085938 15.933594 39.210938 15.789062 39.289062 C 15.675781 39.351562 15.550781 39.382812 15.421875 39.386719 Z M 12.6875 36.265625 L 15.234375 38.804688 C 15.269531 38.863281 15.324219 38.90625 15.386719 38.925781 C 15.453125 38.941406 15.523438 38.933594 15.578125 38.902344 C 15.636719 38.867188 15.679688 38.8125 15.699219 38.75 C 15.714844 38.683594 15.707031 38.613281 15.675781 38.558594 L 15.253906 36.761719 C 15.230469 36.65625 15.242188 36.550781 15.285156 36.453125 C 15.332031 36.355469 15.40625 36.277344 15.503906 36.230469 C 19.914062 34.015625 23.460938 31.738281 26.074219 29.457031 L 24.238281 27.621094 L 21.371094 27.578125 Z M 12.6875 36.265625 "/>
<path style=" stroke:none;fill-rule:nonzero;fill:rgb(100%,100%,100%);fill-opacity:1;" d="M 10.199219 38.402344 L 12.335938 36.265625 L 15.511719 39.441406 L 10.4375 39.09375 C 10.363281 39.085938 10.289062 39.054688 10.230469 39.007812 C 10.171875 38.960938 10.125 38.894531 10.101562 38.824219 C 10.074219 38.75 10.070312 38.675781 10.089844 38.597656 C 10.105469 38.523438 10.144531 38.457031 10.199219 38.402344 Z M 10.199219 38.402344 "/>
<path style=" stroke:none;fill-rule:nonzero;fill:rgb(100%,42.352941%,21.568627%);fill-opacity:1;" d="M 15.515625 39.691406 L 15.503906 39.691406 L 10.425781 39.34375 C 10.300781 39.332031 10.183594 39.285156 10.085938 39.207031 C 9.988281 39.128906 9.914062 39.027344 9.875 38.910156 C 9.832031 38.792969 9.824219 38.667969 9.851562 38.546875 C 9.878906 38.425781 9.941406 38.3125 10.027344 38.226562 L 12.164062 36.089844 C 12.1875 36.066406 12.214844 36.046875 12.246094 36.035156 C 12.277344 36.023438 12.308594 36.015625 12.339844 36.015625 C 12.375 36.015625 12.40625 36.023438 12.4375 36.035156 C 12.464844 36.046875 12.496094 36.066406 12.515625 36.089844 L 15.695312 39.265625 C 15.730469 39.300781 15.753906 39.347656 15.765625 39.398438 C 15.773438 39.449219 15.765625 39.5 15.746094 39.546875 C 15.726562 39.589844 15.695312 39.628906 15.652344 39.652344 C 15.613281 39.679688 15.566406 39.691406 15.515625 39.691406 Z M 12.339844 36.617188 L 10.378906 38.578125 C 10.359375 38.597656 10.34375 38.625 10.335938 38.652344 C 10.328125 38.683594 10.332031 38.714844 10.339844 38.742188 C 10.351562 38.769531 10.367188 38.796875 10.390625 38.8125 C 10.414062 38.832031 10.441406 38.84375 10.472656 38.847656 L 14.875 39.148438 Z M 12.339844 36.617188 "/>
<path style=" stroke:none;fill-rule:nonzero;fill:rgb(100%,42.352941%,21.568627%);fill-opacity:1;" d="M 20.363281 28.488281 C 20.3125 28.488281 20.265625 28.476562 20.226562 28.449219 C 20.183594 28.421875 20.152344 28.382812 20.132812 28.335938 C 20.117188 28.292969 20.109375 28.242188 20.121094 28.195312 C 20.128906 28.144531 20.152344 28.101562 20.1875 28.066406 L 22.605469 25.648438 C 22.628906 25.625 22.65625 25.609375 22.683594 25.59375 C 22.714844 25.582031 22.75 25.574219 22.78125 25.574219 C 22.8125 25.574219 22.847656 25.582031 22.875 25.59375 C 22.90625 25.609375 22.933594 25.625 22.957031 25.648438 L 24.515625 27.207031 C 24.546875 27.242188 24.570312 27.28125 24.582031 27.324219 C 24.59375 27.367188 24.59375 27.414062 24.578125 27.457031 C 24.566406 27.5 24.542969 27.539062 24.511719 27.570312 C 24.476562 27.597656 24.4375 27.621094 24.394531 27.628906 L 20.414062 28.488281 C 20.398438 28.492188 20.378906 28.492188 20.363281 28.488281 Z M 22.78125 26.175781 L 21.144531 27.820312 L 23.847656 27.234375 Z M 22.78125 26.175781 "/>
<path style=" stroke:none;fill-rule:nonzero;fill:rgb(100%,100%,100%);fill-opacity:1;" d="M 24.339844 27.386719 L 21.605469 27.972656 C 21.523438 27.992188 21.441406 27.980469 21.367188 27.949219 C 21.292969 27.914062 21.230469 27.859375 21.191406 27.785156 C 21.152344 27.714844 21.136719 27.632812 21.152344 27.550781 C 21.164062 27.46875 21.199219 27.394531 21.257812 27.339844 L 22.769531 25.824219 Z M 24.339844 27.386719 "/>
<path style=" stroke:none;fill-rule:nonzero;fill:rgb(100%,42.352941%,21.568627%);fill-opacity:1;" d="M 21.53125 28.230469 C 21.410156 28.230469 21.289062 28.191406 21.183594 28.125 C 21.082031 28.054688 21.003906 27.957031 20.953125 27.84375 C 20.90625 27.726562 20.894531 27.601562 20.921875 27.480469 C 20.945312 27.359375 21.003906 27.25 21.09375 27.160156 L 22.605469 25.648438 C 22.628906 25.625 22.65625 25.609375 22.683594 25.59375 C 22.714844 25.582031 22.75 25.574219 22.78125 25.574219 C 22.8125 25.574219 22.847656 25.582031 22.875 25.59375 C 22.90625 25.609375 22.933594 25.625 22.957031 25.648438 L 24.515625 27.207031 C 24.546875 27.242188 24.570312 27.28125 24.582031 27.324219 C 24.59375 27.367188 24.59375 27.414062 24.578125 27.457031 C 24.566406 27.5 24.542969 27.539062 24.511719 27.570312 C 24.476562 27.597656 24.4375 27.621094 24.394531 27.628906 L 21.65625 28.21875 C 21.617188 28.226562 21.574219 28.230469 21.53125 28.230469 Z M 22.777344 26.175781 L 21.4375 27.511719 C 21.417969 27.53125 21.40625 27.558594 21.402344 27.585938 C 21.398438 27.613281 21.402344 27.640625 21.417969 27.664062 C 21.429688 27.691406 21.449219 27.710938 21.476562 27.722656 C 21.5 27.734375 21.53125 27.738281 21.558594 27.730469 L 23.835938 27.230469 Z M 22.777344 26.175781 "/>
<path style=" stroke:none;fill-rule:nonzero;fill:rgb(100%,42.352941%,21.568627%);fill-opacity:1;" d="M 39.570312 12.609375 C 39.558594 12.570312 39.535156 12.535156 39.507812 12.503906 C 39.480469 12.472656 39.445312 12.449219 39.410156 12.433594 C 39.371094 12.417969 39.328125 12.410156 39.289062 12.410156 C 39.246094 12.410156 39.207031 12.421875 39.167969 12.4375 C 39.132812 12.457031 39.101562 12.484375 39.074219 12.515625 C 39.046875 12.546875 39.027344 12.582031 39.015625 12.621094 C 39.007812 12.664062 39.003906 12.703125 39.011719 12.746094 C 39.015625 12.785156 39.03125 12.824219 39.054688 12.859375 C 39.128906 13.007812 39.15625 13.175781 39.140625 13.339844 C 39.121094 13.507812 39.054688 13.664062 38.949219 13.792969 C 38.898438 13.851562 38.875 13.929688 38.882812 14.003906 C 38.890625 14.078125 38.925781 14.148438 38.984375 14.199219 C 39.042969 14.246094 39.121094 14.269531 39.195312 14.261719 C 39.273438 14.253906 39.339844 14.21875 39.390625 14.160156 C 39.566406 13.945312 39.675781 13.683594 39.707031 13.410156 C 39.738281 13.136719 39.691406 12.859375 39.570312 12.609375 Z M 39.570312 12.609375 "/>
</g>
</svg>
