<svg
  width="943"
  height="942"
  viewBox="0 0 943 942"
  fill="none"
  xmlns="http://www.w3.org/2000/svg"
>
  <path
    d="M912.144 306.573C942.795 771.309 453.14 707.498 453.14 707.498C789.418 712.257 931.23 74.9655 385.614 8.10362C413.794 2.81795 442.384 0.108692 471.038 0C673.432 0 845.504 127.685 912.144 306.573Z"
    fill="#56676E"
  />
  <path
    d="M703.084 498.052C703.084 498.052 818.733 11.3644 298.169 33.1028C123.61 101.937 0.0384521 271.481 0.0384521 470.179C0.199478 491.575 1.81779 512.931 4.8813 534.114C114.435 -16.5132 738.57 161.815 703.088 498.056L703.084 498.052Z"
    fill="#56676E"
  />
  <path
    d="M31.2654 641.526C23.7495 109.469 512.551 245.737 512.551 245.737C177.046 196.894 -31.4219 809.093 517.019 939.665C501.77 941.163 486.304 942 470.644 942C470.241 942 469.847 941.968 469.456 941.936C469.066 941.907 468.671 941.875 468.277 941.875C447.505 941.634 426.773 940.023 406.21 937.061C400.153 936.243 394.111 935.319 388.086 934.291C368.272 930.95 348.691 926.32 329.473 920.455C327.218 919.75 325.053 918.913 322.883 918.08L322.859 918.068L322.818 918.051C321.152 917.407 319.489 916.763 317.786 916.188C301.753 910.69 286.032 904.32 270.694 897.106L267.16 895.448C263.052 893.549 258.979 891.576 254.942 889.53C237.118 880.454 219.893 870.245 203.374 858.967C202.065 858.061 200.797 857.087 199.533 856.109L199.469 856.069L199.449 856.049C198.39 855.243 197.327 854.426 196.236 853.649C180.621 842.456 165.704 830.321 151.568 817.31C150.742 816.545 149.905 815.792 149.072 815.043L148.927 814.915L148.915 814.906L148.846 814.842C147.618 813.739 146.391 812.64 145.183 811.501C95.2193 763.87 56.3301 705.844 31.2654 641.526V641.526Z"
    fill="#56676E"
  />
  <path
    d="M635.108 910.519C110.108 906.333 241.094 424.564 241.094 424.564C187.545 758.62 801.153 972.116 939.853 427.048C941.141 441.287 942.039 455.658 942.039 470.227C942.039 472.006 941.918 473.758 941.789 475.501V475.561C941.668 477.119 941.559 478.677 941.535 480.251C941.254 493.04 940.871 505.806 939.603 518.321C921.206 699.25 799.833 849.326 635.104 910.54L635.108 910.519Z"
    fill="#56676E"
  />
  <path
    d="M602.939 470.227C602.939 496.273 595.197 521.743 580.701 543.401C566.192 565.07 545.585 581.951 521.484 591.91C497.371 601.874 470.849 604.479 445.258 599.398C419.674 594.316 396.168 581.769 377.708 563.34C359.26 544.937 346.696 521.467 341.609 495.911C336.522 470.354 339.143 443.863 349.138 419.798C359.141 395.726 376.057 375.16 397.748 360.701C419.458 346.235 444.966 338.521 471.055 338.532C506.025 338.535 539.566 352.412 564.317 377.118C576.559 389.338 586.272 403.852 592.9 419.829C599.528 435.806 602.941 452.934 602.943 470.231L602.939 470.227Z"
    fill="#4E4F50"
  />
</svg>
