<?xml version="1.0" encoding="UTF-8"?>
<svg xmlns="http://www.w3.org/2000/svg" xmlns:xlink="http://www.w3.org/1999/xlink" width="50pt" height="49pt" viewBox="0 0 50 49" version="1.1">
<g id="surface1">
<path style=" stroke:none;fill-rule:nonzero;fill:rgb(100%,100%,100%);fill-opacity:1;" d="M 48.363281 15.945312 C 49.988281 40.121094 24.027344 36.800781 24.027344 36.800781 C 41.855469 37.050781 49.375 3.898438 20.445312 0.421875 C 21.941406 0.148438 23.457031 0.00390625 24.976562 0 C 35.707031 0 44.832031 6.640625 48.363281 15.945312 Z M 48.363281 15.945312 "/>
<path style=" stroke:none;fill-rule:nonzero;fill:rgb(100%,100%,100%);fill-opacity:1;" d="M 37.277344 25.90625 C 37.277344 25.90625 43.410156 0.589844 15.808594 1.722656 C 6.554688 5.300781 0.00390625 14.121094 0.00390625 24.457031 C 0.0117188 25.570312 0.0976562 26.679688 0.257812 27.78125 C 6.066406 -0.859375 39.160156 8.417969 37.28125 25.90625 Z M 37.277344 25.90625 "/>
<path style=" stroke:none;fill-rule:nonzero;fill:rgb(100%,100%,100%);fill-opacity:1;" d="M 1.65625 33.371094 C 1.257812 5.695312 27.175781 12.78125 27.175781 12.78125 C 9.386719 10.242188 -1.667969 42.085938 27.414062 48.878906 C 26.605469 48.957031 25.785156 49 24.953125 49 C 24.933594 49 24.914062 49 24.890625 48.996094 C 24.871094 48.996094 24.851562 48.992188 24.828125 48.992188 C 23.726562 48.980469 22.628906 48.898438 21.539062 48.742188 C 21.21875 48.699219 20.898438 48.652344 20.578125 48.597656 C 19.527344 48.425781 18.488281 48.183594 17.46875 47.878906 C 17.351562 47.84375 17.234375 47.800781 17.121094 47.753906 L 17.117188 47.753906 C 17.027344 47.722656 16.941406 47.6875 16.851562 47.65625 C 16 47.371094 15.167969 47.039062 14.351562 46.664062 L 14.164062 46.578125 C 13.949219 46.480469 13.730469 46.378906 13.519531 46.269531 C 12.574219 45.796875 11.660156 45.265625 10.785156 44.679688 C 10.714844 44.632812 10.648438 44.582031 10.578125 44.53125 L 10.574219 44.527344 C 10.519531 44.488281 10.460938 44.445312 10.40625 44.402344 C 9.578125 43.820312 8.785156 43.191406 8.035156 42.515625 C 7.992188 42.472656 7.949219 42.433594 7.902344 42.394531 L 7.894531 42.390625 L 7.890625 42.386719 C 7.828125 42.328125 7.761719 42.269531 7.699219 42.210938 C 5.046875 39.734375 2.988281 36.714844 1.65625 33.371094 Z M 1.65625 33.371094 "/>
<path style=" stroke:none;fill-rule:nonzero;fill:rgb(100%,100%,100%);fill-opacity:1;" d="M 33.675781 47.363281 C 5.839844 47.144531 12.785156 22.085938 12.785156 22.085938 C 9.945312 39.460938 42.480469 50.566406 49.832031 22.214844 C 49.902344 22.953125 49.949219 23.703125 49.949219 24.460938 C 49.949219 24.550781 49.941406 24.644531 49.9375 24.734375 L 49.9375 24.738281 C 49.929688 24.816406 49.921875 24.898438 49.921875 24.980469 C 49.90625 25.644531 49.886719 26.308594 49.820312 26.960938 C 48.84375 36.371094 42.410156 44.179688 33.675781 47.363281 Z M 33.675781 47.363281 "/>
<path style=" stroke:none;fill-rule:nonzero;fill:rgb(30.588235%,30.980392%,31.372549%);fill-opacity:1;" d="M 31.96875 24.460938 C 31.96875 25.816406 31.558594 27.140625 30.789062 28.265625 C 30.019531 29.394531 28.929688 30.269531 27.648438 30.789062 C 26.371094 31.308594 24.964844 31.441406 23.609375 31.179688 C 22.253906 30.914062 21.003906 30.261719 20.027344 29.304688 C 19.046875 28.347656 18.382812 27.125 18.113281 25.796875 C 17.84375 24.464844 17.980469 23.089844 18.511719 21.835938 C 19.042969 20.585938 19.9375 19.515625 21.089844 18.761719 C 22.242188 18.011719 23.59375 17.609375 24.976562 17.609375 C 26.832031 17.609375 28.609375 18.332031 29.921875 19.617188 C 30.570312 20.253906 31.085938 21.007812 31.4375 21.839844 C 31.789062 22.667969 31.96875 23.558594 31.96875 24.460938 Z M 31.96875 24.460938 "/>
</g>
</svg>
