<?xml version="1.0" encoding="UTF-8"?>
<svg xmlns="http://www.w3.org/2000/svg" xmlns:xlink="http://www.w3.org/1999/xlink" width="50pt" height="63pt" viewBox="0 0 50 63" version="1.1">
<g id="surface1">
<path style=" stroke:none;fill-rule:nonzero;fill:rgb(16.078431%,20%,27.843137%);fill-opacity:1;" d="M 39.933594 0 L 21.796875 0 L 18.292969 4.59375 L 18.292969 58.992188 L 21.796875 63 L 39.933594 63 C 41.433594 63 42.648438 61.796875 42.648438 60.3125 L 42.648438 2.6875 C 42.648438 1.203125 41.433594 0 39.933594 0 Z M 39.933594 0 "/>
<path style=" stroke:none;fill-rule:nonzero;fill:rgb(16.078431%,20%,27.843137%);fill-opacity:1;" d="M 47.257812 0 L 39.140625 0 C 40.640625 0 41.859375 1.203125 41.859375 2.6875 L 41.859375 60.3125 C 41.859375 61.796875 40.640625 63 39.140625 63 L 47.257812 63 C 48.757812 63 49.976562 61.796875 49.976562 60.3125 L 49.976562 2.6875 C 49.976562 1.203125 48.757812 0 47.257812 0 Z M 47.257812 0 "/>
<path style=" stroke:none;fill-rule:nonzero;fill:rgb(94.901961%,94.901961%,94.901961%);fill-opacity:1;" d="M 21.796875 0 L 2.742188 0 C 1.242188 0 0.0234375 1.203125 0.0234375 2.6875 L 0.0234375 60.3125 C 0.0234375 61.796875 1.242188 63 2.742188 63 L 21.796875 63 Z M 21.796875 0 "/>
<path style=" stroke:none;fill-rule:nonzero;fill:rgb(33.72549%,40.392157%,43.137255%);fill-opacity:1;" d="M 31.945312 18.511719 C 29.300781 18.511719 27.148438 16.382812 27.148438 13.765625 C 27.148438 11.148438 29.300781 9.019531 31.945312 9.019531 C 32.910156 9.019531 33.835938 9.300781 34.628906 9.832031 C 35.070312 10.125 35.183594 10.71875 34.886719 11.152344 C 34.589844 11.585938 33.992188 11.703125 33.554688 11.40625 C 33.078125 11.089844 32.523438 10.921875 31.945312 10.921875 C 30.363281 10.921875 29.074219 12.199219 29.074219 13.765625 C 29.074219 15.335938 30.363281 16.609375 31.945312 16.609375 C 32.535156 16.609375 33.027344 16.4375 33.414062 16.097656 C 33.488281 16.03125 33.558594 15.957031 33.625 15.878906 C 33.96875 15.476562 34.574219 15.421875 34.980469 15.761719 C 35.386719 16.097656 35.441406 16.699219 35.101562 17.101562 C 34.972656 17.25 34.835938 17.390625 34.691406 17.519531 C 33.953125 18.167969 33.003906 18.511719 31.945312 18.511719 Z M 31.945312 18.511719 "/>
<path style=" stroke:none;fill-rule:nonzero;fill:rgb(33.72549%,40.392157%,43.137255%);fill-opacity:1;" d="M 41.515625 18.511719 C 41.039062 18.511719 40.609375 18.214844 40.449219 17.765625 L 37.824219 10.285156 C 37.648438 9.789062 37.914062 9.246094 38.414062 9.074219 C 38.917969 8.902344 39.464844 9.164062 39.640625 9.660156 L 41.5 14.964844 L 43.273438 9.6875 C 43.441406 9.1875 43.984375 8.917969 44.488281 9.082031 C 44.992188 9.25 45.265625 9.785156 45.097656 10.285156 L 42.59375 17.746094 C 42.433594 18.203125 42.007812 18.507812 41.523438 18.511719 C 41.523438 18.511719 41.519531 18.511719 41.515625 18.511719 Z M 41.515625 18.511719 "/>
<path style=" stroke:none;fill-rule:nonzero;fill:rgb(33.72549%,40.392157%,43.137255%);fill-opacity:1;" d="M 10.921875 20.355469 C 14.601562 20.355469 17.582031 17.40625 17.582031 13.765625 C 17.582031 10.128906 14.601562 7.175781 10.921875 7.175781 C 7.242188 7.175781 4.261719 10.128906 4.261719 13.765625 C 4.261719 17.40625 7.242188 20.355469 10.921875 20.355469 Z M 10.921875 20.355469 "/>
<path style=" stroke:none;fill-rule:nonzero;fill:rgb(94.901961%,94.901961%,94.901961%);fill-opacity:1;" d="M 10.921875 15.320312 C 8.800781 15.320312 7.007812 16.71875 6.433594 18.636719 C 7.621094 19.703125 9.195312 20.355469 10.921875 20.355469 C 12.652344 20.355469 14.226562 19.703125 15.410156 18.636719 C 14.835938 16.71875 13.046875 15.320312 10.921875 15.320312 Z M 10.921875 15.320312 "/>
<path style=" stroke:none;fill-rule:nonzero;fill:rgb(94.901961%,94.901961%,94.901961%);fill-opacity:1;" d="M 10.921875 15.90625 C 12.222656 15.90625 13.277344 14.863281 13.277344 13.574219 C 13.277344 12.289062 12.222656 11.242188 10.921875 11.242188 C 9.621094 11.242188 8.566406 12.289062 8.566406 13.574219 C 8.566406 14.863281 9.621094 15.90625 10.921875 15.90625 Z M 10.921875 15.90625 "/>
<path style=" stroke:none;fill-rule:nonzero;fill:rgb(33.72549%,40.392157%,43.137255%);fill-opacity:1;" d="M 16.492188 34.253906 L 5.351562 34.253906 C 4.738281 34.253906 4.238281 33.757812 4.238281 33.148438 L 4.238281 30.433594 C 4.238281 29.824219 4.738281 29.332031 5.351562 29.332031 L 16.492188 29.332031 C 17.109375 29.332031 17.605469 29.824219 17.605469 30.433594 L 17.605469 33.148438 C 17.605469 33.757812 17.109375 34.253906 16.492188 34.253906 Z M 16.492188 34.253906 "/>
<path style=" stroke:none;fill-rule:nonzero;fill:rgb(33.72549%,40.392157%,43.137255%);fill-opacity:1;" d="M 16.492188 44.332031 L 5.351562 44.332031 C 4.738281 44.332031 4.238281 43.839844 4.238281 43.230469 L 4.238281 40.511719 C 4.238281 39.902344 4.738281 39.410156 5.351562 39.410156 L 16.492188 39.410156 C 17.109375 39.410156 17.605469 39.902344 17.605469 40.511719 L 17.605469 43.230469 C 17.605469 43.839844 17.109375 44.332031 16.492188 44.332031 Z M 16.492188 44.332031 "/>
<path style=" stroke:none;fill-rule:nonzero;fill:rgb(33.72549%,40.392157%,43.137255%);fill-opacity:1;" d="M 16.492188 54.410156 L 5.351562 54.410156 C 4.738281 54.410156 4.238281 53.917969 4.238281 53.308594 L 4.238281 50.589844 C 4.238281 49.980469 4.738281 49.488281 5.351562 49.488281 L 16.492188 49.488281 C 17.109375 49.488281 17.605469 49.980469 17.605469 50.589844 L 17.605469 53.308594 C 17.605469 53.917969 17.109375 54.410156 16.492188 54.410156 Z M 16.492188 54.410156 "/>
<path style=" stroke:none;fill-rule:nonzero;fill:rgb(94.901961%,94.901961%,94.901961%);fill-opacity:1;" d="M 44.851562 31.871094 L 26.820312 31.871094 C 26.289062 31.871094 25.859375 31.445312 25.859375 30.921875 C 25.859375 30.394531 26.289062 29.96875 26.820312 29.96875 L 44.851562 29.96875 C 45.382812 29.96875 45.8125 30.394531 45.8125 30.921875 C 45.8125 31.445312 45.382812 31.871094 44.851562 31.871094 Z M 44.851562 31.871094 "/>
<path style=" stroke:none;fill-rule:nonzero;fill:rgb(94.901961%,94.901961%,94.901961%);fill-opacity:1;" d="M 35.835938 37.707031 L 26.820312 37.707031 C 26.289062 37.707031 25.859375 37.28125 25.859375 36.753906 C 25.859375 36.230469 26.289062 35.804688 26.820312 35.804688 L 35.835938 35.804688 C 36.367188 35.804688 36.796875 36.230469 36.796875 36.753906 C 36.796875 37.28125 36.367188 37.707031 35.835938 37.707031 Z M 35.835938 37.707031 "/>
<path style=" stroke:none;fill-rule:nonzero;fill:rgb(94.901961%,94.901961%,94.901961%);fill-opacity:1;" d="M 44.851562 43.539062 L 26.820312 43.539062 C 26.289062 43.539062 25.859375 43.113281 25.859375 42.589844 C 25.859375 42.0625 26.289062 41.636719 26.820312 41.636719 L 44.851562 41.636719 C 45.382812 41.636719 45.8125 42.0625 45.8125 42.589844 C 45.8125 43.113281 45.382812 43.539062 44.851562 43.539062 Z M 44.851562 43.539062 "/>
<path style=" stroke:none;fill-rule:nonzero;fill:rgb(94.901961%,94.901961%,94.901961%);fill-opacity:1;" d="M 44.851562 49.375 L 26.820312 49.375 C 26.289062 49.375 25.859375 48.949219 25.859375 48.421875 C 25.859375 47.898438 26.289062 47.472656 26.820312 47.472656 L 44.851562 47.472656 C 45.382812 47.472656 45.8125 47.898438 45.8125 48.421875 C 45.8125 48.949219 45.382812 49.375 44.851562 49.375 Z M 44.851562 49.375 "/>
<path style=" stroke:none;fill-rule:nonzero;fill:rgb(94.901961%,94.901961%,94.901961%);fill-opacity:1;" d="M 35.835938 55.363281 L 26.820312 55.363281 C 26.289062 55.363281 25.859375 54.9375 25.859375 54.410156 C 25.859375 53.886719 26.289062 53.460938 26.820312 53.460938 L 35.835938 53.460938 C 36.367188 53.460938 36.796875 53.886719 36.796875 54.410156 C 36.796875 54.9375 36.367188 55.363281 35.835938 55.363281 Z M 35.835938 55.363281 "/>
<path style=" stroke:none;fill-rule:nonzero;fill:rgb(94.901961%,94.901961%,94.901961%);fill-opacity:1;" d="M 44.851562 26.039062 L 26.820312 26.039062 C 26.289062 26.039062 25.859375 25.613281 25.859375 25.089844 C 25.859375 24.5625 26.289062 24.136719 26.820312 24.136719 L 44.851562 24.136719 C 45.382812 24.136719 45.8125 24.5625 45.8125 25.089844 C 45.8125 25.613281 45.382812 26.039062 44.851562 26.039062 Z M 44.851562 26.039062 "/>
</g>
</svg>
