<?xml version="1.0" encoding="UTF-8"?>
<svg xmlns="http://www.w3.org/2000/svg" xmlns:xlink="http://www.w3.org/1999/xlink" width="50pt" height="50pt" viewBox="0 0 50 50" version="1.1">
<g id="surface1">
<path style=" stroke:none;fill-rule:nonzero;fill:rgb(56.470588%,64.313725%,68.235294%);fill-opacity:1;" d="M 44.269531 22.917969 L 30.730469 22.917969 C 27.570312 22.917969 25 25.484375 25 28.644531 L 25 44.269531 C 25 47.429688 27.570312 50 30.730469 50 L 44.269531 50 C 47.429688 50 50 47.429688 50 44.269531 L 50 28.644531 C 50 25.484375 47.429688 22.917969 44.269531 22.917969 Z M 44.269531 22.917969 "/>
<path style=" stroke:none;fill-rule:nonzero;fill:rgb(94.901961%,94.901961%,94.901961%);fill-opacity:1;" d="M 42.1875 44.269531 L 32.8125 44.269531 C 31.949219 44.269531 31.25 43.570312 31.25 42.707031 C 31.25 41.84375 31.949219 41.144531 32.8125 41.144531 L 42.1875 41.144531 C 43.050781 41.144531 43.75 41.84375 43.75 42.707031 C 43.75 43.570312 43.050781 44.269531 42.1875 44.269531 Z M 42.1875 44.269531 "/>
<path style=" stroke:none;fill-rule:nonzero;fill:rgb(94.901961%,94.901961%,94.901961%);fill-opacity:1;" d="M 42.1875 38.019531 L 32.8125 38.019531 C 31.949219 38.019531 31.25 37.320312 31.25 36.457031 C 31.25 35.59375 31.949219 34.894531 32.8125 34.894531 L 42.1875 34.894531 C 43.050781 34.894531 43.75 35.59375 43.75 36.457031 C 43.75 37.320312 43.050781 38.019531 42.1875 38.019531 Z M 42.1875 38.019531 "/>
<path style=" stroke:none;fill-rule:nonzero;fill:rgb(94.901961%,94.901961%,94.901961%);fill-opacity:1;" d="M 42.1875 31.769531 L 32.8125 31.769531 C 31.949219 31.769531 31.25 31.070312 31.25 30.207031 C 31.25 29.34375 31.949219 28.644531 32.8125 28.644531 L 42.1875 28.644531 C 43.050781 28.644531 43.75 29.34375 43.75 30.207031 C 43.75 31.070312 43.050781 31.769531 42.1875 31.769531 Z M 42.1875 31.769531 "/>
<path style=" stroke:none;fill-rule:nonzero;fill:rgb(33.72549%,40.392157%,43.137255%);fill-opacity:1;" d="M 24.480469 0 L 13.019531 0 C 11.585938 0 10.417969 1.167969 10.417969 2.605469 L 10.417969 7.8125 C 10.417969 9.246094 11.585938 10.417969 13.019531 10.417969 L 24.480469 10.417969 C 25.914062 10.417969 27.082031 9.246094 27.082031 7.8125 L 27.082031 2.605469 C 27.082031 1.167969 25.914062 0 24.480469 0 Z M 24.480469 0 "/>
<path style=" stroke:none;fill-rule:nonzero;fill:rgb(20.392157%,78.823529%,41.568627%);fill-opacity:1;" d="M 21.875 28.644531 C 21.875 23.765625 25.847656 19.792969 30.730469 19.792969 L 37.5 19.792969 L 37.5 9.894531 C 37.5 6.734375 34.929688 4.167969 31.769531 4.167969 L 30.207031 4.167969 L 30.207031 7.8125 C 30.207031 10.972656 27.640625 13.542969 24.480469 13.542969 L 13.019531 13.542969 C 9.859375 13.542969 7.292969 10.972656 7.292969 7.8125 L 7.292969 4.167969 L 5.730469 4.167969 C 2.570312 4.167969 0 6.734375 0 9.894531 L 0 35.9375 C 0 39.097656 2.570312 41.667969 5.730469 41.667969 L 21.875 41.667969 Z M 21.875 28.644531 "/>
</g>
</svg>
