<?xml version="1.0" encoding="UTF-8"?>
<svg xmlns="http://www.w3.org/2000/svg" xmlns:xlink="http://www.w3.org/1999/xlink" width="50pt" height="38pt" viewBox="0 0 50 38" version="1.1">
<g id="surface1">
<path style=" stroke:none;fill-rule:nonzero;fill:rgb(81.176471%,39.215686%,60.392157%);fill-opacity:1;" d="M 43.027344 21.832031 C 41.28125 21.839844 39.765625 22.265625 38.496094 22.898438 C 38.027344 21.957031 37.558594 21.136719 37.480469 20.523438 C 37.394531 19.8125 37.285156 19.375 37.394531 18.523438 C 37.5 17.675781 37.988281 16.464844 37.988281 16.367188 C 37.976562 16.277344 37.878906 15.84375 36.875 15.832031 C 35.871094 15.824219 35 16.03125 34.902344 16.296875 C 34.804688 16.566406 34.609375 17.179688 34.484375 17.8125 C 34.304688 18.742188 32.46875 22.039062 31.425781 23.769531 C 31.085938 23.097656 30.789062 22.503906 30.730469 22.027344 C 30.644531 21.316406 30.535156 20.878906 30.644531 20.027344 C 30.753906 19.179688 31.242188 17.972656 31.242188 17.871094 C 31.230469 17.78125 31.132812 17.347656 30.128906 17.335938 C 29.121094 17.328125 28.253906 17.535156 28.15625 17.800781 C 28.058594 18.070312 27.949219 18.703125 27.734375 19.316406 C 27.527344 19.929688 25.085938 25.433594 24.453125 26.867188 C 24.132812 27.597656 23.847656 28.183594 23.640625 28.578125 C 23.4375 28.976562 23.632812 28.609375 23.613281 28.648438 C 23.4375 28.984375 23.339844 29.171875 23.339844 29.171875 L 23.339844 29.183594 C 23.203125 29.429688 23.054688 29.667969 22.988281 29.667969 C 22.9375 29.667969 22.839844 29.003906 23.007812 28.09375 C 23.367188 26.183594 24.246094 23.207031 24.238281 23.097656 C 24.238281 23.046875 24.402344 22.523438 23.671875 22.253906 C 22.957031 21.988281 22.703125 22.433594 22.644531 22.433594 C 22.585938 22.433594 22.539062 22.59375 22.539062 22.59375 C 22.539062 22.59375 23.328125 19.238281 21.023438 19.238281 C 19.578125 19.238281 17.585938 20.832031 16.601562 22.285156 C 15.976562 22.632812 14.648438 23.363281 13.242188 24.144531 C 12.703125 24.441406 12.148438 24.757812 11.621094 25.046875 L 11.515625 24.925781 C 8.722656 21.910156 3.554688 19.773438 3.769531 15.714844 C 3.847656 14.238281 4.355469 10.351562 13.691406 5.640625 C 21.339844 1.78125 27.460938 2.839844 28.527344 5.195312 C 30.039062 8.558594 25.253906 14.8125 17.304688 15.714844 C 14.277344 16.0625 12.6875 14.875 12.285156 14.429688 C 11.867188 13.964844 11.808594 13.941406 11.652344 14.03125 C 11.398438 14.171875 11.554688 14.585938 11.652344 14.832031 C 11.886719 15.457031 12.863281 16.566406 14.523438 17.121094 C 15.976562 17.605469 19.53125 17.871094 23.828125 16.191406 C 28.644531 14.300781 32.402344 9.054688 31.300781 4.671875 C 30.175781 0.207031 22.871094 -1.257812 15.96875 1.226562 C 11.855469 2.710938 7.402344 5.027344 4.199219 8.066406 C 0.390625 11.667969 -0.214844 14.8125 0.0390625 16.121094 C 0.929688 20.78125 7.265625 23.820312 9.804688 26.066406 C 9.679688 26.136719 9.5625 26.203125 9.453125 26.261719 C 8.183594 26.898438 3.351562 29.460938 2.140625 32.171875 C 0.773438 35.238281 2.355469 37.445312 3.410156 37.742188 C 6.671875 38.664062 10.007812 37.011719 11.816406 34.289062 C 13.613281 31.566406 13.398438 28.035156 12.566406 26.421875 L 12.539062 26.363281 L 13.535156 25.769531 C 14.179688 25.382812 14.8125 25.027344 15.371094 24.71875 C 15.058594 25.582031 14.832031 26.601562 14.714844 28.085938 C 14.578125 29.824219 15.28125 32.082031 16.210938 32.972656 C 16.621094 33.359375 17.109375 33.367188 17.414062 33.367188 C 18.484375 33.367188 18.976562 32.46875 19.511719 31.390625 C 20.175781 30.074219 20.761719 28.550781 20.761719 28.550781 C 20.761719 28.550781 20.03125 32.675781 22.03125 32.675781 C 22.765625 32.675781 23.496094 31.714844 23.828125 31.222656 L 23.828125 31.230469 C 23.828125 31.230469 23.847656 31.203125 23.886719 31.132812 C 23.925781 31.070312 23.964844 31.007812 24.003906 30.945312 L 24.003906 30.925781 C 24.296875 30.410156 24.953125 29.230469 25.929688 27.28125 C 27.1875 24.769531 28.398438 21.621094 28.398438 21.621094 C 28.398438 21.621094 28.515625 22.394531 28.875 23.660156 C 29.089844 24.414062 29.558594 25.234375 29.921875 26.035156 C 29.628906 26.453125 29.453125 26.6875 29.453125 26.6875 L 29.460938 26.699219 C 29.226562 27.015625 28.964844 27.351562 28.691406 27.6875 C 27.695312 28.894531 26.503906 30.273438 26.347656 30.667969 C 26.164062 31.132812 26.203125 31.480469 26.5625 31.757812 C 26.828125 31.953125 27.296875 31.992188 27.792969 31.953125 C 28.691406 31.894531 29.316406 31.667969 29.628906 31.527344 C 30.117188 31.351562 30.675781 31.082031 31.210938 30.6875 C 32.1875 29.953125 32.785156 28.914062 32.726562 27.53125 C 32.695312 26.769531 32.453125 26.015625 32.148438 25.304688 C 32.234375 25.175781 32.324219 25.046875 32.414062 24.90625 C 33.957031 22.621094 35.148438 20.109375 35.148438 20.109375 C 35.148438 20.109375 35.265625 20.878906 35.625 22.148438 C 35.808594 22.789062 36.179688 23.492188 36.515625 24.1875 C 35.070312 25.382812 34.160156 26.769531 33.847656 27.679688 C 33.273438 29.359375 33.71875 30.125 34.570312 30.300781 C 34.949219 30.378906 35.5 30.203125 35.90625 30.023438 C 36.414062 29.855469 37.03125 29.570312 37.597656 29.144531 C 38.574219 28.410156 39.511719 27.390625 39.460938 26.015625 C 39.433594 25.382812 39.265625 24.757812 39.042969 24.164062 C 40.273438 23.652344 41.863281 23.355469 43.886719 23.601562 C 48.234375 24.117188 49.09375 26.867188 48.925781 28.015625 C 48.761719 29.164062 47.851562 29.796875 47.546875 29.996094 C 47.246094 30.183594 47.148438 30.253906 47.179688 30.390625 C 47.21875 30.597656 47.351562 30.589844 47.617188 30.550781 C 47.976562 30.488281 49.902344 29.609375 49.980469 27.492188 C 50.097656 24.769531 47.546875 21.800781 43.027344 21.832031 Z M 9.511719 33.28125 C 8.078125 34.871094 6.054688 35.476562 5.195312 34.960938 C 4.265625 34.417969 4.628906 32.074219 6.398438 30.378906 C 7.46875 29.351562 8.867188 28.402344 9.785156 27.816406 C 9.992188 27.6875 10.304688 27.5 10.671875 27.273438 C 10.734375 27.234375 10.773438 27.214844 10.773438 27.214844 C 10.839844 27.175781 10.917969 27.125 10.996094 27.074219 C 11.648438 29.488281 11.023438 31.605469 9.511719 33.28125 Z M 20.007812 26.046875 C 19.511719 27.28125 18.457031 30.460938 17.820312 30.28125 C 17.273438 30.132812 16.945312 27.726562 17.714844 25.351562 C 18.105469 24.15625 18.933594 22.730469 19.421875 22.175781 C 20.214844 21.285156 21.074219 20.988281 21.289062 21.355469 C 21.542969 21.832031 20.320312 25.273438 20.007812 26.046875 Z M 28.671875 30.242188 C 28.457031 30.351562 28.261719 30.429688 28.171875 30.371094 C 28.105469 30.332031 28.261719 30.183594 28.261719 30.183594 C 28.261719 30.183594 29.34375 29.003906 29.773438 28.460938 C 30.019531 28.144531 30.3125 27.777344 30.625 27.363281 L 30.625 27.480469 C 30.625 28.90625 29.277344 29.855469 28.671875 30.242188 Z M 35.351562 28.699219 C 35.195312 28.578125 35.214844 28.214844 35.742188 27.066406 C 35.945312 26.609375 36.414062 25.847656 37.226562 25.125 C 37.324219 25.421875 37.382812 25.710938 37.371094 25.976562 C 37.363281 27.757812 36.113281 28.421875 35.351562 28.699219 Z M 35.351562 28.699219 "/>
</g>
</svg>
