<?xml version="1.0" encoding="UTF-8"?>
<svg xmlns="http://www.w3.org/2000/svg" xmlns:xlink="http://www.w3.org/1999/xlink" width="50pt" height="50pt" viewBox="0 0 50 50" version="1.1">
<g id="surface1">
<path style=" stroke:none;fill-rule:nonzero;fill:rgb(0%,0%,0%);fill-opacity:1;" d="M 0.222656 0.257812 C 0.0585938 0.457031 0.0820312 0.816406 0.300781 1.613281 C 0.480469 2.210938 1.648438 6.890625 2.933594 12.050781 C 5.84375 23.824219 11.746094 47.589844 12.089844 48.90625 C 12.25 49.480469 12.46875 49.921875 12.652344 49.960938 C 12.832031 49.980469 15.664062 47.449219 19.378906 43.882812 C 29.679688 34.0625 46.324219 18.1875 48.253906 16.355469 C 49.21875 15.417969 50 14.542969 50 14.402344 C 50 14.023438 49.777344 13.945312 42.371094 11.832031 C 38.675781 10.796875 33.292969 9.261719 30.421875 8.425781 C 27.550781 7.609375 24.941406 6.851562 24.597656 6.773438 C 24.277344 6.691406 18.773438 5.140625 12.410156 3.308594 C 6.023438 1.492188 0.722656 0 0.621094 0 C 0.523438 0 0.363281 0.121094 0.222656 0.257812 Z M 2.972656 1.773438 C 6.484375 2.75 11.546875 4.242188 11.625 4.304688 C 11.746094 4.421875 4.398438 11.453125 4.136719 11.453125 C 3.996094 11.453125 2.007812 4.164062 1.425781 1.433594 C 1.40625 1.355469 1.625 1.394531 2.972656 1.773438 Z M 19.398438 6.453125 C 21.828125 7.132812 23.753906 7.789062 23.695312 7.886719 C 23.414062 8.386719 16.386719 14.921875 16.265625 14.800781 C 16.125 14.640625 13.855469 5.597656 13.855469 5.179688 C 13.855469 4.878906 14.035156 4.921875 19.398438 6.453125 Z M 13.957031 10.539062 C 14.597656 13.066406 15.082031 15.179688 15.039062 15.238281 C 15 15.277344 12.710938 14.660156 9.960938 13.882812 L 4.960938 12.449219 L 8.753906 8.804688 C 11.925781 5.738281 12.550781 5.21875 12.671875 5.539062 C 12.75 5.738281 13.332031 7.988281 13.957031 10.539062 Z M 29.878906 9.441406 C 31.949219 10.039062 34.175781 10.675781 34.839844 10.855469 L 36.042969 11.195312 L 32.230469 14.839844 C 30.140625 16.851562 28.394531 18.464844 28.351562 18.425781 C 28.273438 18.347656 25.902344 8.804688 25.902344 8.546875 C 25.902344 8.285156 25.761719 8.265625 29.878906 9.441406 Z M 26.023438 13.863281 C 26.648438 16.433594 27.128906 18.566406 27.089844 18.625 C 27.007812 18.707031 17.289062 16.015625 17.148438 15.875 C 17.109375 15.855469 18.773438 14.222656 20.824219 12.269531 C 23.394531 9.800781 24.597656 8.785156 24.699219 8.964844 C 24.777344 9.105469 25.382812 11.316406 26.023438 13.863281 Z M 43.234375 13.265625 C 45.804688 13.984375 47.953125 14.640625 48.050781 14.722656 C 48.132812 14.800781 46.484375 16.515625 44.378906 18.507812 C 42.007812 20.777344 40.523438 22.050781 40.460938 21.871094 C 40.402344 21.671875 38.695312 14.839844 38.050781 12.171875 C 37.953125 11.792969 37.992188 11.734375 38.253906 11.832031 C 38.433594 11.890625 40.683594 12.550781 43.234375 13.265625 Z M 38.09375 17.070312 C 38.773438 19.800781 39.238281 22.050781 39.136719 22.070312 C 38.957031 22.152344 29.519531 19.542969 29.316406 19.363281 C 29.21875 19.28125 36.546875 12.171875 36.746094 12.152344 C 36.808594 12.152344 37.410156 14.363281 38.09375 17.070312 Z M 8.632812 14.640625 C 10.242188 15.121094 12.25 15.695312 13.113281 15.9375 C 13.957031 16.195312 14.660156 16.453125 14.660156 16.515625 C 14.660156 16.8125 7.1875 23.746094 7.046875 23.585938 C 6.90625 23.425781 6.367188 21.375 4.699219 14.582031 L 4.457031 13.527344 L 5.082031 13.664062 C 5.441406 13.746094 7.027344 14.183594 8.632812 14.640625 Z M 22.167969 18.484375 L 26.949219 19.839844 L 23.234375 23.40625 C 21.203125 25.359375 19.457031 26.933594 19.378906 26.933594 C 19.277344 26.914062 18.65625 24.703125 17.992188 22.011719 C 16.988281 18.046875 16.828125 17.132812 17.066406 17.132812 C 17.230469 17.132812 19.519531 17.75 22.167969 18.484375 Z M 16.886719 22.25 C 17.53125 24.859375 18.074219 27.132812 18.074219 27.3125 C 18.074219 27.589844 17.207031 27.390625 13.03125 26.195312 C 10.261719 25.398438 7.972656 24.703125 7.953125 24.660156 C 7.871094 24.5625 15.523438 17.3125 15.621094 17.410156 C 15.664062 17.46875 16.246094 19.640625 16.886719 22.25 Z M 34.417969 22.03125 L 39.238281 23.386719 L 35.421875 27.03125 C 33.332031 29.023438 31.566406 30.675781 31.507812 30.675781 C 31.386719 30.675781 28.914062 21.15625 28.914062 20.695312 C 28.914062 20.578125 29.078125 20.519531 29.277344 20.578125 C 29.457031 20.617188 31.789062 21.273438 34.417969 22.03125 Z M 27.910156 21.253906 C 27.910156 21.453125 28.453125 23.726562 29.097656 26.292969 C 29.757812 28.863281 30.261719 30.996094 30.242188 31.035156 C 30.160156 31.09375 20.222656 28.265625 20.082031 28.148438 C 19.941406 28.027344 27.371094 20.9375 27.671875 20.9375 C 27.792969 20.917969 27.910156 21.074219 27.910156 21.253906 Z M 12.570312 27.210938 C 15.101562 27.929688 17.289062 28.546875 17.449219 28.605469 C 17.609375 28.644531 16.304688 30.058594 14.054688 32.230469 C 12.046875 34.164062 10.320312 35.777344 10.242188 35.816406 C 10.160156 35.855469 10.039062 35.738281 9.980469 35.578125 C 9.820312 35.160156 7.628906 26.316406 7.628906 26.074219 C 7.628906 25.796875 7.628906 25.796875 12.570312 27.210938 Z M 25.222656 30.835938 C 29.195312 31.972656 29.839844 32.210938 29.660156 32.46875 C 29.378906 32.867188 22.429688 39.460938 22.371094 39.382812 C 22.269531 39.304688 19.878906 29.722656 19.878906 29.460938 C 19.878906 29.34375 20.019531 29.304688 20.222656 29.363281 C 20.402344 29.441406 22.652344 30.097656 25.222656 30.835938 Z M 19.960938 34.621094 C 20.601562 37.171875 21.085938 39.34375 21.042969 39.421875 C 21.003906 39.503906 18.753906 38.945312 16.023438 38.167969 C 13.292969 37.390625 11.0625 36.714844 11.105469 36.652344 C 11.125 36.59375 12.8125 34.960938 14.839844 33.007812 C 17.371094 30.578125 18.59375 29.542969 18.695312 29.722656 C 18.753906 29.859375 19.335938 32.070312 19.960938 34.621094 Z M 15.824219 39.261719 C 18.554688 40.039062 20.824219 40.71875 20.863281 40.757812 C 20.964844 40.855469 21.023438 40.796875 16.386719 45.21875 C 13.351562 48.109375 13.171875 48.246094 13.011719 47.789062 C 12.46875 46.117188 10.523438 37.847656 10.683594 37.847656 C 10.804688 37.847656 13.113281 38.484375 15.824219 39.261719 Z M 15.824219 39.261719 "/>
</g>
</svg>
