<svg width="50" height="50" viewBox="0 0 50 50" fill="none" xmlns="http://www.w3.org/2000/svg">
<path d="M0 25V0H50V50H0" fill="#007ACC"/>
<path d="M10.9625 25.0875V27.125H17.4625V45.6251H22.075V27.125H28.5751V25.125C28.5751 24 28.5751 23.0875 28.5251 23.0625C28.5251 23.025 24.5625 23.0125 19.75 23.0125L11 23.05V25.1L10.9625 25.0875V25.0875ZM40.1751 23C41.4501 23.3 42.4251 23.875 43.3001 24.7875C43.7626 25.2875 44.4501 26.1625 44.5001 26.3875C44.5001 26.4625 42.3376 27.925 41.0251 28.7375C40.9751 28.775 40.7751 28.5625 40.5751 28.2375C39.9251 27.3125 39.2626 26.9125 38.2251 26.8375C36.7251 26.7375 35.7251 27.525 35.7251 28.8375C35.7251 29.2375 35.8001 29.4625 35.9501 29.7875C36.2876 30.475 36.9126 30.8875 38.8501 31.7375C42.4251 33.275 43.9751 34.2875 44.9126 35.7376C45.9751 37.3626 46.2126 39.9126 45.5001 41.8251C44.7001 43.9126 42.7501 45.3251 39.9626 45.7876C39.0876 45.9376 37.0876 45.9126 36.1501 45.7501C34.1501 45.3751 32.2376 44.3751 31.0626 43.0876C30.6001 42.5876 29.7126 41.2501 29.7626 41.1626L30.2376 40.8626L32.1126 39.7751L33.5251 38.9501L33.8501 39.3876C34.2626 40.0376 35.1876 40.9126 35.7251 41.2126C37.3501 42.0501 39.5251 41.9376 40.6001 40.9626C41.0626 40.5376 41.2626 40.0876 41.2626 39.4626C41.2626 38.8876 41.1751 38.6251 40.8876 38.1876C40.4876 37.6376 39.6876 37.1876 37.4376 36.1876C34.8501 35.0875 33.7501 34.3875 32.7251 33.3125C32.1376 32.6625 31.6001 31.65 31.3501 30.8125C31.1626 30.0875 31.1001 28.3125 31.2751 27.6C31.8126 25.1 33.7001 23.35 36.4001 22.85C37.2751 22.675 39.3376 22.75 40.2001 22.975L40.1751 23V23Z" fill="white"/>
</svg>
