<svg
    width="1520"
    height="450"
    viewBox="0 0 1520 450"
    fill="none"
    xmlns="http://www.w3.org/2000/svg"
>

    <path
        stroke="#34C96A"
        d="M22.8039 450.865L172.876 340.674
M173.271 340.587L336.349 373.644
M336.214 373.635L476.282 363.618
M476.202 363.631L606.264 332.577
M606.107 332.644L675.141 287.566
M675.206 287.53L789.26 235.44
M789.62 235.418L903.675 271.481
M903.304 271.509L1022.36 213.408
M1022.33 213.426L1085.36 176.362
M1085.68 176.298L1263.77 202.343
M1263.83 202.354L1414.89 241.422
M1414.74 241.407L1504.78 235.462
M22.6775 451L97.7136 332.796
M98.1888 332.566L173.225 340.58
M172.686 340.96L201.7 221.754
M202.561 221.54L336.626 373.804
M335.78 374.307L301.764 281.146
M302.449 280.522L476.533 363.666
M475.832 364.001L495.841 280.857
M496.542 280.521L606.594 332.611
M605.895 332.942L640.397 197.33
M640.397 197.83L675.884 287.816
M674.933 287.845L691.942 229.745
M692.453 229.386L789.5 235.396
M789.302 235.424L857.335 211.383
M857.898 211.55L903.921 271.654
M903.095 271.699L992.138 124.444
M992.81 124.267L1085.85 176.357
M1085.56 176.296L1195.59 164.166
M1195.9 164.336L1263.94 202.402
M1263.38 202.455L1349.42 130.331
M1350.17 130.46L1415.2 240.65
M1414.47 241.508L1515.52 164.375
M23.1724 321.549L98.2085 332.568
M97.6908 332.836L135.709 258.708
M135.909 258.499L201.941 221.435
M202.44 221.44L302.488 280.542
M302.274 280.475L389.316 287.487
M389.243 287.486L496.294 280.474
M496.079 280.539L641.149 197.396
M641.663 197.406L692.688 229.461
M692.142 229.471L732.161 202.424
M732.692 202.405L789.72 235.462
M789.659 183.343L857.691 211.392
M857.14 211.508L903.162 163.425
M903.318 164.316L992.361 124.247
M992.075 124.798L980.069 62.691
M980.929 62.2574L1085.98 176.454
M1085.13 176.664L1092.13 150.619
M1092.68 150.253L1195.73 164.277
M1195.54 163.286L1246.57 150.263
M1247.17 150.594L1264.18 202.684
M1263.2 200.784L1272.2 113.634
M1272.81 113.196L1349.85 130.226
M1349.84 130.224L1515.92 163.281
M22.8561 321.607L135.911 258.498
M135.693 259.13L116.684 214.052
M117.192 213.359L202.233 221.373
M201.976 221.417L242.996 202.384
M243.605 202.537L302.633 280.672
M301.959 280.556L345.98 251.506
M346.35 251.432L496.423 280.482
M495.973 280.62L591.019 185.455
M591.492 185.323L640.516 197.344
M640.424 197.331L732.468 202.339
M732.035 202.547L760.048 163.479
M760.739 164.361L789.753 184.395
M789.164 183.408L823.181 157.363
M823.529 157.262L903.567 164.274
M903.076 163.547L928.088 113.461
M928.185 113.327L980.21 62.239
M980.87 62.2029L1092.92 150.355
M1092.4 150.297L1134.42 130.263
M1134.87 130.277L1195.9 164.335
M1195.27 164.09L1125.24 78.9428
M1125.89 78.194L1246.95 150.318
M1246.28 150.462L1272.29 113.397
M1272.54 114.213L1333.57 93.1767
M1334.19 93.4516L1350.2 130.516
M1349.62 130.229L1519.7 87.1544
M22.9875 284.493L136.042 258.448
M136.07 259.43L1.00507 236.39
M1 234.402L117.056 213.365
M117.102 213.359L243.163 202.34
M242.955 202.405L287.977 176.36
M288.451 176.346L496.552 280.526
M495.874 281.186L465.86 217.076
M466.193 216.377L591.253 185.324
M590.986 185.492L641.01 124.386
M641.722 124.323L732.766 202.458
M731.948 202.924L720.943 138.813
M721.713 138.311L760.732 164.357
M760.391 164.276L823.422 156.263
M823.296 156.296L928.345 113.221
M928.619 113.177L823.569 131.208
M823.286 130.255L980.361 62.137
M980.615 62.0988L1125.68 78.1265
M1125.67 78.1248L1333.77 93.1507
M1333.69 93.1512L1414.27 85.6365
M1414.77 85.1356L1519.32 87.6399
M301.738 281.041L287.731 176.861
M288.337 176.305L466.423 216.374
M641.483 124.21L721.522 138.234
M721.397 138.229L823.446 130.216
M823.144 129.347L960.21 1.12479
M960.671 1.0047L1333.85 93.164
M1333.48 93.2148L1414.52 47.1351
M1414.95 47.1026L1520 87.1719
M168.706 341.265L135.69 259.123
M475.989 364.495L388.947 288.364
M388.955 288.37L345.934 252.308
M345.858 252.227L287.83 176.096
M787.968 235.395L759.454 164.272
M641.411 124.203L823.499 129.212
M823.722 130.153L760.692 164.212
M760.311 164.293L929.036 113.184
M857.08 212.125L823.064 159.033
M928.62 113.191L992.651 124.21
M992.066 125.205L1023.05 213.695
M980.085 62.7527L960.076 1.64706
M960.762 1.03708L1125.84 78.1704
M1126.12 78.5373L1134.13 130.714
M1092.11 150.248L1125.18 78.4083
M1125.75 78.1371L1272.82 113.198
M960.65 1L1263.8 62.1056
M1263.9 62.1386L1333.93 93.1923
M1263.65 62.0982L1414.72 47.0722
M1415.05 86.0513L1350.02 130.127
M904 270L903 164
M790 237L790 183
M1415 47L1415 85
M640 197L641 125"
    >

        <animate
            id="wavestart"
            attributeName="d"
            dur="60s"
            stroke="#34C96A"
            begin="0s;waveend.end"
            from="M22.8039 450.865L172.876 340.674
M173.271 340.587L336.349 373.644
M336.214 373.635L476.282 363.618
M476.202 363.631L606.264 332.577
M606.107 332.644L675.141 287.566
M675.206 287.53L789.26 235.44
M789.62 235.418L903.675 271.481
M903.304 271.509L1022.36 213.408
M1022.33 213.426L1085.36 176.362
M1085.68 176.298L1263.77 202.343
M1263.83 202.354L1414.89 241.422
M1414.74 241.407L1504.78 235.462
M22.6775 451L97.7136 332.796
M98.1888 332.566L173.225 340.58
M172.686 340.96L201.7 221.754
M202.561 221.54L336.626 373.804
M335.78 374.307L301.764 281.146
M302.449 280.522L476.533 363.666
M475.832 364.001L495.841 280.857
M496.542 280.521L606.594 332.611
M605.895 332.942L640.397 197.33
M640.397 197.83L675.884 287.816
M674.933 287.845L691.942 229.745
M692.453 229.386L789.5 235.396
M789.302 235.424L857.335 211.383
M857.898 211.55L903.921 271.654
M903.095 271.699L992.138 124.444
M992.81 124.267L1085.85 176.357
M1085.56 176.296L1195.59 164.166
M1195.9 164.336L1263.94 202.402
M1263.38 202.455L1349.42 130.331
M1350.17 130.46L1415.2 240.65
M1414.47 241.508L1515.52 164.375
M23.1724 321.549L98.2085 332.568
M97.6908 332.836L135.709 258.708
M135.909 258.499L201.941 221.435
M202.44 221.44L302.488 280.542
M302.274 280.475L389.316 287.487
M389.243 287.486L496.294 280.474
M496.079 280.539L641.149 197.396
M641.663 197.406L692.688 229.461
M692.142 229.471L732.161 202.424
M732.692 202.405L789.72 235.462
M789.659 183.343L857.691 211.392
M857.14 211.508L903.162 163.425
M903.318 164.316L992.361 124.247
M992.075 124.798L980.069 62.691
M980.929 62.2574L1085.98 176.454
M1085.13 176.664L1092.13 150.619
M1092.68 150.253L1195.73 164.277
M1195.54 163.286L1246.57 150.263
M1247.17 150.594L1264.18 202.684
M1263.2 200.784L1272.2 113.634
M1272.81 113.196L1349.85 130.226
M1349.84 130.224L1515.92 163.281
M22.8561 321.607L135.911 258.498
M135.693 259.13L116.684 214.052
M117.192 213.359L202.233 221.373
M201.976 221.417L242.996 202.384
M243.605 202.537L302.633 280.672
M301.959 280.556L345.98 251.506
M346.35 251.432L496.423 280.482
M495.973 280.62L591.019 185.455
M591.492 185.323L640.516 197.344
M640.424 197.331L732.468 202.339
M732.035 202.547L760.048 163.479
M760.739 164.361L789.753 184.395
M789.164 183.408L823.181 157.363
M823.529 157.262L903.567 164.274
M903.076 163.547L928.088 113.461
M928.185 113.327L980.21 62.239
M980.87 62.2029L1092.92 150.355
M1092.4 150.297L1134.42 130.263
M1134.87 130.277L1195.9 164.335
M1195.27 164.09L1125.24 78.9428
M1125.89 78.194L1246.95 150.318
M1246.28 150.462L1272.29 113.397
M1272.54 114.213L1333.57 93.1767
M1334.19 93.4516L1350.2 130.516
M1349.62 130.229L1519.7 87.1544
M22.9875 284.493L136.042 258.448
M136.07 259.43L1.00507 236.39
M1 234.402L117.056 213.365
M117.102 213.359L243.163 202.34
M242.955 202.405L287.977 176.36
M288.451 176.346L496.552 280.526
M495.874 281.186L465.86 217.076
M466.193 216.377L591.253 185.324
M590.986 185.492L641.01 124.386
M641.722 124.323L732.766 202.458
M731.948 202.924L720.943 138.813
M721.713 138.311L760.732 164.357
M760.391 164.276L823.422 156.263
M823.296 156.296L928.345 113.221
M928.619 113.177L823.569 131.208
M823.286 130.255L980.361 62.137
M980.615 62.0988L1125.68 78.1265
M1125.67 78.1248L1333.77 93.1507
M1333.69 93.1512L1414.27 85.6365
M1414.77 85.1356L1519.32 87.6399
M301.738 281.041L287.731 176.861
M288.337 176.305L466.423 216.374
M641.483 124.21L721.522 138.234
M721.397 138.229L823.446 130.216
M823.144 129.347L960.21 1.12479
M960.671 1.0047L1333.85 93.164
M1333.48 93.2148L1414.52 47.1351
M1414.95 47.1026L1520 87.1719
M168.706 341.265L135.69 259.123
M475.989 364.495L388.947 288.364
M388.955 288.37L345.934 252.308
M345.858 252.227L287.83 176.096
M787.968 235.395L759.454 164.272
M641.411 124.203L823.499 129.212
M823.722 130.153L760.692 164.212
M760.311 164.293L929.036 113.184
M857.08 212.125L823.064 159.033
M928.62 113.191L992.651 124.21
M992.066 125.205L1023.05 213.695
M980.085 62.7527L960.076 1.64706
M960.762 1.03708L1125.84 78.1704
M1126.12 78.5373L1134.13 130.714
M1092.11 150.248L1125.18 78.4083
M1125.75 78.1371L1272.82 113.198
M960.65 1L1263.8 62.1056
M1263.9 62.1386L1333.93 93.1923
M1263.65 62.0982L1414.72 47.0722
M1415.05 86.0513L1350.02 130.127
M904 270L903 164
M790 237L790 183
M1415 47L1415 85
M640 197L641 125"
            to="M25.0997 260L175.081 281
M170.536 281.5L325.062 251
M325.062 251L477.531 275.001
M477.568 274.786L628.054 202
M629.064 202L664.413 200
M664.413 199L771 238
M768 237L899.737 306
M899.737 306L1053.25 296
M1053.25 296L1151.22 340
M1151.22 340L1292.62 329
M1292.62 329L1428.96 267
M1427.95 267L1534 260
M25.0997 261L91.758 231
M91.758 231L169.021 281
M170 279L212 167
M211.945 166L324.052 252
M322.032 252L331.122 208.5
M332.132 210L477.568 275
M477.568 275L523.017 171
M523.017 171L629.064 202
M628.054 202L643.203 131
M645.223 133L664.413 200
M664.413 199L709.862 186
M709.862 187L768 238
M765.915 236.5L843.178 244
M841.158 244L899.737 306
M899.737 306L1095.67 224
M1095 221L1151 340
M1153.24 340L1211.82 254
M1211.82 252L1292.62 329
M1292.62 329L1373.41 214
M1373.41 216L1428.96 266
M1428.96 266L1534 222
M34.1895 194L91.7579 230
M91.758 231L150.336 198
M150.336 198L211.945 166
M211.945 166L331.122 209
M332.132 209L419.999 216
M419.999 216L523.017 171
M523.017 169L644.213 129
M643.203 130L709.862 187
M709.862 186L733.091 160
M733.091 160L768.44 235
M782.58 187L841.158 244
M843.178 243L927.006 219
M927.006 219L1095.67 224
M1094.66 222L1120.92 175
M1120.92 176L1151.22 340
M1151.22 340L1155.26 236
M1155.26 236L1211.82 252
M1211.82 251L1263.33 210
M1261.31 210L1292.62 329
M1292.62 329L1306.76 175
M1306.76 175L1373.41 214
M1373.41 215L1534 219
M34.1895 193L150.333 199.06
M151.346 199L140.237 116
M140.237 116L211.945 166
M211.945 167L245.274 102
M245.274 100L331.122 209
M331.122 210L400.81 170
M400.81 170L523.017 171
M523.017 171L546.246 89
M546.246 89L643.203 130
M643.203 130L733.091 160
M733.091 159L760.36 160
M760.36 160L782.58 187
M782.58 186L843.178 190
M843.178 190L927.006 219
M927.006 219L960.335 188
M960.335 188L1120.92 175
M1120.92 175L1155.26 236
M1155.26 235L1197.68 224
M1197.68 222L1211.82 252
M1211.82 250L1221.92 165
M1221.92 165L1263.33 211
M1261.31 213L1306.76 175
M1306.76 174L1347.15 119
M1346.14 119L1373.41 213
M1373.41 213L1529.96 81
M15 153L150.336 199
M151.346 199L15 112
M15 112L140.237 116
M140.237 116L245.274 101
M245.274 100L357.381 125
M357.381 125L523.017 171
M523.017 170L470.498 141
M470.498 141L548.266 89
M546.246 89L680.572 72
M680.572 72L733.091 158
M733.091 160L739.151 102
M739.151 101L760.36 160
M760.36 160L843.178 190
M842.168 190L962.355 188
M960.335 187L945.185 141
M945.185 141L1120.92 175
M1120.92 175L1221.92 164
M1221.92 165L1346.14 119
M1346.14 119L1427.95 117
M1427.95 118L1529.96 81
M331.122 209L357.381 127
M357.381 125L470.498 141
M680.572 72L740.161 101
M740.161 100L945.186 141
M945.185 141L1141.12 142
M1145.16 142L1346.14 118
M1347.15 119L1395.63 87
M1395.63 87L1529.96 81
M170.536 282L150.336 199
M477.568 275L418.989 216
M419.999 216L400.81 171
M400.81 170L357.381 127
M768.44 236L760.36 160
M680.572 72L945.185 141
M945.185 141L760.36 160
M760.36 160L960.335 188
M842.168 244L843.178 189
M960.335 188L1094.66 222
M1095 222L1053 296
M1120.92 174L1145.16 142
M1141.12 142L1221.92 165
M1221.92 165L1197.68 224
M1155.26 235L1221.92 164
M1221.92 165L1306.76 174
M1145.16 142L1306.76 83
M1306.76 84L1347.15 119
M1306.76 83L1395.63 87
M1427.95 117L1371.39 215
M899.737 306L927.006 219
M768 238L782.58 186
M1395.63 87L1427.95 119
M643.203 130L680.572 72"
        />

        <animate
            id="waveend"
            attributeName="d"
            dur="59s"
            stroke="#34C96A"
            begin="wavestart.end"
            from="M25.0997 260L175.081 281
M170.536 281.5L325.062 251
M325.062 251L477.531 275.001
M477.568 274.786L628.054 202
M629.064 202L664.413 200
M664.413 199L771 238
M768 237L899.737 306
M899.737 306L1053.25 296
M1053.25 296L1151.22 340
M1151.22 340L1292.62 329
M1292.62 329L1428.96 267
M1427.95 267L1534 260
M25.0997 261L91.758 231
M91.758 231L169.021 281
M170 279L212 167
M211.945 166L324.052 252
M322.032 252L331.122 208.5
M332.132 210L477.568 275
M477.568 275L523.017 171
M523.017 171L629.064 202
M628.054 202L643.203 131
M645.223 133L664.413 200
M664.413 199L709.862 186
M709.862 187L768 238
M765.915 236.5L843.178 244
M841.158 244L899.737 306
M899.737 306L1095.67 224
M1095 221L1151 340
M1153.24 340L1211.82 254
M1211.82 252L1292.62 329
M1292.62 329L1373.41 214
M1373.41 216L1428.96 266
M1428.96 266L1534 222
M34.1895 194L91.7579 230
M91.758 231L150.336 198
M150.336 198L211.945 166
M211.945 166L331.122 209
M332.132 209L419.999 216
M419.999 216L523.017 171
M523.017 169L644.213 129
M643.203 130L709.862 187
M709.862 186L733.091 160
M733.091 160L768.44 235
M782.58 187L841.158 244
M843.178 243L927.006 219
M927.006 219L1095.67 224
M1094.66 222L1120.92 175
M1120.92 176L1151.22 340
M1151.22 340L1155.26 236
M1155.26 236L1211.82 252
M1211.82 251L1263.33 210
M1261.31 210L1292.62 329
M1292.62 329L1306.76 175
M1306.76 175L1373.41 214
M1373.41 215L1534 219
M34.1895 193L150.333 199.06
M151.346 199L140.237 116
M140.237 116L211.945 166
M211.945 167L245.274 102
M245.274 100L331.122 209
M331.122 210L400.81 170
M400.81 170L523.017 171
M523.017 171L546.246 89
M546.246 89L643.203 130
M643.203 130L733.091 160
M733.091 159L760.36 160
M760.36 160L782.58 187
M782.58 186L843.178 190
M843.178 190L927.006 219
M927.006 219L960.335 188
M960.335 188L1120.92 175
M1120.92 175L1155.26 236
M1155.26 235L1197.68 224
M1197.68 222L1211.82 252
M1211.82 250L1221.92 165
M1221.92 165L1263.33 211
M1261.31 213L1306.76 175
M1306.76 174L1347.15 119
M1346.14 119L1373.41 213
M1373.41 213L1529.96 81
M15 153L150.336 199
M151.346 199L15 112
M15 112L140.237 116
M140.237 116L245.274 101
M245.274 100L357.381 125
M357.381 125L523.017 171
M523.017 170L470.498 141
M470.498 141L548.266 89
M546.246 89L680.572 72
M680.572 72L733.091 158
M733.091 160L739.151 102
M739.151 101L760.36 160
M760.36 160L843.178 190
M842.168 190L962.355 188
M960.335 187L945.185 141
M945.185 141L1120.92 175
M1120.92 175L1221.92 164
M1221.92 165L1346.14 119
M1346.14 119L1427.95 117
M1427.95 118L1529.96 81
M331.122 209L357.381 127
M357.381 125L470.498 141
M680.572 72L740.161 101
M740.161 100L945.186 141
M945.185 141L1141.12 142
M1145.16 142L1346.14 118
M1347.15 119L1395.63 87
M1395.63 87L1529.96 81
M170.536 282L150.336 199
M477.568 275L418.989 216
M419.999 216L400.81 171
M400.81 170L357.381 127
M768.44 236L760.36 160
M680.572 72L945.185 141
M945.185 141L760.36 160
M760.36 160L960.335 188
M842.168 244L843.178 189
M960.335 188L1094.66 222
M1095 222L1053 296
M1120.92 174L1145.16 142
M1141.12 142L1221.92 165
M1221.92 165L1197.68 224
M1155.26 235L1221.92 164
M1221.92 165L1306.76 174
M1145.16 142L1306.76 83
M1306.76 84L1347.15 119
M1306.76 83L1395.63 87
M1427.95 117L1371.39 215
M899.737 306L927.006 219
M768 238L782.58 186
M1395.63 87L1427.95 119
M643.203 130L680.572 72"
            to="M22.8039 450.865L172.876 340.674
M173.271 340.587L336.349 373.644
M336.214 373.635L476.282 363.618
M476.202 363.631L606.264 332.577
M606.107 332.644L675.141 287.566
M675.206 287.53L789.26 235.44
M789.62 235.418L903.675 271.481
M903.304 271.509L1022.36 213.408
M1022.33 213.426L1085.36 176.362
M1085.68 176.298L1263.77 202.343
M1263.83 202.354L1414.89 241.422
M1414.74 241.407L1504.78 235.462
M22.6775 451L97.7136 332.796
M98.1888 332.566L173.225 340.58
M172.686 340.96L201.7 221.754
M202.561 221.54L336.626 373.804
M335.78 374.307L301.764 281.146
M302.449 280.522L476.533 363.666
M475.832 364.001L495.841 280.857
M496.542 280.521L606.594 332.611
M605.895 332.942L640.397 197.33
M640.397 197.83L675.884 287.816
M674.933 287.845L691.942 229.745
M692.453 229.386L789.5 235.396
M789.302 235.424L857.335 211.383
M857.898 211.55L903.921 271.654
M903.095 271.699L992.138 124.444
M992.81 124.267L1085.85 176.357
M1085.56 176.296L1195.59 164.166
M1195.9 164.336L1263.94 202.402
M1263.38 202.455L1349.42 130.331
M1350.17 130.46L1415.2 240.65
M1414.47 241.508L1515.52 164.375
M23.1724 321.549L98.2085 332.568
M97.6908 332.836L135.709 258.708
M135.909 258.499L201.941 221.435
M202.44 221.44L302.488 280.542
M302.274 280.475L389.316 287.487
M389.243 287.486L496.294 280.474
M496.079 280.539L641.149 197.396
M641.663 197.406L692.688 229.461
M692.142 229.471L732.161 202.424
M732.692 202.405L789.72 235.462
M789.659 183.343L857.691 211.392
M857.14 211.508L903.162 163.425
M903.318 164.316L992.361 124.247
M992.075 124.798L980.069 62.691
M980.929 62.2574L1085.98 176.454
M1085.13 176.664L1092.13 150.619
M1092.68 150.253L1195.73 164.277
M1195.54 163.286L1246.57 150.263
M1247.17 150.594L1264.18 202.684
M1263.2 200.784L1272.2 113.634
M1272.81 113.196L1349.85 130.226
M1349.84 130.224L1515.92 163.281
M22.8561 321.607L135.911 258.498
M135.693 259.13L116.684 214.052
M117.192 213.359L202.233 221.373
M201.976 221.417L242.996 202.384
M243.605 202.537L302.633 280.672
M301.959 280.556L345.98 251.506
M346.35 251.432L496.423 280.482
M495.973 280.62L591.019 185.455
M591.492 185.323L640.516 197.344
M640.424 197.331L732.468 202.339
M732.035 202.547L760.048 163.479
M760.739 164.361L789.753 184.395
M789.164 183.408L823.181 157.363
M823.529 157.262L903.567 164.274
M903.076 163.547L928.088 113.461
M928.185 113.327L980.21 62.239
M980.87 62.2029L1092.92 150.355
M1092.4 150.297L1134.42 130.263
M1134.87 130.277L1195.9 164.335
M1195.27 164.09L1125.24 78.9428
M1125.89 78.194L1246.95 150.318
M1246.28 150.462L1272.29 113.397
M1272.54 114.213L1333.57 93.1767
M1334.19 93.4516L1350.2 130.516
M1349.62 130.229L1519.7 87.1544
M22.9875 284.493L136.042 258.448
M136.07 259.43L1.00507 236.39
M1 234.402L117.056 213.365
M117.102 213.359L243.163 202.34
M242.955 202.405L287.977 176.36
M288.451 176.346L496.552 280.526
M495.874 281.186L465.86 217.076
M466.193 216.377L591.253 185.324
M590.986 185.492L641.01 124.386
M641.722 124.323L732.766 202.458
M731.948 202.924L720.943 138.813
M721.713 138.311L760.732 164.357
M760.391 164.276L823.422 156.263
M823.296 156.296L928.345 113.221
M928.619 113.177L823.569 131.208
M823.286 130.255L980.361 62.137
M980.615 62.0988L1125.68 78.1265
M1125.67 78.1248L1333.77 93.1507
M1333.69 93.1512L1414.27 85.6365
M1414.77 85.1356L1519.32 87.6399
M301.738 281.041L287.731 176.861
M288.337 176.305L466.423 216.374
M641.483 124.21L721.522 138.234
M721.397 138.229L823.446 130.216
M823.144 129.347L960.21 1.12479
M960.671 1.0047L1333.85 93.164
M1333.48 93.2148L1414.52 47.1351
M1414.95 47.1026L1520 87.1719
M168.706 341.265L135.69 259.123
M475.989 364.495L388.947 288.364
M388.955 288.37L345.934 252.308
M345.858 252.227L287.83 176.096
M787.968 235.395L759.454 164.272
M641.411 124.203L823.499 129.212
M823.722 130.153L760.692 164.212
M760.311 164.293L929.036 113.184
M857.08 212.125L823.064 159.033
M928.62 113.191L992.651 124.21
M992.066 125.205L1023.05 213.695
M980.085 62.7527L960.076 1.64706
M960.762 1.03708L1125.84 78.1704
M1126.12 78.5373L1134.13 130.714
M1092.11 150.248L1125.18 78.4083
M1125.75 78.1371L1272.82 113.198
M960.65 1L1263.8 62.1056
M1263.9 62.1386L1333.93 93.1923
M1263.65 62.0982L1414.72 47.0722
M1415.05 86.0513L1350.02 130.127
M904 270L903 164
M790 237L790 183
M1415 47L1415 85
M640 197L641 125"
        />

    </path>

</svg>