<svg xmlns="http://www.w3.org/2000/svg" width="173" height="52" stroke-width=".1" fill="none"><path stroke="#34c96a" d="M3.423 50.985l16.675-12.243m.044-.01l18.12 3.673m-.015-.001L53.81 41.29m-.01.002l14.45-3.45m-.017.008l7.67-5.01m.007-.004l12.673-5.788m.04-.002l12.673 4.007m-.04.003l13.228-6.456m-.003.002l7.003-4.118m.036-.007l19.787 2.894m.007.001l16.785 4.34m-.017-.002l10.005-.66M3.41 51l8.337-13.134m.053-.026l8.337.9m-.06.042L23.3 25.528m.096-.024l14.896 16.918m-.094.056l-3.78-10.35m.076-.07l19.343 9.238m-.078.037l2.223-9.238m.078-.037l12.228 5.788m-.078.037l3.834-15.068m0 .056l3.943 9.998m-.106.003l1.9-6.456m.057-.04l10.783.668m-.022.003l7.56-2.67m.063.02l5.113 6.678m-.09.005l9.893-16.362m.075-.02l10.338 5.788m-.032-.007l12.226-1.348m.034.02l7.56 4.23m-.062.006l9.56-8.014m.083.014l7.226 12.243m-.08.095l11.228-8.57M3.464 36.617L11.8 37.84m-.058.03l4.224-8.236M16 29.61l7.337-4.118m.056.001L34.5 32.06m-.024-.007l9.67.78m-.008 0l11.895-.78m-.024.007l16.12-9.238m.057.001l5.67 3.562m-.06.001l4.447-3.005m.06-.002l6.336 3.673m.03.17v-6m-.038.038l7.56 3.116m-.06.013l5.113-5.343m.018.1l9.893-4.452m-.032.06l-1.333-6.9m.095-.048l11.672 12.69m-.094.023l.778-2.894m.06-.04l11.45 1.558m-.02-.1l5.67-1.447m.067.037l1.9 5.788m-.11-.21l1-9.683m.067-.05l8.56 1.892m-.001 0l18.453 3.673M3.428 36.623L16 29.61m-.024.07l-2.112-5.01m.056-.077l9.45.9m-.03.005l4.558-2.115m.068.017l6.56 8.682m-.075-.013l4.89-3.228m.04-.008l16.675 3.228m-.05.015l10.56-10.574m.053-.015l5.447 1.336m-.01-.001l10.227.556m-.048.023l3.113-4.34m.077.098l3.224 2.226m-.065-.1l3.78-2.894m.04-.01l8.893.78m-.054-.08l2.78-5.565m.01-.015l5.78-5.676m.073-.004l12.45 9.795m-.058-.006l4.67-2.226m.05.002l6.78 3.784m-.07-.027l-7.78-9.46m.072-.083l13.45 8.014m-.075.016l2.89-4.118m.027.09l6.78-2.337m.07.03l1.78 4.118m-.065-.032l18.898-4.786M3.443 32.5l12.562-2.894m.003.11L1 27.154M1 26.934l12.895-2.337m.005-.001l14.007-1.224m-.023.007l5.002-2.894m.053-.002L56.06 32.06m-.075.073l-3.335-7.123m.037-.078l13.896-3.45m-.03.02l5.558-6.79m.08-.007l10.116 8.682m-.09.052l-1.223-7.123m.085-.056l4.335 2.894m-.038-.01l7.003-.9m-.014.004l11.672-4.786m.03-.005l-11.672 2.003m-.03-.106l17.453-7.57m.028-.004l16.12 1.78m-.002 0l23.123 1.67m-.01 0l8.953-.835m.055-.056l11.617.278M34.415 32.116L32.86 20.54m.067-.062l19.787 4.452m19.45-10.24l8.893 1.558m-.014-.001l11.34-.9m-.034-.097l15.23-14.247m.05-.013l41.464 10.24m-.04.006l9.005-5.12m.047-.004l11.673 4.452M19.634 38.807l-3.668-9.127m37.81 11.708l-9.67-8.46m.001.001l-4.78-4.007m-.008-.01l-6.448-8.46M72 22.778l.11-8m16.33 12.266l-3.168-7.902M72.157 14.69l20.232.557m.025.105L85.4 19.135m-.042.01l18.747-5.68M96.12 24.458l-3.78-5.9m11.728-5.094l7.115 1.224m-.065.11l3.442 9.832m-13.228 6.256l-.11-11.778m8.565-11.25l-2.223-6.8m.076-.068l18.342 8.57m.03.04l.89 5.797m-4.67 2.17L125.91 9.6m.063-.03l16.34 3.896M107.628 1l33.683 6.8m.01.004l7.78 3.45m-7.81-3.455l16.786-1.67m.03-.008v4.222m.006.117l-7.226 4.897"><animate id="A" attributeName="d" dur="60s" stroke="#34c96a" begin="0s;B.end" from="M3.42261 50.985L20.0973 38.7416 M20.1411 38.7319L38.2609 42.4049 M38.246 42.4039L53.809 41.2909 M53.8002 41.2924L68.2516 37.8419 M68.2341 37.8494L75.9045 32.8407 M75.9116 32.8367L88.5844 27.049 M88.6244 27.0465L101.297 31.0534 M101.256 31.0565L114.484 24.6009 M114.481 24.6029L121.484 20.4847 M121.52 20.4776L141.307 23.3715 M141.314 23.3727L158.099 27.7135 M158.082 27.7119L168.087 27.0514 M3.40857 51L11.7459 37.8662 M11.7987 37.8407L20.1361 38.7311 M20.0762 38.7733L23.2999 25.5282 M23.3956 25.5045L38.2917 42.4226 M38.1978 42.4786L34.4182 32.1274 M34.4943 32.058L53.8369 41.2962 M53.759 41.3334L55.9823 32.0952 M56.0602 32.0579L68.2883 37.8457 M68.2106 37.8824L72.0441 22.8144 M72.0441 22.8701L75.9871 32.8684 M75.8815 32.8717L77.7713 26.4161 M77.828 26.3762L88.611 27.044 M88.5891 27.0472L96.1483 24.3759 M96.2108 24.3945L101.324 31.0727 M101.233 31.0776L111.126 14.716 M111.201 14.6964L121.539 20.4841 M121.507 20.4774L133.733 19.1296 M133.767 19.1485L141.326 23.378 M141.264 23.3839L150.824 15.3701 M150.907 15.3844L158.133 27.6278 M158.052 27.7231L169.28 19.1527 M3.46362 36.6166L11.801 37.8409 M11.7434 37.8706L15.9676 29.6342 M15.9899 29.611L23.3267 25.4928 M23.3823 25.4933L34.4988 32.0602 M34.475 32.0528L44.1463 32.8319 M44.1382 32.8318L56.0328 32.0527 M56.0088 32.0599L72.1277 22.8217 M72.1848 22.8229L77.8542 26.3846 M77.7936 26.3857L82.2402 23.3805 M82.2992 23.3784L88.6356 27.0514 M88.6667 27.2222L88.6667 21.2222 M88.6288 21.2604L96.1879 24.3769 M96.1267 24.3898L101.24 19.0472 M101.258 19.1463L111.151 14.6941 M111.119 14.7554L109.786 7.85455 M109.881 7.80637L121.553 20.4949 M121.459 20.5182L122.237 17.6243 M122.298 17.5837L133.748 19.1419 M133.727 19.0317L139.396 17.5848 M139.463 17.6215L141.353 23.4093 M141.244 23.1983L142.245 13.5148 M142.312 13.4662L150.872 15.3584 M150.871 15.3582L169.324 19.0312 M3.42847 36.623L15.9901 29.6109 M15.9659 29.6812L13.8538 24.6725 M13.9103 24.5955L23.3593 25.4859 M23.3307 25.4908L27.8884 23.376 M27.9561 23.3929L34.5148 32.0746 M34.4399 32.0618L39.3312 28.834 M39.3722 28.8258L56.0469 32.0536 M55.9971 32.0688L66.5577 21.495 M66.6102 21.4803L72.0573 22.8159 M72.0471 22.8145L82.2743 23.371 M82.2261 23.3941L85.3387 19.0532 M85.4154 19.1512L88.6392 21.3773 M88.5739 21.2676L92.3534 18.3737 M92.3921 18.3625L101.285 19.1416 M101.231 19.0608L104.01 13.4956 M104.021 13.4808L109.801 7.80434 M109.874 7.80032L122.325 17.595 M122.267 17.5886L126.936 15.3625 M126.986 15.3641L133.767 19.1484 M133.697 19.1211L125.916 9.66031 M125.988 9.57712L139.439 17.5909 M139.364 17.6068L142.255 13.4886 M142.282 13.5792L149.063 11.2419 M149.132 11.2724L150.911 15.3907 M150.846 15.3587L169.744 10.5727 M3.44312 32.4992L16.0047 29.6053 M16.0078 29.7144L1.00061 27.1544 M1 26.9335L13.8951 24.5961 M13.9003 24.5954L27.907 23.3711 M27.8839 23.3784L32.8863 20.4845 M32.9391 20.4829L56.0613 32.0585 M55.9861 32.1318L52.6511 25.0084 M52.6881 24.9308L66.5837 21.4804 M66.554 21.4991L72.1122 14.7096 M72.1914 14.7026L82.3074 23.3842 M82.2165 23.436L80.9937 16.3126 M81.0792 16.2568L85.4146 19.1507 M85.3768 19.1418L92.3802 18.2514 M92.3662 18.255L104.038 13.469 M104.069 13.4641L92.3965 15.4676 M92.3651 15.3616L109.818 7.79298 M109.846 7.78874L125.965 9.5696 M125.963 9.56941L149.086 11.239 M149.077 11.239L158.03 10.404 M158.085 10.3484L169.702 10.6266 M34.4153 32.1157L32.859 20.5401 M32.9264 20.4783L52.7137 24.9305 M72.1648 14.69L81.058 16.2483 M81.0441 16.2477L92.3829 15.3573 M92.3492 15.2608L107.579 1.01387 M107.63 1.00052L149.094 11.2404 M149.053 11.2461L158.058 6.12613 M158.105 6.12251L169.778 10.5747 M19.634 38.8073L15.9656 29.6804 M53.7766 41.3884L44.1052 32.9293 M44.1061 32.93L39.326 28.9231 M39.3175 28.9142L32.87 20.4551 M72 22.7778L72.1111 14.7778 M88.4409 27.0439L85.2727 19.1414 M72.1569 14.6892L92.3888 15.2458 M92.4135 15.3504L85.4102 19.1347 M85.3679 19.1437L104.115 13.4649 M96.12 24.4584L92.3405 18.5593 M104.069 13.4657L111.184 14.69 M111.119 14.8005L114.561 24.6328 M101.333 30.8889L101.222 19.1111 M109.787 7.86142L107.564 1.0719 M107.64 1.00412L125.982 9.57449 M126.013 9.61525L126.904 15.4127 M122.235 17.5831L125.909 9.60092 M125.972 9.5708L142.313 13.4665 M107.628 1L141.311 7.78951 M141.322 7.79318L149.103 11.2436 M141.294 7.78868L158.08 6.11913 M158.111 6.11111L158.111 10.3333 M158.117 10.4501L150.891 15.3475" to="M3.67773 29.7778L20.3423 32.1111 M19.8373 32.1667L37.0068 28.7778 M37.0068 28.7778L53.9479 31.4446 M53.9519 31.4207L70.6726 23.3333 M70.7849 23.3333L74.7125 23.1111 M74.7126 23L86.5556 27.3333 M86.2222 27.2222L100.86 34.8889 M100.86 34.8889L117.917 33.7778 M117.917 33.7778L128.802 38.6667 M128.802 38.6667L144.513 37.4444 M144.513 37.4444L159.663 30.5556 M159.55 30.5556L171.333 29.7778 M3.67773 29.8889L11.0842 26.5555 M11.0842 26.5556L19.669 32.1111 M19.7777 31.8889L24.4444 19.4444 M24.4384 19.3333L36.8947 28.8889 M36.6702 28.8889L37.6801 24.0555 M37.7924 24.2222L53.9519 31.4444 M53.9519 31.4444L59.0018 19.8889 M59.0018 19.8889L70.7848 23.3333 M70.6726 23.3333L72.3559 15.4444 M72.5803 15.6667L74.7125 23.1111 M74.7125 23L79.7624 21.5555 M79.7625 21.6667L86.2223 27.3333 M85.9905 27.1667L94.5753 28 M94.351 28L100.86 34.8889 M100.86 34.8889L122.63 25.7778 M122.556 25.4444L128.778 38.6667 M129.027 38.6667L135.535 29.1111 M135.535 28.8889L144.513 37.4444 M144.513 37.4444L153.49 24.6667 M153.49 24.8889L159.663 30.4444 M159.662 30.4444L171.333 25.5555 M4.68774 22.4444L11.0842 26.4444 M11.0842 26.5555L17.5929 22.8889 M17.593 22.8889L24.4384 19.3333 M24.4384 19.3333L37.6802 24.1111 M37.7925 24.1111L47.5556 24.8889 M47.5555 24.8889L59.0019 19.8889 M59.0019 19.6667L72.4682 15.2222 M72.356 15.3333L79.7624 21.6667 M79.7625 21.5556L82.3435 18.6667 M82.3435 18.6667L86.2712 27 M86.2223 27.3334L87.8423 21.5556 M87.8423 21.6667L94.351 28 M94.5753 27.8889L103.89 25.2222 M103.89 25.2222L122.63 25.7778 M122.518 25.5556L125.436 20.3333 M125.436 20.4444L128.802 38.6667 M128.802 38.6667L129.251 27.1111 M129.251 27.1111L135.535 28.8889 M135.535 28.7778L141.259 24.2222 M141.034 24.2222L144.513 37.4444 M144.513 37.4444L146.084 20.3333 M146.084 20.3333L153.49 24.6667 M153.49 24.7778L171.333 25.2222 M4.68774 22.3333L17.5926 23.0066 M17.7052 23L16.4708 13.7778 M16.4708 13.7778L24.4384 19.3333 M24.4384 19.4445L28.1416 12.2222 M28.1416 12L37.6802 24.1111 M37.6802 24.2222L45.4233 19.7778 M45.4233 19.7778L59.0019 19.8889 M59.0018 19.8889L61.5829 10.7778 M61.5829 10.7778L72.356 15.3333 M72.356 15.3333L82.3435 18.6667 M82.3435 18.5556L85.3734 18.6667 M85.3734 18.6667L87.8423 21.6667 M87.8422 21.5556L94.5753 22 M94.5753 22L103.89 25.2222 M103.89 25.2222L107.593 21.7778 M107.593 21.7778L125.436 20.3333 M125.436 20.3333L129.251 27.1111 M129.251 27L133.964 25.7778 M133.964 25.5555L135.535 28.8889 M135.535 28.6667L136.658 19.2222 M136.658 19.2222L141.259 24.3333 M141.034 24.5556L146.084 20.3333 M146.084 20.2222L150.573 14.1111 M150.461 14.1111L153.49 24.5555 M153.49 24.5556L170.884 9.88889 M2.55554 17.8889L17.5929 23 M17.7051 23L2.55554 13.3333 M2.55554 13.3333L16.4707 13.7778 M16.4707 13.7778L28.1415 12.1111 M28.1416 12L40.5979 14.7778 M40.5979 14.7778L59.0018 19.8889 M59.0018 19.7778L53.1664 16.5555 M53.1664 16.5555L61.8073 10.7778 M61.5829 10.7778L76.508 8.88889 M76.5081 8.88889L82.3435 18.4444 M82.3434 18.6667L83.0167 12.2222 M83.0167 12.1111L85.3733 18.6667 M85.3733 18.6667L94.5753 22 M94.4631 22L107.817 21.7778 M107.593 21.6667L105.909 16.5556 M105.909 16.5556L125.436 20.3333 M125.436 20.3333L136.658 19.1111 M136.658 19.2222L150.461 14.1111 M150.461 14.1111L159.55 13.8889 M159.55 14L170.884 9.88889 M37.6802 24.1111L40.5979 15 M40.5979 14.7778L53.1665 16.5555 M76.5081 8.88889L83.129 12.1111 M83.129 12L105.91 16.5555 M105.909 16.5556L127.68 16.6667 M128.129 16.6667L150.461 14 M150.573 14.1111L155.959 10.5555 M155.959 10.5555L170.884 9.88887 M19.8373 32.2222L17.5929 23 M53.952 31.4444L47.4432 24.8889 M47.5555 24.8889L45.4233 19.8889 M45.4233 19.7778L40.5979 15 M72.3558 15.3333L76.5079 8.88889 M86.271 27.1111L85.3733 18.6667 M76.5079 8.88889L105.909 16.5556 M105.909 16.5555L85.3733 18.6667 M85.3733 18.6667L107.593 21.7778 M94.463 28L94.5752 21.8889 M107.593 21.7778L122.518 25.5556 M122.556 25.5555L117.889 33.7778 M100.86 34.8889L103.89 25.2222 M125.436 20.2222L128.129 16.6667 M127.68 16.6667L136.658 19.2222 M136.657 19.2222L133.964 25.7778 M129.251 27L136.657 19.1111 M136.657 19.2222L146.084 20.2222 M128.129 16.6667L146.084 10.1111 M146.084 10.2222L150.573 14.1111 M146.084 10.1111L155.959 10.5555 M155.959 10.5555L159.55 14.1111 M159.55 13.8889L153.266 24.7778"/><animate id="B" attributeName="d" dur="59s" stroke="#34c96a" begin="A.end" from="M3.67773 29.7778L20.3423 32.1111 M19.8373 32.1667L37.0068 28.7778 M37.0068 28.7778L53.9479 31.4446 M53.9519 31.4207L70.6726 23.3333 M70.7849 23.3333L74.7125 23.1111 M74.7126 23L86.5556 27.3333 M86.2222 27.2222L100.86 34.8889 M100.86 34.8889L117.917 33.7778 M117.917 33.7778L128.802 38.6667 M128.802 38.6667L144.513 37.4444 M144.513 37.4444L159.663 30.5556 M159.55 30.5556L171.333 29.7778 M3.67773 29.8889L11.0842 26.5555 M11.0842 26.5556L19.669 32.1111 M19.7777 31.8889L24.4444 19.4444 M24.4384 19.3333L36.8947 28.8889 M36.6702 28.8889L37.6801 24.0555 M37.7924 24.2222L53.9519 31.4444 M53.9519 31.4444L59.0018 19.8889 M59.0018 19.8889L70.7848 23.3333 M70.6726 23.3333L72.3559 15.4444 M72.5803 15.6667L74.7125 23.1111 M74.7125 23L79.7624 21.5555 M79.7625 21.6667L86.2223 27.3333 M85.9905 27.1667L94.5753 28 M94.351 28L100.86 34.8889 M100.86 34.8889L122.63 25.7778 M122.556 25.4444L128.778 38.6667 M129.027 38.6667L135.535 29.1111 M135.535 28.8889L144.513 37.4444 M144.513 37.4444L153.49 24.6667 M153.49 24.8889L159.663 30.4444 M159.662 30.4444L171.333 25.5555 M4.68774 22.4444L11.0842 26.4444 M11.0842 26.5555L17.5929 22.8889 M17.593 22.8889L24.4384 19.3333 M24.4384 19.3333L37.6802 24.1111 M37.7925 24.1111L47.5556 24.8889 M47.5555 24.8889L59.0019 19.8889 M59.0019 19.6667L72.4682 15.2222 M72.356 15.3333L79.7624 21.6667 M79.7625 21.5556L82.3435 18.6667 M82.3435 18.6667L86.2712 27 M86.2223 27.3334L87.8423 21.5556 M87.8423 21.6667L94.351 28 M94.5753 27.8889L103.89 25.2222 M103.89 25.2222L122.63 25.7778 M122.518 25.5556L125.436 20.3333 M125.436 20.4444L128.802 38.6667 M128.802 38.6667L129.251 27.1111 M129.251 27.1111L135.535 28.8889 M135.535 28.7778L141.259 24.2222 M141.034 24.2222L144.513 37.4444 M144.513 37.4444L146.084 20.3333 M146.084 20.3333L153.49 24.6667 M153.49 24.7778L171.333 25.2222 M4.68774 22.3333L17.5926 23.0066 M17.7052 23L16.4708 13.7778 M16.4708 13.7778L24.4384 19.3333 M24.4384 19.4445L28.1416 12.2222 M28.1416 12L37.6802 24.1111 M37.6802 24.2222L45.4233 19.7778 M45.4233 19.7778L59.0019 19.8889 M59.0018 19.8889L61.5829 10.7778 M61.5829 10.7778L72.356 15.3333 M72.356 15.3333L82.3435 18.6667 M82.3435 18.5556L85.3734 18.6667 M85.3734 18.6667L87.8423 21.6667 M87.8422 21.5556L94.5753 22 M94.5753 22L103.89 25.2222 M103.89 25.2222L107.593 21.7778 M107.593 21.7778L125.436 20.3333 M125.436 20.3333L129.251 27.1111 M129.251 27L133.964 25.7778 M133.964 25.5555L135.535 28.8889 M135.535 28.6667L136.658 19.2222 M136.658 19.2222L141.259 24.3333 M141.034 24.5556L146.084 20.3333 M146.084 20.2222L150.573 14.1111 M150.461 14.1111L153.49 24.5555 M153.49 24.5556L170.884 9.88889 M2.55554 17.8889L17.5929 23 M17.7051 23L2.55554 13.3333 M2.55554 13.3333L16.4707 13.7778 M16.4707 13.7778L28.1415 12.1111 M28.1416 12L40.5979 14.7778 M40.5979 14.7778L59.0018 19.8889 M59.0018 19.7778L53.1664 16.5555 M53.1664 16.5555L61.8073 10.7778 M61.5829 10.7778L76.508 8.88889 M76.5081 8.88889L82.3435 18.4444 M82.3434 18.6667L83.0167 12.2222 M83.0167 12.1111L85.3733 18.6667 M85.3733 18.6667L94.5753 22 M94.4631 22L107.817 21.7778 M107.593 21.6667L105.909 16.5556 M105.909 16.5556L125.436 20.3333 M125.436 20.3333L136.658 19.1111 M136.658 19.2222L150.461 14.1111 M150.461 14.1111L159.55 13.8889 M159.55 14L170.884 9.88889 M37.6802 24.1111L40.5979 15 M40.5979 14.7778L53.1665 16.5555 M76.5081 8.88889L83.129 12.1111 M83.129 12L105.91 16.5555 M105.909 16.5556L127.68 16.6667 M128.129 16.6667L150.461 14 M150.573 14.1111L155.959 10.5555 M155.959 10.5555L170.884 9.88887 M19.8373 32.2222L17.5929 23 M53.952 31.4444L47.4432 24.8889 M47.5555 24.8889L45.4233 19.8889 M45.4233 19.7778L40.5979 15 M72.3558 15.3333L76.5079 8.88889 M86.271 27.1111L85.3733 18.6667 M76.5079 8.88889L105.909 16.5556 M105.909 16.5555L85.3733 18.6667 M85.3733 18.6667L107.593 21.7778 M94.463 28L94.5752 21.8889 M107.593 21.7778L122.518 25.5556 M122.556 25.5555L117.889 33.7778 M100.86 34.8889L103.89 25.2222 M125.436 20.2222L128.129 16.6667 M127.68 16.6667L136.658 19.2222 M136.657 19.2222L133.964 25.7778 M129.251 27L136.657 19.1111 M136.657 19.2222L146.084 20.2222 M128.129 16.6667L146.084 10.1111 M146.084 10.2222L150.573 14.1111 M146.084 10.1111L155.959 10.5555 M155.959 10.5555L159.55 14.1111 M159.55 13.8889L153.266 24.7778" to="M3.42261 50.985L20.0973 38.7416 M20.1411 38.7319L38.2609 42.4049 M38.246 42.4039L53.809 41.2909 M53.8002 41.2924L68.2516 37.8419 M68.2341 37.8494L75.9045 32.8407 M75.9116 32.8367L88.5844 27.049 M88.6244 27.0465L101.297 31.0534 M101.256 31.0565L114.484 24.6009 M114.481 24.6029L121.484 20.4847 M121.52 20.4776L141.307 23.3715 M141.314 23.3727L158.099 27.7135 M158.082 27.7119L168.087 27.0514 M3.40857 51L11.7459 37.8662 M11.7987 37.8407L20.1361 38.7311 M20.0762 38.7733L23.2999 25.5282 M23.3956 25.5045L38.2917 42.4226 M38.1978 42.4786L34.4182 32.1274 M34.4943 32.058L53.8369 41.2962 M53.759 41.3334L55.9823 32.0952 M56.0602 32.0579L68.2883 37.8457 M68.2106 37.8824L72.0441 22.8144 M72.0441 22.8701L75.9871 32.8684 M75.8815 32.8717L77.7713 26.4161 M77.828 26.3762L88.611 27.044 M88.5891 27.0472L96.1483 24.3759 M96.2108 24.3945L101.324 31.0727 M101.233 31.0776L111.126 14.716 M111.201 14.6964L121.539 20.4841 M121.507 20.4774L133.733 19.1296 M133.767 19.1485L141.326 23.378 M141.264 23.3839L150.824 15.3701 M150.907 15.3844L158.133 27.6278 M158.052 27.7231L169.28 19.1527 M3.46362 36.6166L11.801 37.8409 M11.7434 37.8706L15.9676 29.6342 M15.9899 29.611L23.3267 25.4928 M23.3823 25.4933L34.4988 32.0602 M34.475 32.0528L44.1463 32.8319 M44.1382 32.8318L56.0328 32.0527 M56.0088 32.0599L72.1277 22.8217 M72.1848 22.8229L77.8542 26.3846 M77.7936 26.3857L82.2402 23.3805 M82.2992 23.3784L88.6356 27.0514 M88.6667 27.2222L88.6667 21.2222 M88.6288 21.2604L96.1879 24.3769 M96.1267 24.3898L101.24 19.0472 M101.258 19.1463L111.151 14.6941 M111.119 14.7554L109.786 7.85455 M109.881 7.80637L121.553 20.4949 M121.459 20.5182L122.237 17.6243 M122.298 17.5837L133.748 19.1419 M133.727 19.0317L139.396 17.5848 M139.463 17.6215L141.353 23.4093 M141.244 23.1983L142.245 13.5148 M142.312 13.4662L150.872 15.3584 M150.871 15.3582L169.324 19.0312 M3.42847 36.623L15.9901 29.6109 M15.9659 29.6812L13.8538 24.6725 M13.9103 24.5955L23.3593 25.4859 M23.3307 25.4908L27.8884 23.376 M27.9561 23.3929L34.5148 32.0746 M34.4399 32.0618L39.3312 28.834 M39.3722 28.8258L56.0469 32.0536 M55.9971 32.0688L66.5577 21.495 M66.6102 21.4803L72.0573 22.8159 M72.0471 22.8145L82.2743 23.371 M82.2261 23.3941L85.3387 19.0532 M85.4154 19.1512L88.6392 21.3773 M88.5739 21.2676L92.3534 18.3737 M92.3921 18.3625L101.285 19.1416 M101.231 19.0608L104.01 13.4956 M104.021 13.4808L109.801 7.80434 M109.874 7.80032L122.325 17.595 M122.267 17.5886L126.936 15.3625 M126.986 15.3641L133.767 19.1484 M133.697 19.1211L125.916 9.66031 M125.988 9.57712L139.439 17.5909 M139.364 17.6068L142.255 13.4886 M142.282 13.5792L149.063 11.2419 M149.132 11.2724L150.911 15.3907 M150.846 15.3587L169.744 10.5727 M3.44312 32.4992L16.0047 29.6053 M16.0078 29.7144L1.00061 27.1544 M1 26.9335L13.8951 24.5961 M13.9003 24.5954L27.907 23.3711 M27.8839 23.3784L32.8863 20.4845 M32.9391 20.4829L56.0613 32.0585 M55.9861 32.1318L52.6511 25.0084 M52.6881 24.9308L66.5837 21.4804 M66.554 21.4991L72.1122 14.7096 M72.1914 14.7026L82.3074 23.3842 M82.2165 23.436L80.9937 16.3126 M81.0792 16.2568L85.4146 19.1507 M85.3768 19.1418L92.3802 18.2514 M92.3662 18.255L104.038 13.469 M104.069 13.4641L92.3965 15.4676 M92.3651 15.3616L109.818 7.79298 M109.846 7.78874L125.965 9.5696 M125.963 9.56941L149.086 11.239 M149.077 11.239L158.03 10.404 M158.085 10.3484L169.702 10.6266 M34.4153 32.1157L32.859 20.5401 M32.9264 20.4783L52.7137 24.9305 M72.1648 14.69L81.058 16.2483 M81.0441 16.2477L92.3829 15.3573 M92.3492 15.2608L107.579 1.01387 M107.63 1.00052L149.094 11.2404 M149.053 11.2461L158.058 6.12613 M158.105 6.12251L169.778 10.5747 M19.634 38.8073L15.9656 29.6804 M53.7766 41.3884L44.1052 32.9293 M44.1061 32.93L39.326 28.9231 M39.3175 28.9142L32.87 20.4551 M72 22.7778L72.1111 14.7778 M88.4409 27.0439L85.2727 19.1414 M72.1569 14.6892L92.3888 15.2458 M92.4135 15.3504L85.4102 19.1347 M85.3679 19.1437L104.115 13.4649 M96.12 24.4584L92.3405 18.5593 M104.069 13.4657L111.184 14.69 M111.119 14.8005L114.561 24.6328 M101.333 30.8889L101.222 19.1111 M109.787 7.86142L107.564 1.0719 M107.64 1.00412L125.982 9.57449 M126.013 9.61525L126.904 15.4127 M122.235 17.5831L125.909 9.60092 M125.972 9.5708L142.313 13.4665 M107.628 1L141.311 7.78951 M141.322 7.79318L149.103 11.2436 M141.294 7.78868L158.08 6.11913 M158.111 6.11111L158.111 10.3333 M158.117 10.4501L150.891 15.3475"/></path></svg>