<?xml version="1.0" encoding="UTF-8"?>
<svg xmlns="http://www.w3.org/2000/svg" xmlns:xlink="http://www.w3.org/1999/xlink" width="50pt" height="50pt" viewBox="0 0 50 50" version="1.1">
<g id="surface1">
<path style=" stroke:none;fill-rule:nonzero;fill:rgb(100%,0%,0%);fill-opacity:1;" d="M 48.96875 12.996094 C 48.394531 10.855469 46.703125 9.167969 44.5625 8.589844 C 40.648438 7.519531 25 7.519531 25 7.519531 C 25 7.519531 9.347656 7.519531 5.4375 8.550781 C 3.335938 9.125 1.605469 10.855469 1.03125 12.996094 C 0 16.910156 0 25.023438 0 25.023438 C 0 25.023438 0 33.179688 1.03125 37.050781 C 1.605469 39.191406 3.292969 40.878906 5.4375 41.457031 C 9.390625 42.527344 25 42.527344 25 42.527344 C 25 42.527344 40.648438 42.527344 44.5625 41.496094 C 46.703125 40.921875 48.394531 39.234375 48.96875 37.089844 C 50 33.179688 50 25.066406 50 25.066406 C 50 25.066406 50.039062 16.910156 48.96875 12.996094 Z M 48.96875 12.996094 "/>
<path style=" stroke:none;fill-rule:nonzero;fill:rgb(100%,100%,100%);fill-opacity:1;" d="M 20.015625 32.519531 L 33.03125 25.023438 L 20.015625 17.527344 Z M 20.015625 32.519531 "/>
</g>
</svg>
